SplineFontDB: 3.0
FontName: CMUTypewriter-Light
FullName: CMU Typewriter Text Light
FamilyName: CMU Typewriter Text
Weight: Light
Copyright: Converted by Andrey V. Panov from TeX fonts
UComments: "2009-6-18: Created." 
Version: 0.7.0
ItalicAngle: 0
UnderlinePosition: -100
UnderlineWidth: 50
Ascent: 775
Descent: 225
LayerCount: 2
Layer: 0 0 "+BBcEMAQ0BD0EOAQ5 +BD8EOwQwBD0A"  1
Layer: 1 0 "+BB8ENQRABDUENAQ9BDgEOQAA +BD8EOwQwBD0A"  0
NeedsXUIDChange: 1
XUID: [1067 8614723]
FSType: 0
OS2Version: 0
OS2_WeightWidthSlopeOnly: 0
OS2_UseTypoMetrics: 1
CreationTime: 1245318754
ModificationTime: 1245319271
PfmFamily: 17
TTFWeight: 200
TTFWidth: 5
LineGap: 200
VLineGap: 90
Panose: 2 0 3 9 0 0 0 0 0 0
OS2TypoAscent: 0
OS2TypoAOffset: 1
OS2TypoDescent: 0
OS2TypoDOffset: 1
OS2TypoLinegap: 200
OS2WinAscent: 828
OS2WinAOffset: 0
OS2WinDescent: 231
OS2WinDOffset: 0
HheadAscent: 828
HheadAOffset: 0
HheadDescent: -231
HheadDOffset: 0
Lookup: 1 0 0 "Case substitutions"  {"Case substitutions subtable"  } ['case' ('cyrl' <'dflt' > 'grek' <'dflt' > 'latn' <'dflt' > ) ]
Lookup: 3 0 0 "Greek alternatives"  {"Greek alternatives subtable"  } ['salt' ('grek' <'dflt' > ) ]
Lookup: 1 0 0 "Greek substitutions"  {"Greek substitutions subtable"  } ['locl' ('grek' <'dflt' > ) ]
Lookup: 4 0 0 "Latin Dutch ligatures"  {"Latin Dutch ligatures subtable"  } ['dlig' ('latn' <'NLD ' > ) ]
Lookup: 4 0 0 "Latin ligatures excepting Turkic"  {"Latin ligatures excepting Turkic subtable"  } ['dlig' ('latn' <'dflt' 'NLD ' 'VIT ' > ) ]
Lookup: 4 0 0 "Latin ligatures"  {"Latin ligatures subtable"  } ['dlig' ('latn' <'dflt' 'NLD ' 'VIT ' 'TRK ' 'AZE ' > ) ]
Lookup: 4 0 0 "Cyrillic ligatures"  {"Cyrillic ligatures subtable"  } ['dlig' ('cyrl' <'dflt' 'MKD ' 'SRB ' > ) ]
Lookup: 3 0 0 "Latin alternatives"  {"Latin alternatives subtable"  } ['salt' ('latn' <'dflt' > ) ]
Lookup: 3 0 0 "Stilistic set 01"  {"Stilistic set 01 subtable"  } ['ss01' ('latn' <'dflt' > 'grek' <'dflt' > 'cyrl' <'dflt' > ) ]

StartChar: .notdef
Encoding: 0 0 0
Width: 525
Flags: HW
HStem: 10 60<105 420> 705 60<105 420>
VStem: 10 60<112 663> 455 60<112 663>
DStem2: 105 705 70 663 0.508289 -0.861187<18.3797 309.738 396.718 688.585> 70 112 105 70 0.508289 0.861187<0 291.358 378.338 670.205>
LayerCount: 2
Fore
SplineSet
10 10 m 1
 10 765 l 1
 515 765 l 1
 515 10 l 1
 10 10 l 1
70 112 m 1
 232 388 l 1
 70 663 l 1
 70 112 l 1
105 70 m 1
 420 70 l 1
 262 337 l 1
 105 70 l 1
105 705 m 1
 262 438 l 1
 420 705 l 1
 105 705 l 1
292 388 m 1
 455 112 l 1
 455 663 l 1
 292 388 l 1
EndSplineSet
EndChar

StartChar: SF100000
Encoding: 9472 9472 1
Width: 525
Flags: HW
HStem: 240 70<0 525>
LayerCount: 2
Fore
SplineSet
-0 240 m 1
 -0 310 l 1
 525 310 l 1
 525 240 l 1
 -0 240 l 1
EndSplineSet
EndChar

StartChar: SF110000
Encoding: 9474 9474 2
Width: 525
Flags: HW
VStem: 227 70<-355 837>
LayerCount: 2
Fore
SplineSet
227 -355 m 1
 227 837 l 1
 297 837 l 1
 297 -355 l 1
 227 -355 l 1
EndSplineSet
EndChar

StartChar: SF010000
Encoding: 9484 9484 3
Width: 525
Flags: HW
HStem: 240 70<297 525>
VStem: 227 70<-355 240>
LayerCount: 2
Fore
SplineSet
227 310 m 1
 525 310 l 1
 525 240 l 1
 297 240 l 1
 297 -355 l 1
 227 -355 l 1
 227 310 l 1
EndSplineSet
EndChar

StartChar: SF030000
Encoding: 9488 9488 4
Width: 525
Flags: HW
HStem: 240 70<0 227>
VStem: 227 70<-355 240>
LayerCount: 2
Fore
SplineSet
0 240 m 1
 0 310 l 1
 297 310 l 1
 297 -355 l 1
 227 -355 l 1
 227 240 l 1
 0 240 l 1
EndSplineSet
EndChar

StartChar: SF020000
Encoding: 9492 9492 5
Width: 525
Flags: HW
HStem: 240 70<297 525>
VStem: 227 70<310 837>
LayerCount: 2
Fore
SplineSet
227 240 m 1
 227 837 l 1
 297 837 l 1
 297 310 l 1
 525 310 l 1
 525 240 l 1
 227 240 l 1
EndSplineSet
EndChar

StartChar: SF040000
Encoding: 9496 9496 6
Width: 525
Flags: HW
HStem: 240 70<0 227>
VStem: 227 70<310 837>
LayerCount: 2
Fore
SplineSet
0 240 m 1
 0 310 l 1
 227 310 l 1
 227 837 l 1
 297 837 l 1
 297 240 l 1
 0 240 l 1
EndSplineSet
EndChar

StartChar: SF080000
Encoding: 9500 9500 7
Width: 525
Flags: HW
HStem: 240 70<297 525>
VStem: 227 70<-355 240 310 837>
LayerCount: 2
Fore
SplineSet
227 -355 m 1
 227 837 l 1
 297 837 l 1
 297 310 l 1
 525 310 l 1
 525 240 l 1
 297 240 l 1
 297 -355 l 1
 227 -355 l 1
EndSplineSet
EndChar

StartChar: SF090000
Encoding: 9508 9508 8
Width: 525
Flags: HW
HStem: 240 70<0 227>
VStem: 227 70<-355 240 310 837>
LayerCount: 2
Fore
SplineSet
0 240 m 1
 0 310 l 1
 227 310 l 1
 227 837 l 1
 297 837 l 1
 297 -355 l 1
 227 -355 l 1
 227 240 l 1
 0 240 l 1
EndSplineSet
EndChar

StartChar: SF060000
Encoding: 9516 9516 9
Width: 525
Flags: HW
HStem: 240 70<0 227 297 525>
VStem: 227 70<-355 240>
LayerCount: 2
Fore
SplineSet
0 240 m 1
 0 310 l 1
 525 310 l 1
 525 240 l 1
 297 240 l 1
 297 -355 l 1
 227 -355 l 1
 227 240 l 1
 0 240 l 1
EndSplineSet
EndChar

StartChar: SF070000
Encoding: 9524 9524 10
Width: 525
Flags: HW
HStem: 240 70<0 227 297 525>
VStem: 227 70<310 837>
LayerCount: 2
Fore
SplineSet
0 240 m 1
 0 310 l 1
 227 310 l 1
 227 837 l 1
 297 837 l 1
 297 310 l 1
 525 310 l 1
 525 240 l 1
 0 240 l 1
EndSplineSet
EndChar

StartChar: SF050000
Encoding: 9532 9532 11
Width: 525
Flags: HW
HStem: 240 70<0 227 297 525>
VStem: 227 70<-355 240 310 837>
LayerCount: 2
Fore
SplineSet
-0 240 m 1
 -0 310 l 1
 227 310 l 1
 227 837 l 1
 297 837 l 1
 297 310 l 1
 525 310 l 1
 525 240 l 1
 297 240 l 1
 297 -355 l 1
 227 -355 l 1
 227 240 l 1
 -0 240 l 1
EndSplineSet
EndChar

StartChar: SF510000
Encoding: 9554 9554 14
Width: 525
Flags: HW
HStem: 160 70<297 525> 320 70<297 525>
VStem: 227 70<-355 160 230 320>
LayerCount: 2
Fore
SplineSet
227 -355 m 1
 227 390 l 1
 525 390 l 1
 525 320 l 1
 297 320 l 1
 297 230 l 1
 525 230 l 1
 525 160 l 1
 297 160 l 1
 297 -355 l 1
 227 -355 l 1
EndSplineSet
EndChar

StartChar: SF520000
Encoding: 9555 9555 15
Width: 525
Flags: HW
HStem: 240 70<217 307 377 525>
VStem: 147 70<-355 240> 307 70<-355 240>
LayerCount: 2
Fore
SplineSet
147 310 m 1
 525 310 l 1
 525 240 l 1
 377 240 l 1
 377 -355 l 1
 307 -355 l 1
 307 240 l 1
 217 240 l 1
 217 -355 l 1
 147 -355 l 1
 147 310 l 1
EndSplineSet
EndChar

StartChar: SF390000
Encoding: 9556 9556 16
Width: 525
Flags: HW
HStem: 160 70<377 525> 320 70<217 525>
VStem: 147 70<-355 320> 307 70<-355 160>
LayerCount: 2
Fore
SplineSet
147 -355 m 1
 147 390 l 1
 525 390 l 1
 525 320 l 1
 217 320 l 1
 217 -355 l 1
 147 -355 l 1
307 230 m 1
 525 230 l 1
 525 160 l 1
 377 160 l 1
 377 -355 l 1
 307 -355 l 1
 307 230 l 1
EndSplineSet
EndChar

StartChar: SF220000
Encoding: 9557 9557 17
Width: 525
Flags: HW
HStem: 160 70<0 227> 320 70<0 227>
VStem: 227 70<-355 160 230 320>
LayerCount: 2
Fore
SplineSet
0 160 m 1
 0 230 l 1
 227 230 l 1
 227 320 l 1
 0 320 l 1
 0 390 l 1
 297 390 l 1
 297 -355 l 1
 227 -355 l 1
 227 160 l 1
 0 160 l 1
EndSplineSet
EndChar

StartChar: SF210000
Encoding: 9558 9558 18
Width: 525
Flags: HW
HStem: 240 70<0 147 217 307>
VStem: 147 70<-355 240> 307 70<-355 240>
LayerCount: 2
Fore
SplineSet
0 240 m 1
 0 310 l 1
 377 310 l 1
 377 -355 l 1
 307 -355 l 1
 307 240 l 1
 217 240 l 1
 217 -355 l 1
 147 -355 l 1
 147 240 l 1
 0 240 l 1
EndSplineSet
EndChar

StartChar: SF250000
Encoding: 9559 9559 19
Width: 525
Flags: HW
HStem: 160 70<0 147> 320 70<0 307>
VStem: 147 70<-355 160> 307 70<-355 320>
LayerCount: 2
Fore
SplineSet
0 160 m 1
 0 230 l 1
 217 230 l 1
 217 -355 l 1
 147 -355 l 1
 147 160 l 1
 0 160 l 1
0 320 m 1
 0 390 l 1
 377 390 l 1
 377 -355 l 1
 307 -355 l 1
 307 320 l 1
 0 320 l 1
EndSplineSet
EndChar

StartChar: SF500000
Encoding: 9560 9560 20
Width: 525
Flags: HW
HStem: 160 70<297 525> 320 70<297 525>
VStem: 227 70<230 320 390 837>
LayerCount: 2
Fore
SplineSet
227 160 m 1
 227 837 l 1
 297 837 l 1
 297 390 l 1
 525 390 l 1
 525 320 l 1
 297 320 l 1
 297 230 l 1
 525 230 l 1
 525 160 l 1
 227 160 l 1
EndSplineSet
EndChar

StartChar: SF490000
Encoding: 9561 9561 21
Width: 525
Flags: HW
HStem: 240 70<217 307 377 525>
VStem: 147 70<310 837> 307 70<310 837>
LayerCount: 2
Fore
SplineSet
147 240 m 1
 147 837 l 1
 217 837 l 1
 217 310 l 1
 307 310 l 1
 307 837 l 1
 377 837 l 1
 377 310 l 1
 525 310 l 1
 525 240 l 1
 147 240 l 1
EndSplineSet
EndChar

StartChar: SF380000
Encoding: 9562 9562 22
Width: 525
Flags: HW
HStem: 160 70<217 525> 320 70<377 525>
VStem: 147 70<230 837> 307 70<390 837>
LayerCount: 2
Fore
SplineSet
147 160 m 1
 147 837 l 1
 217 837 l 1
 217 230 l 1
 525 230 l 1
 525 160 l 1
 147 160 l 1
307 320 m 1
 307 837 l 1
 377 837 l 1
 377 390 l 1
 525 390 l 1
 525 320 l 1
 307 320 l 1
EndSplineSet
EndChar

StartChar: SF280000
Encoding: 9563 9563 23
Width: 525
Flags: HW
HStem: 160 70<0 227> 320 70<0 227>
VStem: 227 70<230 320 390 837>
LayerCount: 2
Fore
SplineSet
0 160 m 1
 0 230 l 1
 227 230 l 1
 227 320 l 1
 0 320 l 1
 0 390 l 1
 227 390 l 1
 227 837 l 1
 297 837 l 1
 297 160 l 1
 0 160 l 1
EndSplineSet
EndChar

StartChar: SF270000
Encoding: 9564 9564 24
Width: 525
Flags: HW
HStem: 240 70<0 147 217 307>
VStem: 147 70<310 837> 307 70<310 837>
LayerCount: 2
Fore
SplineSet
0 240 m 1
 0 310 l 1
 147 310 l 1
 147 837 l 1
 217 837 l 1
 217 310 l 1
 307 310 l 1
 307 837 l 1
 377 837 l 1
 377 240 l 1
 0 240 l 1
EndSplineSet
EndChar

StartChar: SF260000
Encoding: 9565 9565 25
Width: 525
Flags: HW
HStem: 160 70<0 307> 320 70<0 147>
VStem: 147 70<390 837> 307 70<230 837>
LayerCount: 2
Fore
SplineSet
0 160 m 1
 0 230 l 1
 307 230 l 1
 307 837 l 1
 377 837 l 1
 377 160 l 1
 0 160 l 1
0 320 m 1
 0 390 l 1
 147 390 l 1
 147 837 l 1
 217 837 l 1
 217 320 l 1
 0 320 l 1
EndSplineSet
EndChar

StartChar: SF360000
Encoding: 9566 9566 26
Width: 525
Flags: HW
HStem: 160 70<297 525> 320 70<297 525>
VStem: 227 70<-355 160 230 320 390 837>
LayerCount: 2
Fore
SplineSet
227 -355 m 1
 227 837 l 1
 297 837 l 1
 297 390 l 1
 525 390 l 1
 525 320 l 1
 297 320 l 1
 297 230 l 1
 525 230 l 1
 525 160 l 1
 297 160 l 1
 297 -355 l 1
 227 -355 l 1
EndSplineSet
EndChar

StartChar: SF370000
Encoding: 9567 9567 27
Width: 525
Flags: HW
HStem: 240 70<377 525>
VStem: 147 70<-355 837> 307 70<-355 240 310 837>
LayerCount: 2
Fore
SplineSet
307 -355 m 1
 307 837 l 1
 377 837 l 1
 377 310 l 1
 525 310 l 1
 525 240 l 1
 377 240 l 1
 377 -355 l 1
 307 -355 l 1
EndSplineSet
Refer: 2 9474 S 1 0 0 1 -80 0 2
EndChar

StartChar: SF420000
Encoding: 9568 9568 28
Width: 525
Flags: HW
HStem: 160 70<377 525> 320 70<377 525>
VStem: 147 70<-355 837> 307 218<160 230 320 390> 307 70<-355 160 390 837>
LayerCount: 2
Fore
SplineSet
307 230 m 1xf0
 525 230 l 1
 525 160 l 1xf0
 377 160 l 1
 377 -355 l 1
 307 -355 l 1xe8
 307 230 l 1xf0
307 320 m 1xf0
 307 837 l 1
 377 837 l 1
 377 390 l 1xe8
 525 390 l 1
 525 320 l 1
 307 320 l 1xf0
EndSplineSet
Refer: 2 9474 S 1 0 0 1 -80 0 2
EndChar

StartChar: SF190000
Encoding: 9569 9569 29
Width: 525
Flags: HW
HStem: 160 70<0 227> 320 70<0 227>
VStem: 227 70<-355 160 230 320 390 837>
LayerCount: 2
Fore
SplineSet
0 160 m 1
 0 230 l 1
 227 230 l 1
 227 320 l 1
 0 320 l 1
 0 390 l 1
 227 390 l 1
 227 837 l 1
 297 837 l 1
 297 -355 l 1
 227 -355 l 1
 227 160 l 1
 0 160 l 1
EndSplineSet
EndChar

StartChar: SF200000
Encoding: 9570 9570 30
Width: 525
Flags: HW
HStem: 240 70<0 147>
VStem: 147 70<-355 240 310 837> 307 70<-355 837>
LayerCount: 2
Fore
SplineSet
0 240 m 1
 0 310 l 1
 147 310 l 1
 147 837 l 1
 217 837 l 1
 217 -355 l 1
 147 -355 l 1
 147 240 l 1
 0 240 l 1
EndSplineSet
Refer: 2 9474 S 1 0 0 1 80 0 2
EndChar

StartChar: SF230000
Encoding: 9571 9571 31
Width: 525
Flags: HW
HStem: 160 70<0 147> 320 70<0 147>
VStem: 0 217<160 230 320 390> 147 70<-355 160 390 837> 307 70<-355 837>
LayerCount: 2
Fore
SplineSet
0 160 m 1
 0 230 l 1
 217 230 l 1xe8
 217 -355 l 1
 147 -355 l 1
 147 160 l 1xd8
 0 160 l 1
0 320 m 1xe8
 0 390 l 1xe8
 147 390 l 1
 147 837 l 1
 217 837 l 1xd8
 217 320 l 1
 0 320 l 1xe8
EndSplineSet
Refer: 2 9474 S 1 0 0 1 80 0 2
EndChar

StartChar: SF470000
Encoding: 9572 9572 32
Width: 525
Flags: HW
HStem: 160 70<0 227 297 525> 320 70<0 525>
VStem: 227 70<-355 160>
LayerCount: 2
Fore
SplineSet
0 160 m 1
 0 230 l 1
 525 230 l 1
 525 160 l 1
 297 160 l 1
 297 -355 l 1
 227 -355 l 1
 227 160 l 1
 0 160 l 1
EndSplineSet
Refer: 1 9472 S 1 0 0 1 0 80 2
EndChar

StartChar: SF480000
Encoding: 9573 9573 33
Width: 525
Flags: HW
HStem: 240 70<0 147 217 307 377 525>
VStem: 147 70<-355 240> 307 70<-355 240>
LayerCount: 2
Fore
SplineSet
0 240 m 1
 0 310 l 1
 525 310 l 1
 525 240 l 1
 377 240 l 1
 377 -355 l 1
 307 -355 l 1
 307 240 l 1
 217 240 l 1
 217 -355 l 1
 147 -355 l 1
 147 240 l 1
 0 240 l 1
EndSplineSet
EndChar

StartChar: SF410000
Encoding: 9574 9574 34
Width: 525
Flags: HW
HStem: 160 70<0 147 377 525> 320 70<0 525>
VStem: 147 70<-355 160> 307 70<-355 160>
LayerCount: 2
Fore
SplineSet
0 160 m 1
 0 230 l 1
 217 230 l 1
 217 -355 l 1
 147 -355 l 1
 147 160 l 1
 0 160 l 1
307 230 m 1
 525 230 l 1
 525 160 l 1
 377 160 l 1
 377 -355 l 1
 307 -355 l 1
 307 230 l 1
EndSplineSet
Refer: 1 9472 S 1 0 0 1 0 80 2
EndChar

StartChar: SF450000
Encoding: 9575 9575 35
Width: 525
Flags: HW
HStem: 160 70<0 525> 320 70<0 227 297 525>
VStem: 227 70<390 837>
LayerCount: 2
Fore
SplineSet
0 320 m 1
 0 390 l 1
 227 390 l 1
 227 837 l 1
 297 837 l 1
 297 390 l 1
 525 390 l 1
 525 320 l 1
 0 320 l 1
EndSplineSet
Refer: 1 9472 S 1 0 0 1 0 -80 2
EndChar

StartChar: SF460000
Encoding: 9576 9576 36
Width: 525
Flags: HW
HStem: 240 70<0 147 217 307 377 525>
VStem: 147 70<310 837> 307 70<310 837>
LayerCount: 2
Fore
SplineSet
0 240 m 1
 0 310 l 1
 147 310 l 1
 147 837 l 1
 217 837 l 1
 217 310 l 1
 307 310 l 1
 307 837 l 1
 377 837 l 1
 377 310 l 1
 525 310 l 1
 525 240 l 1
 0 240 l 1
EndSplineSet
EndChar

StartChar: SF400000
Encoding: 9577 9577 37
Width: 525
Flags: HW
HStem: 160 70<0 525> 320 70<0 147 377 525>
VStem: 147 70<390 837> 307 70<390 837>
LayerCount: 2
Fore
SplineSet
0 320 m 1
 0 390 l 1
 147 390 l 1
 147 837 l 1
 217 837 l 1
 217 320 l 1
 0 320 l 1
307 320 m 1
 307 837 l 1
 377 837 l 1
 377 390 l 1
 525 390 l 1
 525 320 l 1
 307 320 l 1
EndSplineSet
Refer: 1 9472 S 1 0 0 1 0 -80 2
EndChar

StartChar: SF540000
Encoding: 9578 9578 38
Width: 525
Flags: HW
HStem: 160 70<0 227 297 525> 320 70<0 227 297 525>
VStem: 227 70<-355 160 230 320 390 837>
LayerCount: 2
Fore
SplineSet
0 160 m 1
 0 230 l 1
 227 230 l 1
 227 320 l 1
 0 320 l 1
 0 390 l 1
 227 390 l 1
 227 837 l 1
 297 837 l 1
 297 390 l 1
 525 390 l 1
 525 320 l 1
 297 320 l 1
 297 230 l 1
 525 230 l 1
 525 160 l 1
 297 160 l 1
 297 -355 l 1
 227 -355 l 1
 227 160 l 1
 0 160 l 1
EndSplineSet
EndChar

StartChar: SF530000
Encoding: 9579 9579 39
Width: 525
Flags: HW
HStem: 240 70<0 147 217 307 377 525>
VStem: 147 70<-355 240 310 837> 307 70<-355 240 310 837>
LayerCount: 2
Fore
SplineSet
-0 240 m 1
 -0 310 l 1
 147 310 l 1
 147 837 l 1
 217 837 l 1
 217 310 l 1
 307 310 l 1
 307 837 l 1
 377 837 l 1
 377 310 l 1
 525 310 l 1
 525 240 l 1
 377 240 l 1
 377 -355 l 1
 307 -355 l 1
 307 240 l 1
 217 240 l 1
 217 -355 l 1
 147 -355 l 1
 147 240 l 1
 -0 240 l 1
EndSplineSet
EndChar

StartChar: uni262D
Encoding: 9773 9773 40
Width: 525
Flags: HW
TeX: 117 0
HStem: 0 20G<30.5 60.5 462.5 467> 39 76<244.267 355.503> 102 51<98.531 128.337>
VStem: 89 43<98.6716 137.734> 431 65<186.303 382.211>
DStem2: 84 357 128 301 0.626941 0.779067<0 63.6069 102.652 165.701>
LayerCount: 2
Fore
SplineSet
18 18 m 0
 18 64 89 102 89 128 c 0
 89 148 93 153 104 153 c 0xb8
 115 153 118 159 132 180 c 1
 175 152 232 115 298 115 c 0
 336 115 356 128 356 129 c 0
 356 135 311 186 178 363 c 1
 128 301 l 1
 84 357 l 1
 188 486 l 1
 264 470 l 1
 203 393 l 1
 373 190 l 1
 396 165 l 1
 401 165 431 218 431 295 c 0
 431 473 263 587 263 593 c 1
 301 593 496 478 496 267 c 0
 496 167 458 114 450 100 c 1
 493 46 496 44 496 38 c 0
 496 17 470 -1 464 -1 c 0xd8
 461 -1 462 -3 409 62 c 1
 387 51 366 39 328 39 c 0xd8
 225 39 147 138 136 138 c 0
 132 138 132 134 132 130 c 2
 132 118 l 2
 132 108 128 102 120 102 c 0
 91 102 84 0 37 0 c 0
 24 0 18 7 18 18 c 0
EndSplineSet
EndChar

StartChar: circumflex.cap
Encoding: 65536 -1 41
Width: 525
Flags: HW
HStem: 652 171
VStem: 103 319<672 698>
AnchorPoint: "above" 262 619 mark 0
LayerCount: 2
Fore
SplineSet
103 685 m 0
 103 700 106 698 240 812 c 0
 247 818 254 823 262 823 c 2
 264 823 l 2
 274 823 276 819 407 710 c 0
 412 705 422 698 422 685 c 0
 422 672 406 652 390 652 c 0
 370 652 352 681 262 758 c 1
 259 755 182 684 157 663 c 0
 153 659 145 652 135 652 c 0
 119 652 103 671 103 685 c 0
EndSplineSet
EndChar

StartChar: dieresis.cap
Encoding: 65537 -1 42
Width: 525
Flags: HW
HStem: 733 86<123.893 198.629 327.893 401.358>
VStem: 118 86<739.076 813.066> 322 85<738.542 813.066>
AnchorPoint: "above" 262 619 mark 0
LayerCount: 2
Fore
SplineSet
118 776 m 0
 118 801 138 819 160 819 c 0
 184 819 204 801 204 776 c 0
 204 751 184 733 160 733 c 0
 136 733 118 754 118 776 c 0
322 776 m 0
 322 801 342 819 364 819 c 0
 386 819 407 801 407 776 c 0
 407 751 388 733 364 733 c 0
 340 733 322 754 322 776 c 0
EndSplineSet
EndChar

StartChar: dotaccent.cap
Encoding: 65538 -1 43
Width: 525
Flags: HW
HStem: 669 85<225.39 300.105>
VStem: 220 86<674.893 747.536>
AnchorPoint: "above" 263 619 mark 0
LayerCount: 2
Fore
SplineSet
220 711 m 0
 220 734 238 754 262 754 c 0
 284 754 306 736 306 711 c 0
 306 687 286 669 262 669 c 0
 238 669 220 689 220 711 c 0
EndSplineSet
EndChar

StartChar: caron.cap
Encoding: 65539 -1 44
Width: 525
Flags: HW
HStem: 649 164
VStem: 114 298<773 803>
AnchorPoint: "above" 263 619 mark 0
LayerCount: 2
Fore
SplineSet
114 788 m 0
 114 803 128 813 138 813 c 0
 152 813 152 808 262 714 c 1
 374 811 374 813 386 813 c 0
 400 813 412 803 412 788 c 0
 412 773 396 763 378 745 c 0
 276 649 272 649 262 649 c 0
 250 649 236 664 222 676 c 0
 116 774 114 772 114 788 c 0
EndSplineSet
EndChar

StartChar: ring.cap
Encoding: 65540 -1 45
Width: 525
Flags: HW
HStem: 593 53<219.557 304.704> 774 54<219.357 304.904>
VStem: 146 58<660.787 759.456> 320 59<660.64 759.456>
AnchorPoint: "above" 262 619 mark 0
LayerCount: 2
Fore
SplineSet
146 710 m 0
 146 770 193 828 262 828 c 0
 332 828 379 770 379 710 c 0
 379 650 331 593 262 593 c 0
 194 593 146 650 146 710 c 0
204 710 m 0
 204 680 226 646 262 646 c 0
 298 646 320 679 320 710 c 0
 320 741 298 774 262 774 c 0
 226 774 204 741 204 710 c 0
EndSplineSet
EndChar

StartChar: breve.cap
Encoding: 65541 -1 46
Width: 525
Flags: HW
HStem: 646 56<185.43 338.238>
VStem: 90 64<731.552 815.211> 381 54<741.163 818.494>
AnchorPoint: "above" 262 619 mark 0
LayerCount: 2
Fore
SplineSet
90 791 m 0
 90 813 108 819 117 819 c 0
 151 819 137 786 154 756 c 0
 174 721 219 702 263 702 c 0
 315 702 375 731 381 787 c 0
 383 800 385 819 409 819 c 0
 424 819 435 808 435 791 c 0
 435 719 366 646 263 646 c 0
 161 646 90 718 90 791 c 0
EndSplineSet
EndChar

StartChar: grave
Encoding: 96 96 47
Width: 525
Flags: HW
TeX: 611 0
HStem: 496 139
VStem: 107 211
LayerCount: 2
Fore
SplineSet
107 605 m 0
 107 620 120 635 137 635 c 0
 147 635 145 636 293 559 c 0
 305 553 318 547 318 530 c 1
 317 517 306 496 288 496 c 0
 279 496 281 496 135 572 c 0
 125 577 107 585 107 605 c 0
EndSplineSet
EndChar

StartChar: acute
Encoding: 180 180 48
Width: 525
Flags: HW
TeX: 611 0
HStem: 496 139
VStem: 206 210
LayerCount: 2
Fore
SplineSet
206 530 m 0
 206 549 205 545 362 627 c 0
 370 631 377 635 386 635 c 0
 404 635 416 620 416 605 c 0
 416 585 399 577 389 572 c 0
 243 496 244 496 235 496 c 0
 217 496 206 518 206 530 c 0
EndSplineSet
EndChar

StartChar: circumflex
Encoding: 710 710 49
Width: 525
Flags: HW
TeX: 638 0
HStem: 580 63<262 292.997>
VStem: 103 318<519 543>
LayerCount: 2
Fore
SplineSet
103 529 m 0
 103 543 115 551 121 555 c 0
 244 636 250 643 262 643 c 0
 273 643 281 636 401 556 c 0
 408 551 421 544 421 529 c 0
 421 518 408 495 390 495 c 0
 379 495 381 496 293 559 c 0
 283 566 273 572 263 580 c 1
 262 580 l 1
 162 509 l 2
 152 502 145 496 134 496 c 0
 116 496 103 519 103 529 c 0
EndSplineSet
EndChar

StartChar: tilde
Encoding: 732 732 50
Width: 525
Flags: HW
TeX: 638 0
HStem: 499 57<279.497 359.471> 554 57<163.95 244.283>
LayerCount: 2
Fore
SplineSet
88 526 m 0
 88 537 94 543 105 553 c 0
 150 593 184 611 214 611 c 0x40
 269 611 284 556 314 556 c 0x80
 349 556 390 611 411 611 c 0x40
 421 611 436 600 436 584 c 0
 436 573 429 565 420 557 c 0
 402 541 354 499 310 499 c 0x80
 255 499 240 554 211 554 c 2
 210 554 l 1x40
 172 553 136 499 115 499 c 0x80
 102 499 88 511 88 526 c 0
EndSplineSet
EndChar

StartChar: dieresis
Encoding: 168 168 51
Width: 525
Flags: HW
TeX: 611 0
HStem: 525 85<122.701 197.458> 525 86<327.607 401.107>
VStem: 117 86<530.824 604.066> 322 85<530.934 605.458>
LayerCount: 2
Fore
SplineSet
322 568 m 0
 322 593 341 611 364 611 c 0
 390 611 407 590 407 568 c 0
 407 545 389 525 365 525 c 0x70
 343 525 322 543 322 568 c 0
EndSplineSet
Refer: 403 183 S 1 0 0 1 -102 348 2
EndChar

StartChar: ring
Encoding: 730 730 53
Width: 525
Flags: HW
TeX: 638 0
HStem: 473 36<237.374 284.79> 612 35<239.218 284.433>
VStem: 172 58<511.967 608.745> 293 58<511.503 608.36>
LayerCount: 2
Fore
SplineSet
172 560 m 0
 172 603 207 647 262 647 c 0
 318 647 351 602 351 560 c 0
 351 517 317 473 262 473 c 0
 206 473 172 518 172 560 c 0
230 560 m 0
 230 528 246 509 262 509 c 0
 285 509 293 541 293 560 c 0
 293 590 277 612 261 612 c 0
 248 612 230 593 230 560 c 0
EndSplineSet
EndChar

StartChar: caron
Encoding: 711 711 54
Width: 525
Flags: HW
TeX: 638 0
HStem: 491 148
VStem: 114 297<601 629>
LayerCount: 2
Fore
SplineSet
114 614 m 0
 114 629 125 639 138 639 c 0
 149 639 148 638 263 555 c 1
 273 563 284 571 367 631 c 0
 372 635 379 639 387 639 c 0
 400 639 411 629 411 614 c 0
 411 598 407 598 284 501 c 0
 278 496 272 491 263 491 c 2
 261 491 l 2
 251 491 250 494 130 589 c 0
 124 594 114 601 114 614 c 0
EndSplineSet
EndChar

StartChar: breve
Encoding: 728 728 55
Width: 525
Flags: HW
TeX: 638 0
HStem: 489 55<174.396 350.928>
VStem: 90 53<573.031 638.547> 381 53<572.634 638.564>
LayerCount: 2
Fore
SplineSet
90 611 m 0
 90 628 101 639 117 639 c 0
 138 639 142 621 143 611 c 0
 148 557 224 544 263 544 c 0
 315 544 375 563 381 609 c 0
 382 614 382 639 408 639 c 0
 423 639 434 628 434 611 c 0
 434 538 356 489 262 489 c 0
 169 489 90 538 90 611 c 0
EndSplineSet
EndChar

StartChar: macron
Encoding: 175 175 56
Width: 525
Flags: HW
TeX: 611 0
HStem: 565 54<73.456 451.515>
LayerCount: 2
Fore
SplineSet
73 592 m 0
 73 602 77 619 105 619 c 2
 422 619 l 2
 446 619 452 603 452 592 c 0
 452 581 447 565 421 565 c 2
 104 565 l 1
 78 566 73 582 73 592 c 0
EndSplineSet
EndChar

StartChar: cedilla
Encoding: 184 184 58
Width: 525
Flags: HW
TeX: 0 194
HStem: -204 52<133.39 314.961>
VStem: 231 62<-19.0622 49.2843> 329 62<-134.181 -77.1706>
LayerCount: 2
Fore
SplineSet
133 -178 m 0
 133 -173 135 -155 156 -152 c 0
 179 -149 329 -161 329 -108 c 0
 329 -91 313 -70 271 -65 c 0
 256 -63 231 -68 231 -32 c 0
 231 -16 231 0 231 16 c 0
 231 29 233 50 261 50 c 2
 264 50 l 2
 295 50 293 22 293 15 c 2
 293 -14 l 1
 293 -14 391 -28 391 -108 c 0
 391 -205 251 -204 169 -204 c 2
 166 -204 l 2
 152 -204 133 -201 133 -178 c 0
EndSplineSet
EndChar

StartChar: ogonek
Encoding: 731 731 59
Width: 525
Flags: HW
TeX: 0 222
HStem: -190 57<251.343 344.305>
VStem: 188 62<-128.914 -71.8095>
LayerCount: 2
Fore
SplineSet
188 -107 m 0
 188 -25 298 1 341 35 c 0
 350 42 357 49 367 49 c 0
 379 49 392 40 392 25 c 0
 392 -20 257 -49 250 -104 c 1
 250 -121 270 -133 294 -133 c 0
 323 -133 348 -114 366 -88 c 0
 372 -79 380 -65 395 -65 c 0
 409 -65 422 -78 422 -92 c 0
 422 -112 369 -190 289 -190 c 0
 237 -190 188 -156 188 -107 c 0
EndSplineSet
EndChar

StartChar: guilsinglleft
Encoding: 8249 8249 61
Width: 525
Flags: HW
TeX: 438 0
HStem: 0 21G<361.5 373.5>
VStem: 66 326
DStem2: 84 246 136 219 0.816271 0.577669<26.849 341.335> 136 219 85 193 0.81522 -0.579152<0 313.992>
LayerCount: 2
Fore
SplineSet
66 219 m 0
 66 234 76 240 84 246 c 2
 344 430 l 2
 352 435 357 439 366 439 c 0
 381 439 392 428 392 414 c 0
 392 402 384 396 376 390 c 2
 136 219 l 1
 144 214 296 106 376 49 c 0
 384 43 392 38 392 25 c 0
 392 11 381 0 366 0 c 0
 357 0 352 4 344 9 c 2
 85 193 l 2
 79 198 66 204 66 219 c 0
EndSplineSet
EndChar

StartChar: guilsinglright
Encoding: 8250 8250 62
Width: 525
Flags: HW
TeX: 438 0
HStem: 0 21G<149 161.5>
VStem: 131 327
DStem2: 439 246 147 390 0.81522 -0.579152<-341.324 -26.5182> 147 49 439 193 0.81522 0.579152<-19.8824 295.503>
LayerCount: 2
Fore
SplineSet
131 25 m 0
 131 37 139 43 147 49 c 2
 388 220 l 1
 380 225 227 333 147 390 c 0
 139 396 132 401 132 414 c 0
 132 426 140 439 157 439 c 0
 166 439 172 435 180 430 c 2
 439 246 l 2
 445 241 458 234 458 220 c 0
 458 206 448 199 439 193 c 2
 180 9 l 2
 172 4 166 0 157 0 c 0
 141 0 131 13 131 25 c 0
EndSplineSet
EndChar

StartChar: quotedblleft
Encoding: 8220 8220 63
Width: 525
Flags: HW
TeX: 611 0
HStem: 364 108<75.0621 139.808 406.283 472.146> 590 20G<124 144 457 477>
VStem: 20 130<390.061 460.654> 353 129<391.043 456.098>
LayerCount: 2
Fore
SplineSet
20 456 m 0
 20 556 110 610 138 610 c 0
 150 610 165 600 165 584 c 0
 165 548 90 564 74 468 c 1
 80 470 87 472 96 472 c 0
 125 472 150 450 150 418 c 0
 150 388 128 364 95 364 c 0
 50 364 20 407 20 456 c 0
353 457 m 0
 353 557 443 610 471 610 c 0
 483 610 498 600 498 584 c 0
 498 548 422 564 406 468 c 1
 412 470 420 472 429 472 c 0
 458 472 482 450 482 418 c 0
 482 388 461 364 428 364 c 0
 383 364 353 408 353 457 c 0
EndSplineSet
EndChar

StartChar: quotedblright
Encoding: 8221 8221 64
Width: 525
Flags: HW
TeX: 611 0
HStem: 503 108<52.5369 117.718 384.854 450.717>
VStem: 42 130<513.846 583.25> 375 129<513.392 583.957>
LayerCount: 2
Fore
SplineSet
26 391 m 0
 26 427 102 411 118 507 c 1
 112 505 105 503 96 503 c 0
 67 503 42 525 42 557 c 0
 42 587 63 611 96 611 c 0
 141 611 172 568 172 518 c 0
 172 419 82 365 53 365 c 0
 41 365 26 375 26 391 c 0
359 392 m 0
 359 428 435 411 451 507 c 1
 445 505 437 503 428 503 c 0
 399 503 375 525 375 557 c 0
 375 587 396 611 429 611 c 0
 474 611 504 568 504 518 c 0
 504 419 415 365 386 365 c 0
 371 365 359 378 359 392 c 0
EndSplineSet
EndChar

StartChar: dotlessi
Encoding: 305 305 71
Width: 525
Flags: HW
TeX: 430 0
HStem: -0 53<82.3871 244 305 449.635> 378 53<90.5537 244>
VStem: 244 61<53 378>
AnchorPoint: "below" 274 0 basechar 0
AnchorPoint: "above" 274 437 basechar 0
LayerCount: 2
Fore
SplineSet
82 26 m 0
 82 51 104 53 115 53 c 2
 244 53 l 1
 244 378 l 1
 131 378 l 2
 128 378 125 377 122 377 c 0
 96 377 90 393 90 404 c 0
 90 412 94 431 122 431 c 2
 272 431 l 2
 289 431 305 427 305 399 c 2
 305 53 l 1
 416 53 l 2
 431 53 450 50 450 26 c 0
 450 16 446 0 419 -0 c 2
 114 -0 l 2
 86 0 82 17 82 26 c 0
EndSplineSet
EndChar

StartChar: dotlessj
Encoding: 567 567 72
Width: 525
Flags: HW
TeX: 430 222
HStem: -227 53<125.443 260.493> 378 53<133.404 303>
VStem: 47 78<-167.813 -121.96> 303 61<-126.36 378>
AnchorPoint: "below" 244 -222 basechar 0
AnchorPoint: "above" 334 437 basechar 0
LayerCount: 2
Fore
SplineSet
47 -158 m 0
 47 -136 63 -118 86 -118 c 0
 106 -118 125 -133 125 -157 c 0
 125 -161 124 -164 123 -168 c 1
 135 -171 161 -174 186 -174 c 0
 204 -174 222 -173 234 -168 c 0
 275 -152 303 -107 303 -41 c 2
 303 378 l 1
 164 378 l 2
 136 378 133 396 133 404 c 0
 133 429 156 431 165 431 c 2
 332 431 l 2
 365 431 364 408 364 396 c 2
 364 -38 l 2
 364 -167 280 -227 194 -227 c 2
 189 -227 l 2
 106 -227 47 -213 47 -158 c 0
EndSplineSet
EndChar

StartChar: ff
Encoding: 64256 64256 73
Width: 525
Flags: HW
TeX: 611 0
HStem: 0 53<13.5298 94 155 235.532 263.529 344 405 505.551> 378 53<25.4392 94 155 257.573 405 506.56> 562 53<190.516 330.388 422.816 487>
VStem: 94 61<53 378 431 530.226> 344 61<53 378 431 519.437> 487 74<526.253 561>
LayerCount: 2
Fore
SplineSet
13 27 m 0
 13 52 34 53 47 53 c 2
 94 53 l 1
 94 378 l 1
 61 378 l 2
 50 378 25 378 25 404 c 0
 25 429 48 431 57 431 c 0
 69 431 82 431 94 431 c 1
 94 488 l 1
 93 562 170 615 288 615 c 0
 361 615 378 601 391 588 c 1
 419 607 443 615 477 615 c 0
 546 615 561 582 561 560 c 0
 561 539 544 523 524 523 c 0
 513 523 488 529 487 561 c 1
 483 561 480 562 476 562 c 0
 438 562 405 541 405 486 c 2
 405 431 l 1
 476 431 l 2
 502 431 507 415 507 404 c 0
 507 391 500 378 477 378 c 2
 405 378 l 1
 405 53 l 1
 475 53 l 2
 499 53 506 38 506 26 c 0
 506 14 499 0 473 0 c 2
 295 0 l 2
 267 0 263 18 263 27 c 0
 263 51 284 53 296 53 c 0
 312 53 328 53 344 53 c 1
 344 481 l 2
 344 495 344 508 346 520 c 1
 341 524 331 532 331 551 c 2
 331 559 l 1
 318 562 302 562 287 562 c 2
 283 562 l 2
 192 562 160 521 156 500 c 0
 155 493 155 485 155 478 c 2
 155 431 l 1
 227 431 l 2
 253 431 258 415 258 404 c 0
 258 391 250 378 227 378 c 2
 155 378 l 1
 155 53 l 1
 203 53 l 2
 232 53 236 35 236 26 c 0
 236 18 233 0 204 -0 c 2
 46 -0 l 2
 18 0 13 17 13 27 c 0
EndSplineSet
Ligature2: "Latin ligatures subtable" f f
EndChar

StartChar: fi
Encoding: 64257 64257 74
Width: 525
Flags: HW
TeX: 611 0
HStem: -0 53<15.5051 100 161 245.532 278.48 363 424 508.569> 378 53<26.3702 100 161 363> 562 53<197.619 346.986>
VStem: 100 61<53 378 431 528.502> 347 77<504.995 554.812> 363 61<53 378>
LayerCount: 2
Fore
SplineSet
15 27 m 0
 15 51 35 53 48 53 c 2
 100 53 l 1
 100 378 l 1
 59 378 l 2
 46 378 26 380 26 404 c 0
 26 429 47 431 59 431 c 2
 100 431 l 1
 100 486 l 2
 100 588 223 615 298 615 c 0
 405 615 424 571 424 541 c 0
 424 519 408 501 385 501 c 0
 364 501 347 517 347 540 c 0xf8
 347 546 348 551 349 555 c 1
 333 560 314 562 293 562 c 0
 221 562 169 533 162 500 c 0
 161 493 161 485 161 478 c 2
 161 431 l 1
 392 431 l 2
 425 431 424 409 424 393 c 2
 424 53 l 1xf4
 477 53 l 2
 504 53 509 36 509 27 c 0
 509 17 505 0 476 -0 c 2
 310 -0 l 2
 297 0 278 3 278 26 c 0
 278 38 285 53 308 53 c 2
 363 53 l 1
 363 378 l 1xf4
 161 378 l 1
 161 53 l 1
 216 53 l 1
 244 52 246 32 246 26 c 0
 246 19 243 0 214 -0 c 2
 48 -0 l 2
 19 0 15 17 15 27 c 0
EndSplineSet
Ligature2: "Latin ligatures excepting Turkic subtable" f i
EndChar

StartChar: fl
Encoding: 64258 64258 75
Width: 525
Flags: HW
TeX: 611 0
HStem: -0 53<15.5051 100 161 245.532 278.48 363 424 508.569> 378 53<26.3702 100 161 363> 562 53<199.171 354.748>
VStem: 100 61<53 378 431 529.625> 363 61<53 378 431 558.626>
LayerCount: 2
Fore
SplineSet
15 27 m 0
 15 51 35 53 48 53 c 2
 100 53 l 1
 100 378 l 1
 59 378 l 2
 46 378 26 380 26 404 c 0
 26 429 47 431 59 431 c 2
 100 431 l 1
 100 486 l 2
 100 508 101 548 162 583 c 0
 210 610 261 615 303 615 c 0
 357 615 365 611 379 611 c 2
 387 611 l 1
 387 608 l 1
 391 609 396 610 399 610 c 0
 423 610 424 590 424 576 c 2
 424 53 l 1
 477 53 l 2
 504 53 509 36 509 27 c 0
 509 17 505 0 476 -0 c 2
 310 -0 l 2
 297 0 278 3 278 26 c 0
 278 38 285 53 308 53 c 2
 363 53 l 1
 363 378 l 1
 161 378 l 1
 161 53 l 1
 216 53 l 1
 244 52 246 32 246 26 c 0
 246 19 243 0 214 -0 c 2
 48 -0 l 2
 19 0 15 17 15 27 c 0
161 431 m 1
 363 431 l 1
 363 513 l 2
 363 544 352 530 349 560 c 1
 331 562 315 562 297 562 c 0
 230 562 161 538 161 487 c 2
 161 431 l 1
EndSplineSet
Ligature2: "Latin ligatures subtable" f l
EndChar

StartChar: ffi
Encoding: 64259 64259 76
Width: 525
Flags: HW
TeX: 611 0
HStem: 0 53<0.554592 57 118 164.608 184.431 232 293 339.608 359.497 407 468 523.545> 378 53<17.3731 57 118 232 293 407> 562 53<138.956 218.447 313.431 393.589>
VStem: 57 61<53 378 431 539.946> 232 61<53 378 431 537.394> 391 77<505.041 556.766> 407 61<53 378>
LayerCount: 2
Fore
SplineSet
0 27 m 0
 0 48 16 53 33 53 c 2
 57 53 l 1
 57 378 l 1
 50 378 l 2
 21 378 17 394 17 404 c 0
 17 429 38 431 51 431 c 2
 57 431 l 1
 57 487 l 2
 57 580 140 615 198 615 c 0
 237 615 260 601 277 583 c 1
 307 606 342 615 373 615 c 0
 440 615 468 572 468 541 c 0
 468 515 448 501 429 501 c 0
 407 501 391 519 391 540 c 0xfc
 391 547 392 552 394 557 c 1
 385 560 376 562 367 562 c 0
 344 562 293 548 293 486 c 2
 293 431 l 1
 434 431 l 2
 469 431 468 414 468 393 c 2
 468 53 l 1xfa
 491 53 l 2
 498 53 524 54 524 27 c 0
 524 18 520 0 493 0 c 2
 391 0 l 2
 363 0 359 18 359 27 c 0
 359 39 367 53 391 53 c 2xfc
 407 53 l 1
 407 378 l 1xfa
 293 378 l 1
 293 53 l 1
 309 53 l 2
 337 53 340 36 340 27 c 0
 340 15 334 0 309 0 c 2
 215 0 l 2
 188 0 184 17 184 26 c 0
 184 37 189 53 216 53 c 2
 232 53 l 1
 232 378 l 1
 118 378 l 1
 118 53 l 1
 134 53 l 2
 162 53 165 35 165 26 c 0
 165 14 159 0 134 0 c 2
 32 0 l 2
 5 0 0 17 0 27 c 0
118 431 m 1
 232 431 l 1xf8
 232 507 l 1
 222 516 216 525 216 538 c 0
 216 543 217 550 219 557 c 1
 210 560 202 562 193 562 c 0
 170 562 118 548 118 486 c 2
 118 431 l 1
EndSplineSet
Ligature2: "Latin ligatures excepting Turkic subtable" ff i
Ligature2: "Latin ligatures excepting Turkic subtable" f f i
EndChar

StartChar: ffl
Encoding: 64260 64260 77
Width: 525
Flags: HW
TeX: 611 0
HStem: 0 53<0.554592 57 118 164.608 184.431 232 293 339.608 359.497 407 468 523.545> 378 53<17.3731 57 118 232 293 407> 562 53<139.863 218.635 314.023 398.61>
VStem: 57 61<53 378 431 540.547> 232 61<53 378 431 518.343> 407 61<53 378 431 559.625>
CounterMasks: 1 1c
LayerCount: 2
Fore
SplineSet
0 27 m 0
 0 48 16 53 33 53 c 2
 57 53 l 1
 57 378 l 1
 50 378 l 2
 21 378 17 394 17 404 c 0
 17 429 38 431 51 431 c 2
 57 431 l 1
 57 487 l 2
 57 576 135 615 200 615 c 0
 248 615 268 599 280 586 c 1
 309 606 336 615 377 615 c 0
 409 615 415 611 430 611 c 2
 431 611 l 1
 431 608 l 1
 435 609 440 610 443 610 c 0
 471 610 468 580 468 576 c 2
 468 53 l 1
 491 53 l 2
 498 53 524 54 524 27 c 0
 524 18 520 0 493 0 c 2
 391 0 l 2
 363 0 359 18 359 27 c 0
 359 39 367 53 391 53 c 2
 407 53 l 1
 407 378 l 1
 293 378 l 1
 293 53 l 1
 309 53 l 2
 337 53 340 36 340 27 c 0
 340 15 334 0 309 0 c 2
 215 0 l 2
 188 0 184 17 184 26 c 0
 184 37 189 53 216 53 c 2
 232 53 l 1
 232 378 l 1
 118 378 l 1
 118 53 l 1
 134 53 l 2
 162 53 165 35 165 26 c 0
 165 14 159 0 134 0 c 2
 32 0 l 2
 5 0 0 17 0 27 c 0
118 431 m 1
 232 431 l 1
 232 473 l 2
 232 490 232 505 235 519 c 1
 230 524 219 532 219 551 c 2
 219 559 l 1
 211 561 203 562 196 562 c 0
 166 562 118 546 118 486 c 2
 118 431 l 1
293 431 m 1
 407 431 l 1
 407 512 l 2
 407 544 395 531 393 561 c 1
 386 561 380 562 373 562 c 0
 333 562 293 540 293 488 c 2
 293 431 l 1
EndSplineSet
Ligature2: "Latin ligatures subtable" ff l
Ligature2: "Latin ligatures subtable" f f l
EndChar

StartChar: uni2423
Encoding: 9251 9251 78
Width: 525
Flags: HW
TeX: 430 111
HStem: -130 38<80 443>
VStem: 43 37<-92 236.992> 443 37<-92 236.985>
LayerCount: 2
Fore
SplineSet
43 -103 m 2
 43 212 l 2
 43 226 47 237 62 237 c 0
 75 237 81 226 80 213 c 1
 80 -92 l 1
 443 -92 l 1
 443 213 l 2
 443 227 449 237 462 237 c 0
 482 237 480 217 480 210 c 2
 480 -105 l 2
 480 -128 464 -130 453 -130 c 2
 68 -130 l 1
 47 -129 43 -120 43 -103 c 2
EndSplineSet
EndChar

StartChar: exclam
Encoding: 33 33 79
Width: 525
Flags: HW
TeX: 611 0
HStem: 0 108<218.846 304.736> 599 20G<250.5 275.5>
VStem: 208 108<10.7503 96.8457 342.091 608.257> 218 87<190.396 432.909>
LayerCount: 2
Fore
SplineSet
208 553 m 1
 208 563 l 2
 208 603 239 619 262 619 c 0xe0
 289 619 316 600 316 564 c 2
 316 554 l 1xe0
 305 221 l 2
 304 190 288 189 272 189 c 2
 250 189 l 1
 216 190 219 214 218 232 c 2xd0
 208 553 l 1
EndSplineSet
Refer: 92 46 S 1 0 0 1 -0 0 3
EndChar

StartChar: quotedbl
Encoding: 34 34 80
Width: 525
Flags: HW
TeX: 611 0
HStem: 327 293<149.201 199.495 325.416 375.442>
VStem: 135 78<333.476 615.817> 311 78<333.803 615.767>
LayerCount: 2
Fore
SplineSet
135 579 m 0
 135 605 154 620 174 620 c 0
 188 620 213 611 213 578 c 0
 213 571 205 433 201 361 c 0
 201 354 201 327 174 327 c 0
 140 327 148 346 136 565 c 0
 136 570 135 574 135 579 c 0
311 579 m 0
 311 603 329 620 350 620 c 0
 364 620 389 611 389 578 c 0
 389 571 381 433 377 361 c 0
 376 346 373 327 350 327 c 0
 316 327 324 347 312 565 c 0
 312 570 311 574 311 579 c 0
EndSplineSet
EndChar

StartChar: numbersign
Encoding: 35 35 81
Width: 525
Flags: HW
TeX: 611 0
HStem: 1 21G<123 144 307 328> 171 53<35.6394 125 186 308 370 488.539> 387 53<36.4929 155 216 338 400 488.622> 590 20G<197 218 380 401>
VStem: 105 54<1.74323 83.8421> 182 54<445.506 609.257> 289 54<1.74323 83.8421> 365 54<445.506 609.257>
DStem2: 125 171 178 171 0.138696 0.990335<-146.083 0 60.9482 218.073 279.021 425.105> 308 171 362 171 0.138696 0.990335<-145.945 0 61.0869 218.073 279.16 425.105>
LayerCount: 2
Fore
SplineSet
35 198 m 0
 35 207 40 224 67 224 c 2
 133 224 l 1
 155 387 l 1
 69 387 l 2
 40 387 36 403 36 413 c 0
 36 424 42 440 68 440 c 2
 163 440 l 1
 165 454 166 468 182 578 c 0
 182 580 184 610 210 610 c 0
 226 610 236 598 236 585 c 0
 236 579 233 559 216 440 c 1
 346 440 l 1
 348 454 349 468 365 578 c 0
 365 580 367 610 393 610 c 0
 409 610 419 598 419 585 c 0
 419 579 417 559 400 440 c 1
 458 440 l 1
 486 439 489 420 489 414 c 0
 489 404 485 387 458 387 c 2
 392 387 l 1
 370 224 l 1
 455 224 l 2
 484 224 489 208 489 198 c 0
 489 189 485 172 456 171 c 1
 362 171 l 1
 343 33 l 2
 343 31 341 1 315 1 c 0
 299 1 289 13 289 26 c 0
 289 32 291 52 308 171 c 1
 178 171 l 1
 159 33 l 2
 159 31 157 1 131 1 c 0
 115 1 105 13 105 26 c 0
 105 32 108 52 125 171 c 1
 67 171 l 1
 38 172 35 192 35 198 c 0
186 224 m 1
 316 224 l 1
 338 387 l 1
 209 387 l 1
 186 224 l 1
EndSplineSet
EndChar

StartChar: dollar
Encoding: 36 36 82
Width: 525
Flags: HW
TeX: 694 83
HStem: -3 53<171.595 236 289 346.383> 561 53<170.858 236 289 356.95>
VStem: 58 78<140.421 204.587> 58 56<404.005 510.041> 236 53<-82.5594 -0.291046 51 281 355 561 612.235 693.642> 388 78<419.181 482.671> 410 56<105.365 225.94>
LayerCount: 2
Fore
SplineSet
58 166 m 0
 58 200 84 209 97 209 c 0
 117 209 136 193 136 170 c 0xea
 136 157 131 149 122 140 c 1
 139 73 189 57 236 50 c 1
 236 292 l 1
 218 295 199 299 181 305 c 0
 98 333 58 394 58 453 c 0
 58 539 138 604 236 614 c 1
 236 665 l 1
 237 690 253 694 262 694 c 0
 291 694 289 666 289 656 c 2
 289 614 l 1
 428 603 466 520 466 457 c 0
 466 423 440 415 427 415 c 0
 407 415 388 430 388 453 c 0xdc
 388 468 395 476 401 483 c 1
 387 531 349 554 289 561 c 1
 289 343 l 1
 451 313 466 205 466 170 c 0xca
 466 100 412 13 289 -3 c 1
 289 -44 l 2
 289 -58 290 -83 262 -83 c 0
 237 -83 236 -62 236 -50 c 2
 236 -3 l 1
 78 13 58 122 58 166 c 0
114 457 m 0xd8
 114 436 124 377 236 355 c 1
 236 561 l 1
 157 551 114 501 114 457 c 0xd8
289 51 m 1
 369 63 410 118 410 166 c 0xca
 410 189 398 259 289 281 c 1
 289 51 l 1
EndSplineSet
EndChar

StartChar: percent
Encoding: 37 37 83
Width: 525
Flags: HW
TeX: 694 83
HStem: -83 54<377.997 427.191> 129 54<377.133 426.31> 428 54<97.5974 147.652> 640 54<97.3477 146.31>
VStem: 35 50<490.16 632.403> 160 50<489.597 631.584> 315 49<-18.8589 119.603> 440 50<-21.4026 120.584>
DStem2: 99 -28 154 -57 0.363796 0.931479<-25.0767 765.378>
LayerCount: 2
Fore
SplineSet
35 561 m 0
 35 634 71 694 122 694 c 0
 175 694 210 632 210 561 c 0
 210 488 174 428 123 428 c 0
 70 428 35 490 35 561 c 0
85 562 m 0
 85 518 103 482 123 482 c 0
 144 482 160 522 160 560 c 0
 160 601 142 640 122 640 c 0
 101 640 85 600 85 562 c 0
93 -53 m 0
 93 -44 96 -36 99 -28 c 2
 371 668 l 2
 375 678 383 694 402 694 c 0
 418 694 432 682 432 664 c 0
 432 656 430 649 427 642 c 2
 154 -57 l 2
 150 -67 142 -83 123 -83 c 0
 107 -83 93 -71 93 -53 c 0
315 50 m 0
 315 123 351 183 402 183 c 0
 455 183 490 121 490 50 c 0
 490 -23 453 -83 402 -83 c 0
 349 -83 315 -21 315 50 c 0
364 51 m 0
 364 9 383 -29 403 -29 c 0
 424 -29 440 11 440 49 c 0
 440 90 422 129 402 129 c 0
 381 129 364 89 364 51 c 0
EndSplineSet
EndChar

StartChar: ampersand
Encoding: 38 38 84
Width: 525
Flags: HW
TeX: 611 0
HStem: -8 53<110.839 206.868 343.513 426.504> 378 53<312.41 368 414.775 490.424> 566 53<171.771 232.88>
VStem: 28 61<65.8269 205.544> 106 50<362.158 552.607> 244 49<428.806 559.971> 442 45<59.4126 133.871>
LayerCount: 2
Fore
SplineSet
28 134 m 0
 28 205 61 231 135 316 c 1
 114 378 106 440 106 481 c 0
 106 569 152 619 206 619 c 0
 276 619 293 539 293 490 c 0
 293 453 281 398 193 303 c 1
 206 272 220 239 273 152 c 1
 274 152 l 1
 318 239 324 264 368 378 c 1
 345 378 l 2
 333 378 312 380 312 404 c 0
 312 425 328 431 346 431 c 2
 459 431 l 2
 487 431 491 413 491 404 c 0
 491 379 468 378 459 378 c 2
 421 378 l 1
 353 197 337 159 305 106 c 1
 324 84 357 45 392 45 c 0
 438 45 436 112 442 122 c 0
 446 129 454 134 463 134 c 0
 470 134 487 130 487 104 c 0
 487 62 460 -8 393 -8 c 0
 370 -8 327 1 276 63 c 1
 275 63 l 1
 225 0 178 -8 150 -8 c 0
 76 -7 28 61 28 134 c 0
89 138 m 0
 89 85 114 45 151 45 c 0
 199 45 235 93 244 105 c 1
 187 195 164 245 157 261 c 1
 116 214 89 193 89 138 c 0
156 483 m 0
 156 435 167 385 173 361 c 1
 178 367 244 439 244 490 c 0
 244 517 236 566 206 566 c 0
 176 566 156 530 156 483 c 0
EndSplineSet
EndChar

StartChar: quoteright
Encoding: 8217 8217 85
Width: 525
Flags: HW
TeX: 611 0
HStem: 503 108<219.462 291.23>
VStem: 293 53<414.471 508.168>
LayerCount: 2
Fore
SplineSet
184 322 m 0
 184 340 202 346 211 351 c 0
 264 384 293 438 293 496 c 0
 293 501 292 506 292 511 c 1
 284 507 273 503 262 503 c 0
 230 503 209 529 209 557 c 0
 209 587 231 611 263 611 c 0
 313 611 346 562 346 496 c 0
 346 366 235 295 211 295 c 0
 197 295 184 308 184 322 c 0
EndSplineSet
EndChar

StartChar: parenleft
Encoding: 40 40 86
Width: 525
Flags: HW
TeX: 694 83
VStem: 177 61<175.333 437.66>
LayerCount: 2
Fore
SplineSet
177 306 m 0
 177 559 380 694 410 694 c 0
 425 694 436 683 436 670 c 0
 435 653 422 647 412 640 c 0
 302 566 238 440 238 306 c 0
 238 144 326 31 407 -25 c 0
 428 -39 436 -45 436 -58 c 0
 436 -71 425 -83 410 -83 c 0
 380 -83 177 52 177 306 c 0
EndSplineSet
EndChar

StartChar: parenright
Encoding: 41 41 87
Width: 525
Flags: HW
TeX: 694 83
VStem: 285 62<174.625 434.728>
LayerCount: 2
Fore
SplineSet
88 -58 m 0
 88 -40 111 -30 117 -25 c 0
 225 50 285 174 285 306 c 0
 285 440 220 568 110 641 c 0
 100 648 88 653 88 670 c 0
 88 679 96 694 114 694 c 0
 144 694 347 559 347 305 c 0
 347 51 143 -83 113 -83 c 0
 98 -83 88 -71 88 -58 c 0
EndSplineSet
EndChar

StartChar: asterisk
Encoding: 42 42 88
Width: 525
Flags: HW
TeX: 520 0
VStem: 234 57<92.0117 261 351 520.219>
DStem2: 236 351 100 365 0.874157 -0.485643<-167.958 -1.74831 91.398 258.482> 100 246 236 261 0.876118 0.482097<-31.9523 123.941 217.291 374.06>
LayerCount: 2
Fore
SplineSet
70 213 m 0
 70 232 86 239 100 246 c 2
 209 305 l 1
 209 306 l 1
 198 311 188 317 100 365 c 0
 88 371 70 379 70 399 c 0
 70 411 79 427 97 427 c 2
 99 427 l 2
 109 427 111 425 236 351 c 1
 236 351 234 414 234 459 c 0
 234 482 234 500 236 504 c 0
 241 514 251 521 262 521 c 0
 289 521 291 498 291 486 c 2
 291 481 l 1
 289 377 289 364 288 351 c 1
 415 427 414 427 428 427 c 0
 445 427 455 413 455 399 c 0
 455 380 439 372 425 365 c 2
 315 306 l 1
 315 305 l 1
 425 246 l 2
 436 240 455 232 455 212 c 0
 455 200 445 184 427 184 c 2
 425 184 l 2
 415 184 413 187 288 261 c 1
 288 259 291 197 291 152 c 0
 291 129 290 111 288 107 c 0
 283 97 273 91 262 91 c 0
 235 91 233 114 233 126 c 0
 233 128 234 130 234 131 c 0
 236 235 235 248 236 261 c 1
 109 186 111 184 97 184 c 0
 80 184 70 199 70 213 c 0
EndSplineSet
EndChar

StartChar: plus
Encoding: 43 43 89
Width: 525
Flags: HW
TeX: 530 -80
HStem: 279 53<37.5585 236 289 485.525>
VStem: 236 53<81.5585 279 332 529.442>
LayerCount: 2
Fore
SplineSet
37 305 m 0
 37 316 44 332 70 332 c 2
 236 332 l 1
 236 497 l 2
 236 525 253 530 262 530 c 0
 273 530 290 523 289 497 c 1
 289 332 l 1
 453 332 l 2
 483 332 486 313 486 306 c 0
 486 298 483 280 455 279 c 1
 289 279 l 1
 289 114 l 2
 289 86 271 81 262 81 c 0
 251 81 235 88 236 114 c 1
 236 279 l 1
 69 279 l 2
 43 279 37 295 37 305 c 0
EndSplineSet
EndChar

StartChar: comma
Encoding: 44 44 90
Width: 525
Flags: HW
TeX: 107 138
HStem: -138 21G<204 225.5> 0 108<219.228 282.872>
VStem: 209 128<11.0283 82.2987>
LayerCount: 2
Fore
SplineSet
184 -112 m 0
 184 -72 266 -98 284 4 c 1
 278 2 270 0 262 0 c 0
 233 0 209 22 209 54 c 0
 209 82 229 108 263 108 c 0
 308 108 337 66 337 16 c 0
 337 -91 239 -138 212 -138 c 0
 196 -138 184 -124 184 -112 c 0
EndSplineSet
EndChar

StartChar: hyphen
Encoding: 45 45 91
Width: 525
Flags: HW
TeX: 430 0
HStem: 189 53<87.4611 436.507>
LayerCount: 2
Fore
SplineSet
87 216 m 0
 87 227 91 242 120 242 c 2
 405 242 l 2
 431 242 437 226 437 215 c 0
 437 206 433 189 405 189 c 2
 117 189 l 1
 91 190 87 207 87 216 c 0
EndSplineSet
EndChar

StartChar: period
Encoding: 46 46 92
Width: 525
Flags: HW
TeX: 107 0
HStem: 0 108<218.846 304.736>
VStem: 208 108<10.7503 96.8457>
LayerCount: 2
Fore
SplineSet
208 54 m 0
 208 81 230 108 262 108 c 0
 290 108 316 85 316 54 c 0
 316 27 294 0 262 0 c 0
 230 0 208 27 208 54 c 0
EndSplineSet
EndChar

StartChar: slash
Encoding: 47 47 93
Width: 525
Flags: HW
TeX: 694 83
DStem2: 68 -29 116 -53 0.439464 0.89826<-28.643 800.175>
LayerCount: 2
Fore
SplineSet
59 -57 m 0
 59 -46 64 -37 68 -29 c 2
 409 667 l 2
 414 676 421 694 439 694 c 0
 453 694 465 684 465 668 c 0
 465 659 460 651 457 644 c 2
 116 -53 l 2
 111 -63 104 -83 85 -83 c 0
 72 -83 59 -73 59 -57 c 0
EndSplineSet
EndChar

StartChar: zero
Encoding: 48 48 94
Width: 525
Flags: HW
TeX: 611 0
HStem: -8 53<206.614 317.38> 566 53<203.381 320.064>
VStem: 54 61<178.381 442.079> 409 62<173.025 443.755>
LayerCount: 2
Fore
SplineSet
54 306 m 0
 54 469 141 619 263 619 c 0
 374 619 471 486 471 305 c 0
 471 141 384 -8 262 -8 c 0
 151 -8 54 126 54 306 c 0
115 316 m 0
 115 192 168 45 263 45 c 0
 348 45 409 173 409 316 c 0
 409 460 341 566 262 566 c 0
 185 566 115 465 115 316 c 0
EndSplineSet
Substitution2: "LGC old numerals subtable" zerooldstyle
EndChar

StartChar: one
Encoding: 49 49 95
Width: 525
Flags: HW
TeX: 611 0
HStem: 0 53<115.529 246 307 437.612> 444 54<109.529 195.642> 599 20G<274 292>
VStem: 246 61<53 493> 253 54<559.031 618.279>
LayerCount: 2
Fore
SplineSet
109 470 m 0
 109 498 139 498 142 498 c 0
 190 503 229 542 253 597 c 0
 259 610 267 619 281 619 c 0xe8
 303 619 307 603 307 586 c 2xe8
 307 53 l 1
 404 53 l 2
 416 53 438 51 438 26 c 0
 438 16 434 1 408 0 c 1
 148 0 l 2
 136 0 115 5 115 27 c 0
 115 48 130 53 148 53 c 2
 246 53 l 1
 246 493 l 1xf0
 205 454 165 444 141 444 c 0
 114 444 109 460 109 470 c 0
EndSplineSet
Substitution2: "LGC old numerals subtable" oneoldstyle
EndChar

StartChar: two
Encoding: 50 50 96
Width: 525
Flags: HW
TeX: 611 0
HStem: -0 53<151 411> 566 53<171.119 338.685>
VStem: 52 67<429.294 518.767> 411 61<53 99.1582 350.893 501.213>
LayerCount: 2
Fore
SplineSet
52 26 m 0
 52 37 57 44 68 54 c 0
 321 267 411 322 411 431 c 0
 411 522 327 566 246 566 c 0
 159 566 119 496 119 479 c 0
 119 471 130 461 130 446 c 0
 130 425 112 408 91 408 c 0
 78 408 52 416 52 449 c 0
 52 532 129 619 249 619 c 0
 375 619 472 544 472 432 c 0
 472 337 410 268 344 213 c 2
 151 53 l 1
 411 53 l 1
 411 68 l 2
 411 81 412 100 442 100 c 2
 443 100 l 2
 471 100 472 79 472 63 c 0
 472 53 472 43 472 33 c 0
 472 16 469 0 439 -0 c 2
 86 -0 l 2
 74 0 52 1 52 26 c 0
EndSplineSet
Substitution2: "LGC old numerals subtable" twooldstyle
EndChar

StartChar: three
Encoding: 51 51 97
Width: 525
Flags: HW
TeX: 611 0
HStem: -8 53<164.027 349.066> 303 61<177.598 334.936> 566 53<167.343 347.874>
VStem: 43 78<117.468 178.817> 72 69<497.376 540.596> 390 61<418.183 529.02> 419 61<109.047 239.66>
LayerCount: 2
Fore
SplineSet
43 141 m 0
 43 174 69 183 82 183 c 0
 103 183 121 166 121 145 c 0
 121 136 118 127 110 117 c 1
 133 65 207 45 266 45 c 0
 362 45 419 113 419 174 c 0
 419 233 369 303 261 303 c 2xf2
 209 303 l 2
 180 303 175 319 175 330 c 0
 175 369 233 354 286 364 c 0
 353 377 390 435 390 483 c 0
 390 530 334 566 266 566 c 0
 171 566 145 528 141 524 c 1
 141 523 l 1
 147 514 150 505 150 497 c 0
 150 476 133 459 111 459 c 0
 90 459 72 474 72 500 c 0
 72 572 148 619 266 619 c 0
 369 619 451 562 451 483 c 0xec
 451 450 440 384 361 335 c 1
 413 314 480 260 480 173 c 0
 480 79 392 -8 266 -8 c 0
 142 -8 43 50 43 141 c 0
EndSplineSet
Substitution2: "LGC old numerals subtable" threeoldstyle
EndChar

StartChar: four
Encoding: 52 52 98
Width: 525
Flags: HW
TeX: 611 0
HStem: -0 53<223.539 325 375 475.496> 168 53<91 325 375 494.622> 604 20G<303.5 360.5>
VStem: 325 50<53 168 221 581>
DStem2: 45 246 91 221 0.544988 0.838444<4.10837 432.742>
LayerCount: 2
Fore
SplineSet
29 201 m 0
 29 228 33 226 45 246 c 2
 277 602 l 2
 290 621 294 624 313 624 c 2
 344 624 l 2
 377 624 375 600 375 587 c 2
 375 221 l 1
 464 221 l 2
 492 221 495 204 495 195 c 0
 495 186 492 169 465 168 c 1
 375 168 l 1
 375 53 l 1
 446 53 l 2
 473 53 476 35 476 27 c 0
 476 12 465 1 449 -0 c 1
 252 -0 l 2
 232 0 223 13 223 26 c 0
 223 35 228 53 254 53 c 2
 325 53 l 1
 325 168 l 1
 63 168 l 2
 49 168 29 169 29 201 c 0
91 221 m 1
 325 221 l 1
 325 581 l 1
 91 221 l 1
EndSplineSet
Substitution2: "LGC old numerals subtable" fouroldstyle
EndChar

StartChar: five
Encoding: 53 53 99
Width: 525
Flags: HW
TeX: 611 0
HStem: -8 53<167.055 332.017> 333 53<181.947 346.95> 558 53<153 436.59>
VStem: 52 69<84.2573 164.662> 91 62<355 558> 411 61<118.813 267.348>
LayerCount: 2
Fore
SplineSet
52 145 m 0xf4
 52 178 78 186 91 186 c 0xec
 114 186 130 169 130 148 c 0
 130 131 121 126 121 117 c 0xf4
 121 100 164 45 249 45 c 0
 344 45 411 115 411 190 c 0
 411 259 362 333 277 333 c 0
 160 333 154 271 120 271 c 0
 90 271 91 298 91 306 c 2
 91 577 l 2
 91 610 111 611 126 611 c 2
 408 611 l 2
 431 611 437 594 437 585 c 0xec
 437 563 421 558 403 558 c 2
 153 558 l 1
 153 355 l 1xec
 197 379 238 386 279 386 c 0
 397 386 472 288 472 190 c 0
 472 81 375 -8 249 -8 c 0
 140 -8 52 59 52 145 c 0xf4
EndSplineSet
Substitution2: "LGC old numerals subtable" fiveoldstyle
EndChar

StartChar: six
Encoding: 54 54 100
Width: 525
Flags: HW
TeX: 611 0
HStem: -8 52<198.399 337.125> 339 53<186.925 341.725> 566 53<244.229 383.948>
VStem: 56 74<145.141 287.285> 376 78<485.071 543.58> 406 61<113.203 272.331>
LayerCount: 2
Fore
SplineSet
56 300 m 0
 56 494 185 619 321 619 c 0
 427 619 454 561 454 522 c 0
 454 495 435 481 415 481 c 0
 395 481 376 496 376 519 c 0xf8
 376 529 379 535 385 544 c 1
 379 550 366 566 321 566 c 0
 244 566 131 499 118 327 c 1
 162 374 219 392 272 392 c 0
 328 392 371 374 413 330 c 0
 449 292 467 253 467 191 c 0
 467 127 443 85 407 50 c 0
 366 10 320 -8 263 -8 c 0
 180 -8 56 47 56 300 c 0
127 222 m 0
 127 206 130 201 130 192 c 2
 130 185 l 2xf4
 130 164 161 44 265 44 c 0
 329 44 406 97 406 192 c 0
 406 244 388 274 360 302 c 0
 335 327 310 339 269 339 c 0
 185 339 127 281 127 222 c 0
EndSplineSet
Substitution2: "LGC old numerals subtable" sixoldstyle
EndChar

StartChar: seven
Encoding: 55 55 101
Width: 525
Flags: HW
TeX: 611 0
HStem: -8 21G<200 212> 511 116<43.9629 102.577> 558 53<104 388>
VStem: 43 61<511.806 558> 173 58<-6.66516 180.615>
LayerCount: 2
Fore
SplineSet
43 540 m 1xd8
 43 595 l 2
 43 612 49 627 73 627 c 0xd8
 83 627 94 626 103 611 c 1
 449 611 l 2
 474 611 480 596 480 585 c 0
 480 562 453 554 395 481 c 0
 215 256 240 28 231 10 c 0
 229 5 220 -8 204 -8 c 0
 196 -8 173 -5 173 29 c 0
 173 146 205 365 388 558 c 1
 104 558 l 1xb8
 104 544 l 1
 105 522 95 511 75 511 c 2
 74 511 l 2
 58 511 44 516 43 540 c 1xd8
EndSplineSet
Substitution2: "LGC old numerals subtable" sevenoldstyle
EndChar

StartChar: eight
Encoding: 56 56 102
Width: 525
Flags: HW
TeX: 611 0
HStem: -8 53<176.114 346.333> 303 53<192.371 330.693> 566 53<174.803 346.268>
VStem: 43 61<109.858 237.29> 58 61<405.731 515.937> 404 62<405.845 515.731> 419 61<110.35 238.279>
LayerCount: 2
Fore
SplineSet
43 173 m 0xf2
 43 236 90 302 190 330 c 1
 135 344 58 387 58 462 c 0
 58 540 139 619 262 619 c 0
 386 619 466 539 466 462 c 0xec
 466 435 454 366 334 330 c 1
 397 314 480 261 480 173 c 0
 480 81 391 -8 261 -8 c 0
 130 -8 43 84 43 173 c 0xf2
104 174 m 0
 104 100 179 45 262 45 c 0
 351 45 419 105 419 174 c 0xf2
 419 244 351 303 261 303 c 0
 173 303 104 243 104 174 c 0
119 461 m 0
 119 400 188 356 262 356 c 0xec
 343 356 404 405 404 461 c 0
 404 520 339 566 262 566 c 0
 182 566 119 520 119 461 c 0
EndSplineSet
Substitution2: "LGC old numerals subtable" eightoldstyle
EndChar

StartChar: nine
Encoding: 57 57 103
Width: 525
Flags: HW
TeX: 611 0
HStem: -8 53<140.719 288.813> 219 53<181.775 336.018> 566 53<186.741 327.971>
VStem: 56 61<337.694 496.296> 69 70<53.298 91.5341> 394 73<324.704 465.438>
LayerCount: 2
Fore
SplineSet
56 419 m 0xf4
 56 478 75 519 115 558 c 0
 158 600 202 619 266 619 c 0
 347 619 467 564 467 310 c 0
 467 107 339 -8 216 -8 c 2
 215 -8 l 2
 93 -8 69 50 69 89 c 0xec
 69 122 95 130 108 130 c 0
 128 130 147 115 147 92 c 0
 147 82 145 76 139 67 c 1
 139 66 l 1xec
 150 57 165 45 215 45 c 0
 313 45 396 145 405 284 c 1
 361 237 305 219 252 219 c 0
 196 219 152 237 111 281 c 0
 73 321 56 364 56 419 c 0xf4
117 419 m 0
 117 366 135 336 163 309 c 0
 188 285 215 272 255 272 c 0
 329 272 397 321 397 390 c 0
 397 411 394 403 394 421 c 2
 394 428 l 2xf4
 394 437 369 566 264 566 c 0
 216 566 189 551 161 523 c 0
 129 492 117 461 117 419 c 0
EndSplineSet
Substitution2: "LGC old numerals subtable" nineoldstyle
EndChar

StartChar: semicolon
Encoding: 59 59 105
Width: 525
Flags: HW
TeX: 430 138
HStem: -138 21<204 225.5> 0 108<219.228 282.872> 323 107<219.462 305.154>
VStem: 209 107<333.75 419.588> 209 128<11.0283 82.2987>
LayerCount: 2
Fore
SplineSet
209 377 m 0
 209 404 230 430 262 430 c 0
 294 430 316 404 316 377 c 0
 316 350 294 323 262 323 c 0xf0
 230 323 209 350 209 377 c 0
EndSplineSet
Refer: 90 44 S 1 0 0 1 0 0 3
EndChar

StartChar: less
Encoding: 60 60 106
Width: 525
Flags: HW
TeX: 552 -59
DStem2: 80 335 134 306 0.857714 0.514127<31.4069 418.308> 134 305 80 276 0.857714 -0.514127<0 386.902>
LayerCount: 2
Fore
SplineSet
56 306 m 0
 56 323 69 328 80 335 c 2
 422 540 l 2
 428 543 433 547 441 547 c 0
 456 547 468 534 468 521 c 0
 468 506 454 497 446 493 c 2
 157 320 l 2
 149 315 142 310 134 306 c 1
 134 305 l 1
 151 295 168 285 185 275 c 2
 446 118 l 2
 456 112 467 106 467 90 c 0
 467 77 457 64 441 64 c 0
 433 64 428 68 422 71 c 2
 80 276 l 2
 72 281 56 289 56 306 c 0
EndSplineSet
EndChar

StartChar: equal
Encoding: 61 61 107
Width: 525
Flags: HW
TeX: 411 -199
HStem: 204 53<37.6134 485.576> 355 53<37.5735 485.578>
LayerCount: 2
Fore
SplineSet
37 230 m 0
 37 242 46 251 52 254 c 0
 58 257 68 257 77 257 c 2
 452 257 l 2
 464 257 486 255 486 230 c 0
 486 214 474 204 455 204 c 2
 70 204 l 2
 42 204 37 220 37 230 c 0
37 381 m 0
 37 389 41 408 72 408 c 2
 450 408 l 2
 462 408 486 406 486 381 c 0
 486 370 480 355 455 355 c 2
 70 355 l 2
 41 355 37 371 37 381 c 0
EndSplineSet
EndChar

StartChar: greater
Encoding: 62 62 108
Width: 525
Flags: HW
TeX: 552 -59
DStem2: 103 540 78 493 0.857049 -0.515235<-20.426 366.538> 390 305 102 71 0.857714 0.514127<-386.902 0>
LayerCount: 2
Fore
SplineSet
56 90 m 0
 56 105 70 114 78 118 c 2
 390 305 l 1
 390 306 l 1
 382 310 375 315 367 320 c 2
 78 493 l 2
 68 499 57 506 57 521 c 0
 57 533 68 547 83 547 c 0
 91 547 97 543 103 540 c 2
 444 335 l 2
 455 328 468 323 468 306 c 0
 468 289 455 283 444 276 c 2
 102 71 l 2
 96 68 91 64 83 64 c 0
 68 64 56 77 56 90 c 0
EndSplineSet
EndChar

StartChar: question
Encoding: 63 63 109
Width: 525
Flags: HW
TeX: 611 0
HStem: 0 85<208.701 283.458> 562 53<153.979 362.988>
VStem: 61 68<491.513 538.553> 203 86<5.82407 79.0659> 212 69<174.13 309.552> 401 61<451.257 530.992>
LayerCount: 2
Fore
SplineSet
61 494 m 0
 61 543 105 615 250 615 c 0
 424 615 462 541 462 491 c 0
 462 427 406 399 391 391 c 0
 285 331 281 260 281 230 c 2
 281 208 l 2
 281 192 282 173 246 173 c 2
 245 173 l 2
 231 173 212 173 212 205 c 2xec
 212 228 l 2
 212 371 342 424 375 447 c 0
 385 455 401 470 401 491 c 0
 401 520 371 562 251 562 c 0
 164 562 139 531 129 518 c 1
 129 517 l 1
 134 510 139 502 139 491 c 0
 139 468 121 452 100 452 c 0
 79 452 61 468 61 494 c 0
EndSplineSet
Refer: 403 183 S 1 0 0 1 -16 -177 2
EndChar

StartChar: at
Encoding: 64 64 110
Width: 525
Flags: HW
TeX: 611 0
HStem: -4 53<223.537 387.676> 109 53<289.455 385.29> 449 53<289.321 385.263> 562 53<222.116 368.744>
VStem: 43 50<195.165 414.653> 193 50<215.264 395.556> 431 49<217.761 394.949>
LayerCount: 2
Fore
SplineSet
43 305 m 0
 43 485 169 615 304 615 c 0
 367 615 410 581 433 546 c 0
 472 486 480 403 480 314 c 2
 480 308 l 2
 480 189 413 109 337 109 c 0
 256 109 193 198 193 305 c 0
 193 414 256 502 337 502 c 0
 344 502 376 502 412 474 c 1
 399 510 373 562 304 562 c 0
 195 562 93 454 93 306 c 0
 93 163 188 49 308 49 c 0
 329 49 373 54 413 88 c 0
 425 98 427 104 449 104 c 0
 477 104 480 86 480 79 c 0
 480 53 398 -4 306 -4 c 0
 165 -4 43 128 43 305 c 0
243 306 m 0
 243 226 286 162 337 162 c 0
 393 162 431 234 431 305 c 0
 431 387 386 449 337 449 c 0
 281 449 243 377 243 306 c 0
EndSplineSet
EndChar

StartChar: A
Encoding: 65 65 111
Width: 525
Flags: HW
TeX: 611 0
HStem: 0 53<27.4373 89.9482 148 205.631 319.369 376 433.764 496.596> 176 53<191 334> 604 20G<242 287.5>
DStem2: 85 53 148 53 0.234818 0.972039<14.7936 141.399 195.97 524.901> 313 578 263 550 0.233373 -0.972387<15.5582 344.264 398.834 525.206>
AnchorPoint: "ogonek" 406 0 basechar 0
AnchorPoint: "below" 262 0 basechar 0
AnchorPoint: "above" 262 619 basechar 0
LayerCount: 2
Fore
SplineSet
27 27 m 0
 27 52 49 53 61 53 c 2
 85 53 l 1
 89 73 95 92 100 112 c 2
 214 587 l 2
 220 611 228 624 256 624 c 2
 269 624 l 2
 306 624 307 601 313 578 c 2
 426 107 l 2
 430 89 435 71 439 53 c 1
 464 53 l 2
 474 53 497 52 497 27 c 0
 497 2 476 0 465 0 c 2
 351 0 l 2
 323 0 319 15 319 26 c 0
 319 50 338 53 352 53 c 2
 376 53 l 1
 347 176 l 1
 178 176 l 1
 148 53 l 1
 173 53 l 2
 189 53 206 49 206 26 c 0
 206 15 202 0 174 0 c 2
 59 0 l 2
 52 0 27 0 27 27 c 0
191 229 m 1
 334 229 l 1
 304 357 266 518 263 550 c 1
 236 422 l 1
 191 229 l 1
EndSplineSet
EndChar

StartChar: B
Encoding: 66 66 112
Width: 525
Flags: HW
TeX: 611 0
HStem: 0 53<27.4035 95 156 367.27> 291 53<156 347.052> 558 53<27.456 95 156 357.202>
VStem: 95 61<53 291 344 558> 400 61<394.941 518.524> 421 61<102.948 238.441>
AnchorPoint: "below" 220 0 basechar 0
AnchorPoint: "above" 220 619 basechar 0
LayerCount: 2
Fore
SplineSet
27 26 m 0
 27 51 50 53 59 53 c 2
 95 53 l 1
 95 558 l 1
 63 558 l 2
 53 558 27 558 27 585 c 0
 27 594 32 611 58 611 c 2
 287 611 l 2
 409 611 461 522 461 457 c 0xf8
 461 402 424 344 349 320 c 1
 443 299 482 228 482 166 c 0
 482 102 439 0 302 0 c 2
 58 0 l 1
 31 1 27 17 27 26 c 0
156 53 m 1
 289 53 l 2
 378 53 421 114 421 168 c 0xf4
 421 221 384 291 297 291 c 2
 156 291 l 1
 156 53 l 1
156 344 m 1
 266 344 l 2
 369 344 399 417 400 455 c 0
 400 493 376 558 284 558 c 2xf8
 156 558 l 1
 156 344 l 1
EndSplineSet
EndChar

StartChar: C
Encoding: 67 67 113
Width: 525
Flags: HW
TeX: 611 0
HStem: -8 53<214.166 360.273> 566 53<214.221 354.096>
VStem: 40 61<182.352 425.409> 412 72<408.547 508.795> 422 62<105.646 197.092 566 615.13>
AnchorPoint: "below" 282 0 basechar 0
AnchorPoint: "above" 282 619 basechar 0
LayerCount: 2
Fore
SplineSet
40 305 m 0
 40 477 145 619 282 619 c 0
 340 619 379 597 417 566 c 1
 432 604 437 619 458 619 c 0
 486 619 484 592 484 583 c 2xe8
 484 437 l 2
 484 420 480 404 453 404 c 0
 416 404 428 429 412 470 c 0xf0
 396 512 354 566 284 566 c 0
 195 566 101 463 101 305 c 0
 101 149 193 45 285 45 c 0
 354 45 416 93 422 164 c 0
 423 171 422 198 451 198 c 2xe8
 453 198 l 2
 475 198 484 186 484 169 c 0
 484 75 394 -8 282 -8 c 0
 146 -8 40 133 40 305 c 0
EndSplineSet
EndChar

StartChar: D
Encoding: 68 68 114
Width: 525
Flags: HW
TeX: 611 0
HStem: -0 53<23.4349 86 147 323.543> 558 53<23.4213 86 147 318.955>
VStem: 86 61<53 558> 424 62<179.869 426.208>
AnchorPoint: "below" 220 0 basechar 0
AnchorPoint: "above" 220 619 basechar 0
LayerCount: 2
Fore
SplineSet
23 26 m 0
 23 51 47 53 55 53 c 2
 86 53 l 1
 86 558 l 1
 57 558 l 2
 47 558 23 558 23 584 c 0
 23 595 27 611 56 611 c 2
 266 611 l 2
 398 611 486 466 486 300 c 0
 486 141 398 0 266 -0 c 2
 56 -0 l 2
 28 0 23 15 23 26 c 0
147 53 m 1
 247 53 l 2
 373 53 424 194 424 300 c 0
 424 427 364 558 247 558 c 2
 147 558 l 1
 147 53 l 1
EndSplineSet
EndChar

StartChar: E
Encoding: 69 69 115
Width: 525
Flags: HW
TeX: 611 0
HStem: -0 53<30.3935 101 162 441> 290 53<162 302> 558 53<30.4551 101 162 420>
VStem: 101 61<53 290 343 558> 302 61<234.601 290 343 399.318> 420 61<464.682 558> 441 62<53 162.281>
AnchorPoint: "ogonek" 267 0 basechar 0
AnchorPoint: "below" 267 0 basechar 0
AnchorPoint: "above" 267 619 basechar 0
LayerCount: 2
Fore
SplineSet
30 26 m 0
 30 51 52 53 63 53 c 2
 101 53 l 1
 101 558 l 1
 64 558 l 2
 56 558 30 558 30 584 c 0
 30 594 34 611 62 611 c 2
 448 611 l 2
 474 611 481 600 481 579 c 2
 481 497 l 1
 482 473 469 464 452 464 c 2
 450 464 l 2
 436 464 421 467 420 494 c 1
 420 558 l 1xfc
 162 558 l 1
 162 343 l 1
 302 343 l 1
 302 367 l 2
 302 375 301 400 331 400 c 2
 334 400 l 2
 360 400 363 380 363 367 c 2
 363 265 l 2
 363 240 349 234 334 234 c 2
 331 234 l 2
 301 234 302 258 302 267 c 2
 302 290 l 1
 162 290 l 1
 162 53 l 1
 441 53 l 1
 441 131 l 2
 441 151 448 163 472 163 c 2xfa
 474 163 l 2
 488 163 503 157 503 132 c 2
 503 34 l 2xfa
 503 24 504 0 472 -0 c 2
 62 -0 l 2
 41 0 30 9 30 26 c 0
EndSplineSet
EndChar

StartChar: F
Encoding: 70 70 116
Width: 525
Flags: HW
TeX: 611 0
HStem: 0 53<32.5298 106 167 259.542> 279 53<167 311> 558 53<32.4392 106 167 429>
VStem: 106 61<53 279 332 558> 311 62<222.844 279 332 388.318> 429 61<464.547 558>
CounterMasks: 1 e0
AnchorPoint: "below" 261 0 basechar 0
AnchorPoint: "above" 261 619 basechar 0
LayerCount: 2
Fore
SplineSet
32 27 m 0
 32 52 53 53 66 53 c 0
 79 53 93 53 106 53 c 1
 106 558 l 1
 68 558 l 2
 57 558 32 558 32 584 c 0
 32 594 37 611 65 611 c 2
 457 611 l 2
 483 611 490 600 490 579 c 2
 490 497 l 2
 490 479 485 464 462 464 c 2
 459 464 l 2
 445 464 430 467 429 494 c 1
 429 558 l 1
 167 558 l 1
 167 332 l 1
 311 332 l 1
 311 355 l 2
 311 363 310 389 340 389 c 2
 344 389 l 2
 370 389 373 369 373 356 c 2
 373 254 l 2
 373 229 358 222 343 222 c 2
 341 222 l 2
 311 222 311 247 311 256 c 2
 311 279 l 1
 167 279 l 1
 167 53 l 1
 229 53 l 1
 256 52 260 34 260 27 c 0
 260 4 242 0 226 0 c 2
 64 0 l 2
 36 0 32 18 32 27 c 0
EndSplineSet
EndChar

StartChar: G
Encoding: 71 71 117
Width: 525
Flags: HW
TeX: 611 0
HStem: -8 53<198.691 322.429> 0 21G<400.5 430.5> 213 53<304.33 387 449 495.565> 566 53<202.098 327.715>
VStem: 37 61<176.661 431.913> 381 68<406.61 509.516> 388 61<0.971424 53 128.899 213 570 615.562>
AnchorPoint: "below" 261 0 basechar 0
AnchorPoint: "above" 261 619 basechar 0
LayerCount: 2
Fore
SplineSet
37 306 m 0
 37 478 134 619 261 619 c 0
 318 619 357 594 384 570 c 1
 397 600 401 619 423 619 c 0
 449 619 449 597 449 583 c 2xba
 449 442 l 2
 449 425 450 404 417 404 c 0
 384 404 390 430 381 462 c 0
 368 505 332 566 264 566 c 0
 183 566 98 461 98 306 c 0
 98 152 179 45 263 45 c 0
 337 45 380 127 387 213 c 1xbc
 337 213 l 2
 322 213 304 217 304 240 c 0
 304 253 313 266 336 266 c 2
 463 266 l 2
 491 266 496 250 496 239 c 0
 496 230 493 213 465 213 c 2
 449 213 l 1
 449 30 l 2
 449 15 443 0 418 0 c 2
 416 0 l 2x7a
 385 0 388 29 388 34 c 2
 388 53 l 1
 338 -6 280 -8 261 -8 c 0
 136 -8 37 131 37 306 c 0
EndSplineSet
EndChar

StartChar: H
Encoding: 72 72 118
Width: 525
Flags: HW
TeX: 611 0
HStem: 0 53<25.4035 90 152 216.627 308.386 373 434 498.68> 291 53<152 373> 558 53<25.4209 90 152 216.58 308.41 373 434 498.59>
VStem: 90 62<53 291 344 558> 308 191<1.02615 52.1338 558.92 609.875> 373 61<53 291 344 558>
AnchorPoint: "below" 262 0 basechar 0
AnchorPoint: "above" 262 619 basechar 0
LayerCount: 2
Fore
SplineSet
25 26 m 0
 25 51 48 53 57 53 c 0xf4
 68 53 79 53 90 53 c 1
 90 558 l 1
 58 558 l 2
 49 558 25 558 25 584 c 0
 25 609 48 611 56 611 c 2
 185 611 l 2
 193 611 217 610 217 584 c 0
 217 560 194 558 185 558 c 0
 174 558 163 558 152 558 c 1
 152 344 l 1
 373 344 l 1
 373 558 l 1xf4
 342 558 l 2
 331 558 308 559 308 584 c 0
 308 606 324 611 341 611 c 2
 466 611 l 2
 483 611 499 605 499 584 c 0xf8
 499 560 477 558 468 558 c 2
 434 558 l 1
 434 53 l 1xf4
 465 53 l 2
 481 53 499 50 499 26 c 0
 499 15 495 0 466 0 c 2
 341 0 l 2
 326 0 308 3 308 27 c 0xf8
 308 52 330 53 339 53 c 2
 373 53 l 1
 373 291 l 1
 152 291 l 1
 152 53 l 1
 184 53 l 2
 197 53 217 50 217 26 c 0
 217 15 213 0 184 0 c 2
 58 0 l 2
 47 0 25 0 25 26 c 0
EndSplineSet
EndChar

StartChar: I
Encoding: 73 73 119
Width: 525
Flags: HW
TeX: 611 0
HStem: -0 53<83.529 232 293 440.544> 558 53<83.456 232 293 440.496>
VStem: 232 61<53 558>
AnchorPoint: "ogonek" 262 0 basechar 0
AnchorPoint: "below" 262 0 basechar 0
AnchorPoint: "above" 262 619 basechar 0
LayerCount: 2
Fore
SplineSet
83 27 m 0
 83 52 104 53 116 53 c 2
 232 53 l 1
 232 558 l 1
 115 558 l 2
 88 558 83 575 83 584 c 0
 83 593 87 611 115 611 c 2
 409 611 l 2
 437 611 441 593 441 584 c 0
 441 559 421 558 409 558 c 2
 293 558 l 1
 293 53 l 1
 410 53 l 2
 437 53 441 36 441 27 c 0
 441 18 437 0 409 -0 c 2
 116 -0 l 2
 87 0 83 18 83 27 c 0
EndSplineSet
EndChar

StartChar: J
Encoding: 74 74 120
Width: 525
Flags: HW
TeX: 611 0
HStem: -8 53<165.247 312.832> 558 53<224.388 346 408 477.58>
VStem: 82 78<78.4673 136.161> 346 62<79.1658 558>
AnchorPoint: "below" 280 0 basechar 0
AnchorPoint: "above" 377 619 basechar 0
LayerCount: 2
Fore
SplineSet
82 100 m 0
 82 127 102 140 121 140 c 0
 140 140 160 127 160 101 c 0
 160 96 159 88 152 78 c 1
 158 71 182 45 243 45 c 0
 282 45 346 64 346 139 c 2
 346 558 l 1
 256 558 l 2
 227 558 224 575 224 584 c 0
 224 609 246 611 258 611 c 2
 449 611 l 2
 473 611 478 595 478 584 c 0
 478 559 455 558 446 558 c 2
 408 558 l 1
 408 137 l 2
 408 37 321 -8 244 -8 c 0
 153 -8 82 34 82 100 c 0
EndSplineSet
EndChar

StartChar: K
Encoding: 75 75 121
Width: 525
Flags: HW
TeX: 611 0
HStem: -0 53<28.456 91 141 202.596 345.378 388 445 493.7> 558 53<28.5776 91 141 202.614 322.451 368 415.519 484.579>
VStem: 28 175<0.992786 52.1076 558.942 609.974> 91 50<53 221.252 275 558>
DStem2: 141 275 239 317 0.625703 0.780061<0 94.0815 147.492 361.311> 272 359 239 317 0.492151 -0.87051<20.3204 323.466>
AnchorPoint: "below" 261 0 basechar 0
AnchorPoint: "above" 261 619 basechar 0
LayerCount: 2
Fore
SplineSet
28 27 m 0xe0
 28 50 45 53 62 53 c 2
 91 53 l 1
 91 558 l 1xd0
 62 558 l 2
 51 558 28 559 28 584 c 0
 28 593 32 611 60 611 c 2
 171 611 l 2
 199 611 203 596 203 585 c 0xe0
 203 560 181 558 172 558 c 2
 141 558 l 1
 141 275 l 1
 368 558 l 1
 353 558 l 2
 326 558 322 575 322 584 c 0
 322 600 334 611 351 611 c 2
 452 611 l 2
 461 611 485 610 485 584 c 0
 485 560 463 558 453 558 c 2
 440 558 l 2
 429 558 427 552 272 359 c 1
 445 53 l 1
 462 53 l 2
 490 53 494 36 494 27 c 0
 494 17 491 0 464 -0 c 2
 376 -0 l 2
 349 0 345 17 345 27 c 0
 345 35 348 53 376 53 c 2
 388 53 l 1
 239 317 l 1
 141 194 141 203 141 177 c 2
 141 53 l 1xd0
 170 53 l 2
 180 53 203 52 203 26 c 0
 203 14 196 0 171 -0 c 2
 60 -0 l 2
 32 0 28 18 28 27 c 0xe0
EndSplineSet
EndChar

StartChar: L
Encoding: 76 76 122
Width: 525
Flags: HW
TeX: 611 0
HStem: -0 53<35.3702 112 174 428> 558 53<35.489 112 174 269.579>
VStem: 112 62<53 558> 428 61<53 162.2>
AnchorPoint: "below" 262 0 basechar 0
AnchorPoint: "above" 262 619 basechar 0
LayerCount: 2
Fore
SplineSet
35 26 m 0
 35 51 56 53 68 53 c 2
 112 53 l 1
 112 558 l 1
 66 558 l 2
 41 558 35 574 35 585 c 0
 35 594 39 611 67 611 c 2
 237 611 l 2
 246 611 270 610 270 584 c 0
 270 576 267 559 240 558 c 1
 174 558 l 1
 174 53 l 1
 428 53 l 1
 428 131 l 2
 428 146 430 163 458 163 c 0
 483 163 489 149 489 132 c 2
 489 35 l 2
 489 23 490 0 457 -0 c 2
 67 -0 l 2
 39 0 35 15 35 26 c 0
EndSplineSet
EndChar

StartChar: M
Encoding: 77 77 123
Width: 525
Flags: HW
TeX: 611 0
HStem: 0 53<20.4349 73 123 175.539 348.365 401 450 502.622> 558 53<20.4349 73 450 502.446>
VStem: 73 50<53 550> 401 49<53 550>
DStem2: 159 578 123 550 0.31957 -0.947563<15.0272 328.408>
AnchorPoint: "below" 262 0 basechar 0
AnchorPoint: "above" 262 619 basechar 0
LayerCount: 2
Fore
SplineSet
20 27 m 0
 20 38 25 53 53 53 c 2
 73 53 l 1
 73 558 l 1
 53 558 l 2
 25 558 20 574 20 585 c 0
 20 594 24 611 52 611 c 2
 116 611 l 2
 141 611 151 601 159 578 c 2
 245 323 l 2
 256 289 256 288 262 265 c 1
 268 297 344 517 365 579 c 0
 375 610 396 611 406 611 c 2
 472 611 l 2
 499 611 503 592 503 584 c 0
 503 573 499 558 471 558 c 2
 450 558 l 1
 450 53 l 1
 471 53 l 2
 499 53 503 38 503 27 c 0
 503 18 500 0 472 0 c 2
 379 0 l 2
 352 0 348 17 348 26 c 0
 348 36 351 53 380 53 c 2
 401 53 l 1
 401 523 l 1
 400 550 l 1
 395 526 298 233 292 223 c 0
 285 211 273 204 261 204 c 0
 250 204 238 211 231 223 c 0
 224 235 133 511 123 550 c 1
 123 53 l 1
 143 53 l 2
 172 53 176 35 176 26 c 0
 176 18 173 1 145 0 c 1
 52 0 l 2
 25 0 20 16 20 27 c 0
EndSplineSet
EndChar

StartChar: N
Encoding: 78 78 124
Width: 525
Flags: HW
TeX: 611 0
HStem: 0 53<31.576 96 146 210.63> 558 53<31.4218 96 314.404 379 428 492.614>
VStem: 96 50<53 550> 379 49<61 558>
DStem2: 183 580 146 550 0.353295 -0.935512<14.9934 554.777>
AnchorPoint: "below" 262 0 basechar 0
AnchorPoint: "above" 262 619 basechar 0
LayerCount: 2
Fore
SplineSet
31 27 m 0
 31 52 54 53 63 53 c 0
 74 53 85 53 96 53 c 1
 96 558 l 1
 66 558 l 2
 55 558 31 559 31 585 c 0
 31 594 35 611 63 611 c 2
 137 611 l 2
 158 611 174 605 183 580 c 2
 379 61 l 1
 379 558 l 1
 347 558 l 2
 337 558 314 559 314 585 c 0
 314 597 320 611 345 611 c 2
 461 611 l 2
 489 611 493 595 493 584 c 0
 493 560 471 558 462 558 c 2
 428 558 l 1
 428 38 l 1
 427 25 432 0 397 -0 c 2
 384 -0 l 2
 358 0 348 15 341 33 c 2
 146 550 l 1
 146 53 l 1
 178 53 l 2
 190 53 211 51 211 26 c 0
 211 15 206 0 178 0 c 2
 63 0 l 2
 35 0 31 18 31 27 c 0
EndSplineSet
EndChar

StartChar: O
Encoding: 79 79 125
Width: 525
Flags: HW
TeX: 611 0
HStem: -8 53<160.968 364.241> 566 53<156.144 365.062>
VStem: 56 61<98.2567 522.45> 407 61<94.8687 519.86>
AnchorPoint: "ogonek" 274 0 basechar 0
AnchorPoint: "below" 274 0 basechar 0
AnchorPoint: "above" 259 619 basechar 0
LayerCount: 2
Fore
SplineSet
56 298 m 2
 56 345 l 2
 56 417 59 535 95 577 c 0
 130 619 205 619 257 619 c 2
 261 619 l 2
 431 619 468 605 468 333 c 2
 468 238 l 1
 465 61 439 21 378 2 c 0
 338 -10 297 -8 249 -8 c 0
 73 -7 56 36 56 298 c 2
117 322 m 2
 117 85 125 45 260 45 c 2
 281 45 l 2
 380 45 388 97 392 111 c 0
 403 151 407 196 407 321 c 0
 407 533 395 566 269 566 c 0
 199 566 148 566 130 501 c 0
 118 458 118 407 117 355 c 1
 117 322 l 2
EndSplineSet
EndChar

StartChar: P
Encoding: 80 80 126
Width: 525
Flags: HW
TeX: 611 0
HStem: -0 53<30.4377 101 162 231.63> 253 53<162 356.396> 558 53<30.456 101 162 359.078>
VStem: 101 61<53 253 306 558> 420 61<366.431 498.547>
AnchorPoint: "below" 220 0 basechar 0
AnchorPoint: "above" 220 619 basechar 0
LayerCount: 2
Fore
SplineSet
30 26 m 0
 30 51 52 53 62 53 c 0
 75 53 88 53 101 53 c 1
 101 558 l 1
 62 558 l 2
 34 558 30 576 30 585 c 0
 30 594 34 611 61 611 c 2
 289 611 l 2
 417 611 481 514 481 432 c 0
 481 362 430 253 284 253 c 2
 162 253 l 1
 162 53 l 1
 198 53 l 2
 213 53 232 50 232 27 c 0
 232 2 211 0 200 -0 c 2
 63 -0 l 2
 55 0 30 0 30 26 c 0
162 306 m 1
 271 306 l 2
 383 306 420 384 420 432 c 0
 420 493 368 558 276 558 c 2
 162 558 l 1
 162 306 l 1
EndSplineSet
EndChar

StartChar: Q
Encoding: 81 81 127
Width: 525
Flags: HW
TeX: 611 138
HStem: -139 21G<405 440.5> -8 53<162.176 295> 566 53<159.882 365.316>
VStem: 56 61<94.4711 518.539> 407 61<93.6383 517.944>
DStem2: 358 60 295 45 0.475403 -0.879768<-137.843 -16.7538 61.7696 203.958>
AnchorPoint: "below" 262 -222 basechar 0
AnchorPoint: "above" 264 619 basechar 0
LayerCount: 2
Fore
SplineSet
56 298 m 2
 56 320 l 2
 56 597 87 619 259 619 c 2
 269 619 l 2
 330 619 388 617 422 585 c 0
 451 558 468 504 468 327 c 2
 468 263 l 1
 464 79 450 29 388 6 c 1
 454 -114 455 -113 455 -123 c 0
 455 -133 448 -139 433 -139 c 2
 414 -139 l 2
 396 -139 390 -130 382 -116 c 0
 335 -29 329 -18 324 -7 c 1
 304 -8 294 -8 274 -8 c 2
 249 -8 l 2
 78 -8 56 28 56 298 c 2
117 306 m 0
 117 80 129 45 257 45 c 0
 270 45 282 44 295 45 c 1
 252 125 240 145 240 155 c 0
 240 171 258 171 265 171 c 2
 281 171 l 2
 300 171 298 168 358 60 c 1
 396 86 407 125 407 300 c 0
 407 536 395 566 267 566 c 0
 135 566 117 546 117 306 c 0
EndSplineSet
EndChar

StartChar: R
Encoding: 82 82 128
Width: 525
Flags: HW
TeX: 611 0
HStem: -8 53<414.73 456.315> -0 53<25.404 90 152 216.59> 279 53<152 311.389> 558 53<25.6246 90 152 314.134>
VStem: 90 62<53 279 332 558> 346 61<46.9253 245.875> 373 61<384.968 503.92> 461 61<45.2947 119.271>
AnchorPoint: "below" 220 0 basechar 0
AnchorPoint: "above" 220 619 basechar 0
LayerCount: 2
Fore
SplineSet
25 26 m 0
 25 51 48 53 57 53 c 0
 68 53 79 53 90 53 c 1x7d
 90 558 l 1
 58 558 l 2
 50 558 25 558 25 584 c 0
 25 592 29 611 56 611 c 2
 230 611 l 2
 383 611 434 512 434 445 c 0x7b
 434 374 382 325 343 304 c 1
 343 303 l 1
 404 263 407 211 407 187 c 2
 407 124 l 2
 407 102 406 45 438 45 c 2
 439 45 l 2
 446 45 458 54 461 94 c 0
 462 110 472 120 491 120 c 2
 493 120 l 2
 511 120 522 110 522 91 c 0
 522 49 496 -8 439 -8 c 0xbd
 402 -8 346 10 346 127 c 2
 346 185 l 1
 347 222 327 279 232 279 c 2
 152 279 l 1
 152 53 l 1
 182 53 l 2
 194 53 217 52 217 27 c 0
 217 5 201 0 184 -0 c 2
 58 -0 l 2
 48 0 25 1 25 26 c 0
152 332 m 1
 227 332 l 2
 334 332 373 400 373 445 c 0x3b
 373 490 334 558 226 558 c 2
 152 558 l 1
 152 332 l 1
EndSplineSet
EndChar

StartChar: S
Encoding: 83 83 129
Width: 525
Flags: HW
TeX: 611 0
HStem: -8 53<182.781 361.199> 566 53<160.525 318.976>
VStem: 52 58<-6.44589 43 113.02 202.252 405.774 518.966> 379 67<409.927 508.573 567 612.002> 415 57<98.4171 223.074>
DStem2: 185 368 166 310 0.963031 -0.269389<-61.6641 237.919>
AnchorPoint: "below" 284 0 basechar 0
AnchorPoint: "above" 237 619 basechar 0
LayerCount: 2
Fore
SplineSet
52 27 m 2
 52 171 l 2
 52 183 53 203 82 203 c 0
 114 203 113 181 114 169 c 0
 119 89 187 45 284 45 c 0
 373 45 415 110 415 161 c 0xe8
 415 206 383 253 328 270 c 0
 296 280 197 299 166 310 c 0
 116 328 52 377 52 458 c 0
 52 541 126 619 237 619 c 0
 325 619 370 579 384 567 c 1
 392 598 395 619 419 619 c 0
 448 619 446 588 446 584 c 2
 446 439 l 2xf0
 446 414 432 408 415 408 c 0xe8
 381 408 387 430 379 461 c 0xf0
 358 541 295 566 237 566 c 0
 164 566 110 518 110 463 c 0
 110 406 161 377 185 368 c 0
 198 363 212 361 324 335 c 0
 429 311 472 230 472 165 c 0
 472 83 406 -8 284 -8 c 0
 182 -8 129 31 113 43 c 1
 105 14 103 -8 79 -8 c 0
 54 -8 52 13 52 27 c 2
EndSplineSet
EndChar

StartChar: T
Encoding: 84 84 130
Width: 525
Flags: HW
TeX: 611 0
HStem: -0 53<139.469 231 293 384.544> 558 53<87 231 293 437>
VStem: 26 61<464.639 558> 231 62<53 558> 437 61<464.671 558>
CounterMasks: 1 38
AnchorPoint: "below" 262 0 basechar 0
AnchorPoint: "above" 262 619 basechar 0
LayerCount: 2
Fore
SplineSet
26 494 m 1
 26 577 l 2
 26 591 27 611 58 611 c 2
 466 611 l 2
 498 611 498 590 498 577 c 2
 498 495 l 2
 498 471 485 464 469 464 c 2
 468 464 l 2
 452 464 438 468 437 494 c 1
 437 558 l 1
 293 558 l 1
 293 53 l 1
 354 53 l 2
 380 53 385 35 385 27 c 0
 385 18 381 0 353 -0 c 2
 171 -0 l 2
 143 0 139 18 139 27 c 0
 139 41 149 53 169 53 c 2
 231 53 l 1
 231 558 l 1
 87 558 l 1
 87 494 l 2
 87 466 68 464 56 464 c 2
 55 464 l 2
 42 464 27 469 26 494 c 1
EndSplineSet
EndChar

StartChar: U
Encoding: 85 85 131
Width: 525
Flags: HW
TeX: 611 0
HStem: -8 53<201.693 322.355> 558 53<8.35381 79 140 209.597 314.434 385 446 515.597>
VStem: 79 61<115.188 558> 385 61<116.848 558>
AnchorPoint: "ogonek" 262 0 basechar 0
AnchorPoint: "below" 262 0 basechar 0
AnchorPoint: "above" 262 619 basechar 0
LayerCount: 2
Fore
SplineSet
8 584 m 0
 8 608 27 611 42 611 c 2
 179 611 l 2
 187 611 210 611 210 585 c 0
 210 560 191 558 175 558 c 2
 140 558 l 1
 140 215 l 2
 140 89 213 45 262 45 c 0
 301 45 385 79 385 216 c 2
 385 558 l 1
 348 558 l 2
 337 558 314 559 314 585 c 0
 314 607 331 611 348 611 c 2
 485 611 l 2
 493 611 516 610 516 584 c 0
 516 559 497 558 481 558 c 2
 446 558 l 1
 446 216 l 2
 446 51 335 -8 262 -8 c 0
 177 -8 79 64 79 212 c 2
 79 558 l 1
 42 558 l 2
 28 558 8 560 8 584 c 0
EndSplineSet
EndChar

StartChar: V
Encoding: 86 86 132
Width: 525
Flags: HW
TeX: 611 0
HStem: -8 21G<236.5 281> 558 53<17.3776 72 136 192.565 331.37 387 451 505.63>
DStem2: 136 558 72 558 0.256046 -0.966665<0 512.694> 302 230 311 28 0.255391 0.966838<-170.82 338.831>
AnchorPoint: "below" 262 0 basechar 0
AnchorPoint: "above" 262 619 basechar 0
LayerCount: 2
Fore
SplineSet
17 585 m 0
 17 594 21 611 49 611 c 2
 161 611 l 2
 189 611 193 594 193 584 c 0
 193 574 188 558 160 558 c 2
 136 558 l 1
 240 157 l 1
 258 82 l 1
 262 61 l 1
 272 120 287 174 302 230 c 2
 387 558 l 1
 364 558 l 2
 352 558 331 560 331 584 c 0
 331 594 335 611 363 611 c 2
 474 611 l 2
 502 611 506 594 506 585 c 0
 506 560 485 558 473 558 c 2
 451 558 l 1
 311 28 l 2
 303 -1 294 -8 268 -8 c 2
 255 -8 l 2
 218 -8 217 14 210 37 c 2
 72 558 l 1
 48 558 l 2
 20 558 17 576 17 585 c 0
EndSplineSet
EndChar

StartChar: W
Encoding: 87 87 133
Width: 525
Flags: HW
TeX: 611 0
HStem: -8 21G<146 167 344.5 379> 558 53<11.489 48 98 163.614 360.456 426 477 512.613>
DStem2: 98 558 48 558 0.143244 -0.989687<0 501.615> 426 558 477 558 0.145066 0.989422<-501.462 0>
AnchorPoint: "below" 262 0 basechar 0
AnchorPoint: "above" 262 619 basechar 0
LayerCount: 2
Fore
SplineSet
11 584 m 0
 11 595 17 611 42 611 c 2
 134 611 l 2
 161 611 164 593 164 584 c 0
 164 560 142 558 133 558 c 2
 98 558 l 1
 157 145 l 1
 164 82 l 1
 166 61 l 1
 169 109 222 335 228 347 c 0
 234 360 249 367 263 367 c 0
 276 367 289 361 296 349 c 0
 303 336 353 117 359 61 c 1
 362 96 l 1
 426 558 l 1
 392 558 l 2
 364 558 360 575 360 584 c 0
 360 593 364 611 391 611 c 2
 482 611 l 2
 510 611 513 593 513 584 c 0
 513 559 491 558 480 558 c 2
 477 558 l 1
 399 26 l 2
 397 11 393 -8 365 -8 c 0
 324 -8 328 6 283 201 c 0
 266 274 265 284 262 305 c 1
 257 264 222 117 200 24 c 0
 192 -8 174 -8 160 -8 c 0
 132 -8 127 11 125 26 c 2
 48 558 l 1
 44 558 l 2
 16 558 11 575 11 584 c 0
EndSplineSet
EndChar

StartChar: X
Encoding: 88 88 134
Width: 525
Flags: HW
TeX: 611 0
HStem: -0 53<25.4551 86 153 201.544 320.529 367 424.498 496.63> 558 53<36.4204 98 167 212.549 291.456 339 407 467.596>
DStem2: 86 53 153 53 0.449335 0.893363<30.1055 263.993 380.13 564.83> 167 558 98 558 0.470135 -0.882595<0 187.47 302.678 539.737>
AnchorPoint: "below" 261 0 basechar 0
AnchorPoint: "above" 261 619 basechar 0
LayerCount: 2
Fore
SplineSet
25 27 m 0
 25 54 51 53 59 53 c 2
 86 53 l 1
 220 314 l 2
 225 324 224 327 220 335 c 2
 98 558 l 1
 68 558 l 2
 60 558 36 559 36 584 c 0
 36 594 40 611 68 611 c 2
 180 611 l 2
 208 611 213 596 213 585 c 0
 213 576 209 558 182 558 c 2
 167 558 l 1
 256 393 l 1
 339 558 l 1
 323 558 l 2
 295 558 291 576 291 585 c 0
 291 595 296 611 324 611 c 2
 436 611 l 2
 445 611 468 610 468 584 c 0
 468 559 445 558 436 558 c 2
 407 558 l 1
 293 335 l 2
 289 326 288 324 293 314 c 2
 421 81 l 2
 426 72 431 63 436 53 c 1
 464 53 l 2
 476 53 497 52 497 27 c 0
 497 2 476 0 465 -0 c 2
 353 -0 l 2
 341 0 320 2 320 26 c 0
 320 35 324 53 352 53 c 2
 367 53 l 1
 257 263 l 1
 256 263 l 1
 153 53 l 1
 170 53 l 2
 198 53 202 35 202 26 c 0
 202 15 197 0 169 -0 c 2
 57 -0 l 2
 51 0 25 0 25 27 c 0
EndSplineSet
EndChar

StartChar: Y
Encoding: 89 89 135
Width: 525
Flags: HW
TeX: 611 0
HStem: -0 53<166.438 232 293 357.59> 558 53<17.5776 77 146 193.609 331.37 379 447 506.544>
VStem: 232 61<53 244>
DStem2: 146 558 77 558 0.440338 -0.897832<0 270.167> 379 558 447 558 0.441201 0.897408<-270.162 0>
AnchorPoint: "below" 262 0 basechar 0
AnchorPoint: "above" 262 619 basechar 0
LayerCount: 2
Fore
SplineSet
17 584 m 0
 17 593 21 611 49 611 c 2
 162 611 l 2
 190 611 194 594 194 584 c 0
 194 572 186 558 162 558 c 2
 146 558 l 1
 247 345 l 1
 260 313 l 1
 262 306 l 1
 263 306 l 1
 265 313 l 1
 277 345 l 1
 379 558 l 1
 363 558 l 2
 336 558 331 574 331 584 c 0
 331 609 352 611 363 611 c 2
 475 611 l 2
 503 611 507 593 507 584 c 0
 507 558 483 558 474 558 c 2
 447 558 l 1
 300 259 l 1
 294 244 l 1
 293 233 l 1
 293 53 l 1
 324 53 l 2
 336 53 358 52 358 27 c 0
 358 5 342 0 325 -0 c 2
 199 -0 l 2
 191 0 166 1 166 27 c 0
 166 52 189 53 198 53 c 2
 232 53 l 1
 232 233 l 1
 231 244 l 1
 77 558 l 1
 51 558 l 2
 40 558 17 558 17 584 c 0
EndSplineSet
EndChar

StartChar: Z
Encoding: 90 90 136
Width: 525
Flags: HW
TeX: 611 0
HStem: -0 53<126 420> 558 53<120 397>
VStem: 59 61<464.635 558> 420 61<53 165.281>
DStem2: 55 55 126 53 0.562265 0.826957<38.2669 608.254>
AnchorPoint: "below" 264 0 basechar 0
AnchorPoint: "above" 264 619 basechar 0
LayerCount: 2
Fore
SplineSet
47 30 m 0
 47 40 48 44 55 55 c 2
 397 558 l 1
 120 558 l 1
 120 495 l 2
 120 478 114 464 91 464 c 2
 88 464 l 2
 75 464 60 468 59 493 c 1
 59 579 l 2
 59 610 79 611 93 611 c 2
 444 611 l 2
 469 611 476 598 476 584 c 0
 476 574 472 563 468 556 c 2
 126 53 l 1
 420 53 l 1
 420 133 l 2
 420 140 419 166 449 166 c 2
 451 166 l 2
 476 166 481 150 481 134 c 2
 481 32 l 2
 481 0 461 0 447 -0 c 2
 78 -0 l 2
 62 0 47 6 47 30 c 0
EndSplineSet
EndChar

StartChar: bracketleft
Encoding: 91 91 137
Width: 525
Flags: HW
TeX: 694 83
HStem: -83 53<291 482.445> 641 53<291 482.653>
VStem: 230 61<-30 641>
LayerCount: 2
Fore
SplineSet
230 -51 m 2
 230 662 l 2
 230 692 250 694 263 694 c 2
 450 694 l 2
 478 694 483 679 483 668 c 0
 483 652 474 641 450 641 c 2
 291 641 l 1
 291 -30 l 1
 450 -30 l 2
 478 -30 483 -48 483 -57 c 0
 483 -78 467 -83 450 -83 c 2
 261 -83 l 2
 231 -83 230 -64 230 -51 c 2
EndSplineSet
EndChar

StartChar: backslash
Encoding: 92 92 138
Width: 525
Flags: HW
TeX: 694 83
DStem2: 116 663 68 642 0.439027 -0.898474<-29.0954 800.184>
LayerCount: 2
Fore
SplineSet
59 668 m 0
 59 685 74 694 85 694 c 0
 104 694 111 673 116 663 c 2
 455 -28 l 2
 463 -44 466 -48 466 -57 c 0
 466 -72 452 -83 439 -83 c 0
 425 -83 417 -72 412 -62 c 2
 68 642 l 2
 64 650 59 658 59 668 c 0
EndSplineSet
EndChar

StartChar: bracketright
Encoding: 93 93 139
Width: 525
Flags: HW
TeX: 694 83
HStem: -83 53<41.3693 233> 641 53<41.456 233>
VStem: 233 61<-30 641>
LayerCount: 2
Fore
SplineSet
41 -57 m 0
 41 -41 50 -30 74 -30 c 2
 233 -30 l 1
 233 641 l 1
 73 641 l 2
 45 641 41 659 41 668 c 0
 41 679 46 694 74 694 c 2
 263 694 l 2
 293 694 294 675 294 662 c 2
 294 -51 l 1
 295 -82 272 -83 263 -83 c 2
 73 -83 l 2
 45 -83 41 -66 41 -57 c 0
EndSplineSet
EndChar

StartChar: asciicircum
Encoding: 94 94 140
Width: 525
Flags: HW
TeX: 611 0
HStem: 503 62<216.38 304.819>
LayerCount: 2
Fore
SplineSet
80 463 m 0
 80 480 96 487 105 491 c 0
 221 549 252 565 262 565 c 0
 272 565 294 553 418 491 c 0
 430 485 444 480 444 462 c 1
 443 449 432 428 414 428 c 0
 405 428 406 428 275 498 c 0
 270 501 268 503 264 503 c 0
 253 503 231 489 131 436 c 0
 124 432 117 428 109 428 c 0
 91 428 80 451 80 463 c 0
EndSplineSet
EndChar

StartChar: underscore
Encoding: 95 95 141
Width: 525
Flags: HW
TeX: 0 90
HStem: -91 61<57.5276 466.472>
LayerCount: 2
Fore
SplineSet
56 -60 m 0
 56 -51 60 -30 94 -30 c 2
 430 -30 l 2
 464 -30 468 -52 468 -60 c 0
 468 -69 463 -91 429 -91 c 2
 93 -91 l 1
 60 -90 56 -68 56 -60 c 0
EndSplineSet
EndChar

StartChar: quoteleft
Encoding: 8216 8216 142
Width: 525
Flags: HW
TeX: 611 0
HStem: 364 108<233.77 305.154>
VStem: 179 53<466.832 560.529>
LayerCount: 2
Fore
SplineSet
179 479 m 0
 179 609 290 680 314 680 c 0
 326 680 340 669 340 653 c 0
 340 636 323 629 314 624 c 0
 263 593 232 537 232 479 c 0
 232 474 233 469 233 464 c 1
 241 468 251 472 262 472 c 0
 294 472 316 446 316 418 c 0
 316 388 294 364 262 364 c 0
 212 364 179 413 179 479 c 0
EndSplineSet
EndChar

StartChar: a
Encoding: 97 97 143
Width: 525
Flags: HW
TeX: 430 0
HStem: -4 53<150.102 324.698 421.083 522.756> 218 52<207.5 359> 384 53<163.928 314.718>
VStem: 59 62<76.8251 163.278> 87 77<330.181 381.897> 359 61<79.5719 218 270 340.205>
AnchorPoint: "ogonek" 390 0 basechar 0
AnchorPoint: "affricate-below" 525 -222 basechar 0
AnchorPoint: "affricate-above" 525 611 basechar 0
AnchorPoint: "below" 231 0 basechar 0
AnchorPoint: "above" 231 437 basechar 0
LayerCount: 2
Fore
SplineSet
59 122 m 0xf4
 59 181 111 265 359 270 c 1
 359 301 357 319 339 341 c 0
 313 372 275 384 232 384 c 0
 207 384 183 383 163 378 c 1
 164 374 164 369 164 365 c 0
 164 343 148 326 126 326 c 0
 103 326 87 345 87 367 c 0xec
 87 424 148 437 231 437 c 0
 304 437 420 406 420 278 c 2
 420 76 l 2
 420 61 422 54 483 53 c 1
 496 53 l 2
 517 53 524 37 524 27 c 0
 524 16 520 0 492 -0 c 2
 479 -0 l 2
 421 0 386 5 366 36 c 1
 352 26 308 -4 221 -4 c 0
 130 -4 59 48 59 122 c 0xf4
121 122 m 0xf4
 121 78 168 49 227 49 c 0
 271 49 349 63 358 111 c 0
 359 116 359 121 359 126 c 2
 359 218 l 1
 219 216 121 180 121 122 c 0xf4
EndSplineSet
EndChar

StartChar: b
Encoding: 98 98 144
Width: 525
Flags: HW
TeX: 611 0
HStem: -4 53<217.02 347.488> 382 53<218.239 352.814> 558 53<15.4852 100>
VStem: 100 61<0.884766 53 112.064 325.799 380 558> 423 61<130.626 304.495>
AnchorPoint: "affricate-below" 525 -222 basechar 0
AnchorPoint: "affricate-above" 525 611 basechar 0
AnchorPoint: "below" 292 0 basechar 0
AnchorPoint: "above" 292 611 basechar 0
LayerCount: 2
Fore
SplineSet
15 585 m 0
 15 594 19 611 47 611 c 2
 130 611 l 2
 164 611 161 587 161 574 c 2
 161 380 l 1
 193 410 234 435 291 435 c 0
 393 435 484 342 484 216 c 0
 484 86 386 -4 281 -4 c 0
 233 -4 192 16 161 53 c 1
 161 33 l 2
 161 20 158 0 132 0 c 2
 131 0 l 2
 99 0 100 24 100 35 c 2
 100 558 l 1
 45 558 l 2
 21 558 15 574 15 585 c 0
161 184 m 2
 161 143 197 49 278 49 c 0
 351 49 423 116 423 216 c 0
 423 308 361 382 288 382 c 0
 214 382 161 318 161 267 c 2
 161 184 l 2
EndSplineSet
EndChar

StartChar: c
Encoding: 99 99 145
Width: 525
Flags: HW
TeX: 430 0
HStem: -4 53<221.43 371.604> 384 53<217.109 376.93>
VStem: 77 61<132.803 300.345> 377 77<330.021 381.374> 403 62<80.2582 132.858>
AnchorPoint: "affricate-below" 525 -222 basechar 0
AnchorPoint: "affricate-above" 525 611 basechar 0
AnchorPoint: "below" 293 0 basechar 0
AnchorPoint: "above" 300 437 basechar 0
LayerCount: 2
Fore
SplineSet
77 215 m 0
 77 316 149 437 300 437 c 0xe8
 357 437 454 437 454 366 c 0
 454 342 435 326 415 326 c 0
 394 326 377 342 377 366 c 0xf0
 377 370 377 374 378 378 c 1
 355 384 326 384 298 384 c 0
 190 384 138 292 138 215 c 0
 138 121 212 49 298 49 c 0
 347 49 387 71 403 110 c 0
 408 123 414 134 435 134 c 0
 461 134 465 117 465 110 c 0
 465 87 427 -4 293 -4 c 0
 173 -4 77 93 77 215 c 0
EndSplineSet
EndChar

StartChar: d
Encoding: 100 100 146
Width: 525
Flags: HW
TeX: 611 0
HStem: -4 53<169.588 300.754 424 507.45> 382 53<177.647 311.174> 558 53<278.481 363>
VStem: 40 61<125.662 301.211> 363 61<53 58 115.476 330.926 384 558>
AnchorPoint: "affricate-below" 525 -222 basechar 0
AnchorPoint: "affricate-above" 525 611 basechar 0
AnchorPoint: "below" 274 0 basechar 0
AnchorPoint: "above" 232 611 basechar 0
LayerCount: 2
Fore
SplineSet
40 214 m 0
 40 338 132 435 243 435 c 0
 291 435 329 417 363 384 c 1
 363 558 l 1
 308 558 l 1
 284 559 278 573 278 585 c 0
 278 608 297 611 311 611 c 2
 391 611 l 2
 405 611 424 609 424 580 c 2
 424 53 l 1
 478 53 l 2
 506 53 509 35 509 27 c 0
 509 18 505 0 476 -0 c 2
 396 -0 l 2
 362 0 363 21 363 35 c 2
 363 58 l 1
 314 -3 249 -4 233 -4 c 0
 134 -4 40 86 40 214 c 0
101 215 m 0
 101 123 163 49 236 49 c 0
 318 49 363 136 363 188 c 2
 363 261 l 2
 363 333 303 382 246 382 c 0
 173 382 101 315 101 215 c 0
EndSplineSet
EndChar

StartChar: e
Encoding: 101 101 147
Width: 525
Flags: HW
TeX: 430 0
HStem: -4 53<209.064 365.695> 195 52<123 402> 384 53<197.175 345.57>
VStem: 401 63<81.3719 132.985 247 323.348>
AnchorPoint: "ogonek" 286 0 basechar 0
AnchorPoint: "affricate-below" 525 -222 basechar 0
AnchorPoint: "affricate-above" 525 611 basechar 0
AnchorPoint: "below" 286 0 basechar 0
AnchorPoint: "above" 271 437 basechar 0
LayerCount: 2
Fore
SplineSet
59 217 m 0
 59 337 153 437 271 437 c 0
 389 437 464 356 464 226 c 0
 464 196 445 195 433 195 c 2
 122 195 l 1
 139 94 222 49 290 49 c 0
 341 49 384 73 401 111 c 0
 408 127 414 134 433 134 c 0
 453 134 464 124 464 110 c 0
 464 79 410 -4 286 -4 c 0
 152 -4 59 101 59 217 c 0
123 247 m 1
 402 247 l 1
 390 366 318 384 270 384 c 0
 216 384 142 348 123 247 c 1
EndSplineSet
EndChar

StartChar: f
Encoding: 102 102 148
Width: 525
Flags: HW
TeX: 611 0
HStem: -0 53<46.4614 188 249 389.455> 378 53<43.3876 188 249 414.629> 562 53<272.39 364.987>
VStem: 188 61<53 378 431 536.589> 363 74<526.005 561.999>
AnchorPoint: "affricate-below" 525 -222 basechar 0
AnchorPoint: "affricate-above" 525 611 basechar 0
AnchorPoint: "above" 343 611 basechar 0
AnchorPoint: "below" 218 0 basechar 0
LayerCount: 2
Fore
SplineSet
43 404 m 0
 43 429 65 431 77 431 c 2
 188 431 l 1
 188 485 l 2
 188 574 264 615 343 615 c 0
 391 615 437 606 437 561 c 0
 437 540 422 523 400 523 c 0
 388 523 365 528 363 561 c 1
 355 562 347 562 339 562 c 0
 304 562 249 547 249 486 c 2
 249 431 l 1
 381 431 l 2
 394 431 415 429 415 404 c 0
 415 394 411 378 383 378 c 2
 249 378 l 1
 249 53 l 1
 358 53 l 2
 386 53 390 36 390 27 c 0
 390 14 381 0 359 -0 c 2
 77 -0 l 1
 49 1 46 19 46 27 c 0
 46 52 69 53 79 53 c 2
 188 53 l 1
 188 378 l 1
 75 378 l 2
 48 378 43 393 43 404 c 0
EndSplineSet
EndChar

StartChar: g
Encoding: 103 103 149
Width: 525
Flags: HW
TeX: 430 222
HStem: -227 52<147.639 382.505> 8 50<146.923 397.658> 120 52<172.985 293.796> 383 52<174.279 292.825 368.258 454.227>
VStem: 29 51<-124.671 -27.9854> 71 62<211.864 343.306> 83 51<67.618 146.338> 334 61<211.694 341.439> 444 52<-126.979 -30.876>
AnchorPoint: "affricate-below" 525 -222 basechar 0
AnchorPoint: "affricate-above" 525 611 basechar 0
AnchorPoint: "below" 263 -222 basechar 0
AnchorPoint: "above" 232 437 basechar 0
LayerCount: 2
Fore
SplineSet
29 -83 m 0
 29 -55 41 6 109 42 c 1
 93 63 83 85 83 114 c 0xfb80
 83 128 85 154 104 182 c 1
 75 219 71 258 71 277 c 0xf580
 71 359 138 435 233 435 c 0
 272 435 302 423 331 404 c 1
 356 422 396 439 441 439 c 0
 483 439 510 420 510 390 c 0
 510 372 494 355 475 355 c 0
 456 355 443 370 441 386 c 1
 411 385 394 379 367 366 c 1
 384 339 395 314 395 278 c 0
 395 196 328 120 233 120 c 0
 196 120 165 132 142 147 c 1
 138 138 134 127 134 114 c 0xf380
 134 84 154 63 172 60 c 0
 176 59 195 58 210 58 c 2
 275 58 l 1
 403 57 463 25 487 -37 c 0
 493 -52 496 -67 496 -83 c 0
 496 -167 391 -227 263 -227 c 0
 137 -227 29 -169 29 -83 c 0
80 -80 m 0xf980
 80 -131 156 -175 262 -175 c 0
 395 -175 444 -120 444 -83 c 0
 444 -29 398 8 275 8 c 2
 193 8 l 2
 97 8 80 -59 80 -80 c 0xf980
133 278 m 0
 133 214 183 172 233 172 c 0
 283 172 334 213 334 277 c 0
 334 341 282 383 233 383 c 0xf580
 183 383 133 342 133 278 c 0
EndSplineSet
EndChar

StartChar: h
Encoding: 104 104 150
Width: 525
Flags: HW
TeX: 611 0
HStem: -0 53<15.3731 100 161 245.532 278.48 363 424 508.569> 382 53<221.712 345.383> 558 53<15.4852 100>
VStem: 100 61<53 320.614 377 558> 363 61<53 364.869>
AnchorPoint: "affricate-below" 525 -222 basechar 0
AnchorPoint: "affricate-above" 525 611 basechar 0
AnchorPoint: "below" 262 0 basechar 0
AnchorPoint: "above" 262 611 basechar 0
LayerCount: 2
Fore
SplineSet
15 27 m 0
 15 51 36 53 48 53 c 2
 100 53 l 1
 100 558 l 1
 45 558 l 2
 21 558 15 574 15 585 c 0
 15 594 19 611 47 611 c 2
 130 611 l 2
 164 611 161 588 161 574 c 2
 161 402 l 2
 161 394 162 385 162 377 c 1
 187 406 234 435 293 435 c 0
 398 435 424 368 424 281 c 2
 424 53 l 1
 477 53 l 2
 504 53 509 36 509 27 c 0
 509 17 505 0 476 -0 c 2
 310 -0 l 2
 297 0 278 3 278 26 c 0
 278 38 285 53 308 53 c 2
 363 53 l 1
 363 286 l 2
 363 340 355 382 290 382 c 0
 247 382 161 352 161 234 c 2
 161 53 l 1
 216 53 l 1
 244 52 246 32 246 26 c 0
 246 19 243 0 214 -0 c 2
 48 -0 l 2
 19 0 15 17 15 27 c 0
EndSplineSet
EndChar

StartChar: j
Encoding: 106 106 152
Width: 525
Flags: HW
TeX: 611 222
HStem: -227 53<125.443 260.493> 378 53<133.404 303> 525 86<283.859 358.299>
VStem: 47 78<-167.813 -121.96> 278 86<530.934 605.458> 303 61<-126.36 378>
AnchorPoint: "affricate-below" 525 -222 basechar 0
AnchorPoint: "affricate-above" 525 611 basechar 0
AnchorPoint: "below" 244 -222 basechar 0
LayerCount: 2
Fore
SplineSet
278 568 m 0
 278 593 298 611 321 611 c 0
 347 611 364 590 364 568 c 0
 364 545 346 525 321 525 c 0xf8
 299 525 278 543 278 568 c 0
EndSplineSet
Refer: 72 567 S 1 0 0 1 -0 -0 3
EndChar

StartChar: k
Encoding: 107 107 153
Width: 525
Flags: HW
TeX: 611 0
HStem: -0 53<24.4204 113 163 251.503 315.421 377 439 507.579> 378 53<258.353 341 391.36 485.577> 558 53<24.4459 113>
VStem: 113 50<53 162.867 211 558>
DStem2: 163 211 248 222 0.729282 0.684214<0 69.5153 119.033 244.076> 284 256 248 222 0.606869 -0.794802<5.176 217.784>
AnchorPoint: "affricate-below" 525 -222 basechar 0
AnchorPoint: "affricate-above" 525 611 basechar 0
AnchorPoint: "below" 266 0 basechar 0
AnchorPoint: "above" 266 611 basechar 0
LayerCount: 2
Fore
SplineSet
24 27 m 0
 24 36 28 52 54 53 c 1
 113 53 l 1
 113 558 l 1
 54 558 l 1
 28 559 24 574 24 584 c 0
 24 600 36 611 53 611 c 2
 131 611 l 2
 165 611 163 587 163 575 c 2
 163 211 l 1
 341 378 l 1
 288 378 l 2
 263 378 258 393 258 404 c 0
 258 429 278 431 290 431 c 2
 458 431 l 1
 481 430 486 415 486 404 c 0
 486 378 462 378 448 378 c 0
 440 378 432 378 424 378 c 0
 410 378 407 371 284 256 c 1
 439 53 l 1
 451 53 463 53 475 53 c 0
 484 53 508 53 508 27 c 0
 508 2 486 0 475 -0 c 2
 349 -0 l 2
 339 0 315 1 315 26 c 0
 315 52 338 53 350 53 c 2
 377 53 l 1
 248 222 l 1
 163 143 163 148 163 129 c 2
 163 53 l 1
 222 53 l 2
 247 53 252 36 252 26 c 0
 252 13 244 0 220 -0 c 2
 56 -0 l 2
 48 0 24 1 24 27 c 0
EndSplineSet
EndChar

StartChar: l
Encoding: 108 108 154
Width: 525
Flags: HW
TeX: 611 0
HStem: -0 53<61.5051 231 292 461.515> 558 53<61.5255 231>
VStem: 231 61<53 558>
AnchorPoint: "affricate-below" 525 -222 basechar 0
AnchorPoint: "affricate-above" 525 611 basechar 0
AnchorPoint: "below" 262 0 basechar 0
AnchorPoint: "above" 262 611 basechar 0
LayerCount: 2
Fore
SplineSet
61 27 m 0
 61 52 81 53 94 53 c 2
 231 53 l 1
 231 558 l 1
 101 558 l 2
 91 558 61 560 61 585 c 0
 61 593 65 611 93 611 c 2
 260 611 l 2
 291 611 292 593 292 579 c 2
 292 53 l 1
 432 53 l 2
 456 53 462 37 462 26 c 0
 462 15 457 0 429 -0 c 2
 93 -0 l 2
 65 0 61 18 61 27 c 0
EndSplineSet
EndChar

StartChar: m
Encoding: 109 109 155
Width: 525
Flags: HW
TeX: 430 0
HStem: 0 53<0.450962 57 106 162.563 181.392 238 287 343.596 362.435 419 468 524.596> 382 53<1.42012 57 144.78 227.121 326.411 407.945>
VStem: 57 49<53 336.809> 238 49<53 336.809> 419 49<53 374.268>
CounterMasks: 1 38
AnchorPoint: "affricate-below" 525 -222 basechar 0
AnchorPoint: "affricate-above" 525 611 basechar 0
AnchorPoint: "below" 262 0 basechar 0
AnchorPoint: "above" 262 437 basechar 0
LayerCount: 2
Fore
SplineSet
0 27 m 0
 0 48 16 53 33 53 c 2
 57 53 l 1
 57 378 l 1
 49 378 42 378 34 378 c 0
 26 378 0 378 0 404 c 0
 0 416 5 431 33 431 c 2
 75 431 l 2
 108 431 106 407 106 394 c 1
 127 416 155 435 195 435 c 0
 238 435 262 409 275 378 c 1
 310 430 359 435 377 435 c 0
 403 435 439 423 457 377 c 0
 468 349 468 319 468 290 c 2
 468 53 l 1
 492 53 l 2
 502 53 525 52 525 27 c 0
 525 17 521 0 493 0 c 2
 393 0 l 2
 366 0 362 17 362 27 c 0
 362 37 367 53 395 53 c 2
 419 53 l 1
 419 291 l 2
 419 330 416 382 374 382 c 0
 339 382 287 346 287 240 c 2
 287 53 l 1
 311 53 l 2
 321 53 344 51 344 26 c 0
 344 17 340 0 312 0 c 2
 212 0 l 2
 187 0 181 14 181 27 c 0
 181 37 186 53 214 53 c 2
 238 53 l 1
 238 291 l 2
 238 330 235 382 193 382 c 0
 158 382 106 346 106 240 c 2
 106 53 l 1
 131 53 l 2
 138 53 163 52 163 26 c 0
 163 17 160 0 131 0 c 2
 31 0 l 2
 4 0 0 18 0 27 c 0
EndSplineSet
EndChar

StartChar: n
Encoding: 110 110 156
Width: 525
Flags: HW
TeX: 430 0
HStem: -0 53<15.3731 100 161 245.532 278.48 363 424 508.569> 378 53<15.5078 100 214.612 348.265>
VStem: 100 61<53 320.614 377 378> 363 61<53 364.869>
AnchorPoint: "affricate-below" 525 -222 basechar 0
AnchorPoint: "affricate-above" 525 611 basechar 0
AnchorPoint: "below" 262 0 basechar 0
AnchorPoint: "above" 262 437 basechar 0
LayerCount: 2
Fore
SplineSet
15 27 m 0
 15 51 36 53 48 53 c 2
 100 53 l 1
 100 378 l 1
 46 378 l 2
 19 378 15 395 15 404 c 0
 15 419 26 431 44 431 c 2
 122 431 l 2
 154 431 161 425 161 396 c 0
 161 390 162 383 162 377 c 1
 187 406 234 435 293 435 c 0
 398 435 424 368 424 281 c 2
 424 53 l 1
 477 53 l 2
 504 53 509 36 509 27 c 0
 509 17 505 0 476 -0 c 2
 310 -0 l 2
 297 0 278 3 278 26 c 0
 278 38 285 53 308 53 c 2
 363 53 l 1
 363 286 l 2
 363 340 355 382 290 382 c 0
 247 382 161 352 161 234 c 2
 161 53 l 1
 216 53 l 1
 244 52 246 32 246 26 c 0
 246 19 243 0 214 -0 c 2
 48 -0 l 2
 19 0 15 17 15 27 c 0
EndSplineSet
EndChar

StartChar: o
Encoding: 111 111 157
Width: 525
Flags: HW
TeX: 430 0
HStem: -4 53<195.775 328.626> 384 53<191.429 332.148>
VStem: 61 61<132.086 307.289> 402 61<132.514 307.504>
AnchorPoint: "ogonek" 262 0 basechar 0
AnchorPoint: "affricate-below" 525 -222 basechar 0
AnchorPoint: "affricate-above" 525 611 basechar 0
AnchorPoint: "below" 262 0 basechar 0
AnchorPoint: "above" 262 437 basechar 0
LayerCount: 2
Fore
SplineSet
61 216 m 0
 61 334 147 437 262 437 c 0
 376 437 463 335 463 216 c 0
 463 88 368 -4 262 -4 c 0
 158 -4 61 87 61 216 c 0
122 223 m 0
 122 125 186 49 262 49 c 0
 338 49 402 126 402 223 c 0
 402 311 340 384 262 384 c 0
 183 384 122 311 122 223 c 0
EndSplineSet
EndChar

StartChar: p
Encoding: 112 112 158
Width: 525
Flags: HW
TeX: 430 222
HStem: -222 53<15.3731 100 161 245.532> -4 53<217.02 347.288> 378 53<15.4349 100 212.728 358.593>
VStem: 100 61<-169 53 112.064 325.799> 423 61<130.626 304.495>
AnchorPoint: "affricate-below" 525 -222 basechar 0
AnchorPoint: "affricate-above" 525 611 basechar 0
AnchorPoint: "below" 292 -222 basechar 0
AnchorPoint: "above" 292 437 basechar 0
LayerCount: 2
Fore
SplineSet
15 -196 m 0
 15 -172 35 -169 48 -169 c 2
 100 -169 l 1
 100 378 l 1
 46 378 l 2
 19 378 15 394 15 404 c 0
 15 415 20 431 48 431 c 2
 133 431 l 2
 164 431 161 400 161 396 c 2
 161 380 l 1
 193 410 234 435 291 435 c 0
 393 435 484 342 484 216 c 0
 484 86 385 -4 281 -4 c 0
 233 -4 192 16 161 53 c 1
 161 -169 l 1
 216 -169 l 1
 244 -170 246 -190 246 -196 c 0
 246 -203 243 -222 214 -222 c 2
 48 -222 l 2
 19 -222 15 -206 15 -196 c 0
161 184 m 2
 161 143 197 49 278 49 c 0
 351 49 423 116 423 216 c 0
 423 308 361 382 288 382 c 0
 214 382 161 318 161 267 c 2
 161 184 l 2
EndSplineSet
EndChar

StartChar: q
Encoding: 113 113 159
Width: 525
Flags: HW
TeX: 430 222
HStem: -222 53<295.387 384 445 533.539> -4 53<179.933 316.844> 382 53<185.668 323.072>
VStem: 44 61<128.877 299.708> 384 61<-169 62 121.754 314.293 373 434.375>
AnchorPoint: "affricate-below" 525 -222 basechar 0
AnchorPoint: "affricate-above" 525 611 basechar 0
AnchorPoint: "below" 244 -222 basechar 0
AnchorPoint: "above" 244 437 basechar 0
LayerCount: 2
Fore
SplineSet
44 215 m 0
 44 345 148 435 256 435 c 0
 307 435 347 415 384 373 c 1
 384 401 l 2
 384 414 385 435 413 435 c 2
 416 435 l 2
 446 435 445 410 445 401 c 2
 445 -169 l 1
 504 -169 l 1
 530 -170 534 -187 534 -196 c 0
 534 -205 531 -222 503 -222 c 2
 326 -222 l 2
 299 -222 295 -206 295 -195 c 0
 295 -182 303 -169 325 -169 c 2
 384 -169 l 1
 384 62 l 1
 352 27 310 -4 246 -4 c 0
 134 -4 44 95 44 215 c 0
105 215 m 0
 105 128 166 49 249 49 c 0
 333 49 384 134 384 194 c 2
 384 233 l 1
 386 290 343 382 259 382 c 0
 179 382 105 312 105 215 c 0
EndSplineSet
EndChar

StartChar: r
Encoding: 114 114 160
Width: 525
Flags: HW
TeX: 430 0
HStem: -0 53<35.451 156 218 368.532> 378 53<35.3538 156 304.586 415.164>
VStem: 156 62<53 283.159 346 378> 413 74<343.355 381.302>
AnchorPoint: "affricate-below" 525 -222 basechar 0
AnchorPoint: "affricate-above" 525 611 basechar 0
AnchorPoint: "below" 202 0 basechar 0
AnchorPoint: "above" 246 437 basechar 0
LayerCount: 2
Fore
SplineSet
35 27 m 0
 35 38 40 53 68 53 c 2
 156 53 l 1
 156 378 l 1
 65 378 l 2
 41 378 35 393 35 404 c 0
 35 429 55 431 69 431 c 2
 184 431 l 2
 218 431 218 411 218 395 c 2
 218 346 l 1
 254 392 311 435 394 435 c 0
 473 435 487 401 487 378 c 0
 487 357 472 340 450 340 c 0
 440 340 414 345 413 381 c 1
 406 382 400 382 393 382 c 0
 316 381 218 326 218 182 c 2
 218 53 l 1
 337 53 l 2
 365 53 369 38 369 27 c 0
 369 19 366 0 337 -0 c 2
 66 -0 l 1
 39 1 35 18 35 27 c 0
EndSplineSet
EndChar

StartChar: s
Encoding: 115 115 161
Width: 525
Flags: HW
TeX: 430 0
HStem: -4 53<187.296 372.362> 384 53<153.288 344.372>
VStem: 72 61<-0.894405 40 104.903 175.132> 72 53<288.474 357.431> 366 63<286.189 362.279> 406 53<80.0027 165.262>
AnchorPoint: "affricate-below" 525 -222 basechar 0
AnchorPoint: "affricate-above" 525 611 basechar 0
AnchorPoint: "below" 270 0 basechar 0
AnchorPoint: "above" 262 437 basechar 0
LayerCount: 2
Fore
SplineSet
72 29 m 2
 72 139 l 2
 72 161 74 176 104 176 c 0
 127 176 132 160 135 150 c 0
 153 86 194 49 269 49 c 0
 373 49 406 89 406 123 c 0xe4
 406 204 241 198 164 223 c 0
 97 244 72 282 72 322 c 0
 72 368 107 437 262 437 c 0
 329 437 360 420 374 412 c 1
 380 425 385 437 403 437 c 0
 412 437 429 433 429 405 c 2
 429 323 l 2xd8
 429 306 431 285 399 285 c 0
 364 285 369 312 366 327 c 0
 363 342 350 384 262 384 c 0
 165 384 125 353 125 323 c 0xd8
 125 263 258 262 331 245 c 0
 380 234 459 201 459 124 c 0
 459 73 422 -4 270 -4 c 2
 269 -4 l 2
 221 -4 173 6 133 40 c 1
 125 16 121 -4 98 -4 c 0
 77 -4 72 12 72 29 c 2
EndSplineSet
EndChar

StartChar: t
Encoding: 116 116 162
Width: 525
Flags: HW
TeX: 552 0
HStem: -4 53<233.596 367.812> 378 53<25.4556 157 218 426.624>
VStem: 157 61<65.6182 378 431 553.279> 388 62<71.0103 164.121>
AnchorPoint: "affricate-below" 525 -222 basechar 0
AnchorPoint: "affricate-above" 525 611 basechar 0
AnchorPoint: "below" 262 0 basechar 0
AnchorPoint: "above" 188 554 basechar 0
LayerCount: 2
Fore
SplineSet
25 404 m 0
 25 429 47 431 58 431 c 2
 157 431 l 1
 157 521 l 2
 157 539 163 554 186 554 c 0
 187 554 188 554 189 554 c 0
 212 554 218 538 218 521 c 2
 218 431 l 1
 396 431 l 2
 418 431 427 418 427 405 c 0
 427 397 425 378 396 378 c 2
 218 378 l 1
 218 118 l 2
 218 94 221 49 301 49 c 0
 333 49 388 62 388 115 c 2
 388 128 l 2
 388 139 387 165 417 165 c 2
 419 165 l 2
 451 165 450 141 450 131 c 2
 450 113 l 2
 450 29 367 -4 297 -4 c 0
 229 -4 157 21 157 121 c 2
 157 378 l 1
 60 378 l 2
 51 378 25 378 25 404 c 0
EndSplineSet
EndChar

StartChar: u
Encoding: 117 117 163
Width: 525
Flags: HW
TeX: 430 0
HStem: -4 53<173.246 319.365 424 507.953> 378 53<15.4611 100 278.436 363>
VStem: 100 61<63.0273 378> 363 61<90.2109 378>
AnchorPoint: "ogonek" 394 0 basechar 0
AnchorPoint: "affricate-below" 525 -222 basechar 0
AnchorPoint: "affricate-above" 525 611 basechar 0
AnchorPoint: "below" 262 0 basechar 0
AnchorPoint: "above" 262 437 basechar 0
LayerCount: 2
Fore
SplineSet
15 404 m 0
 15 413 19 431 48 431 c 2
 128 431 l 2
 160 431 161 413 161 397 c 2
 161 120 l 2
 161 88 161 49 245 49 c 0
 317 49 357 95 362 135 c 0
 363 144 363 154 363 163 c 2
 363 378 l 1
 307 378 l 2
 303 378 278 378 278 404 c 0
 278 429 301 431 310 431 c 2
 392 431 l 2
 425 431 424 408 424 396 c 2
 424 53 l 1
 478 53 l 2
 506 53 509 34 509 26 c 0
 509 1 485 0 477 -0 c 2
 394 -0 l 2
 362 0 363 22 363 38 c 1
 327 7 284 -4 241 -4 c 0
 104 -4 100 79 100 118 c 2
 100 378 l 1
 46 378 l 2
 19 378 15 394 15 404 c 0
EndSplineSet
EndChar

StartChar: v
Encoding: 118 118 164
Width: 525
Flags: HW
TeX: 430 0
HStem: -4 21G<253 275.5> 378 53<22.4387 98.2962 144 212.58 310.435 379 424.479 500.613>
DStem2: 144 378 91 378 0.332259 -0.943188<0 353.899> 262 44 311 34 0.331816 0.943344<0.393459 353.899>
AnchorPoint: "affricate-below" 525 -222 basechar 0
AnchorPoint: "affricate-above" 525 611 basechar 0
AnchorPoint: "below" 260 0 basechar 0
AnchorPoint: "above" 262 437 basechar 0
LayerCount: 2
Fore
SplineSet
22 404 m 0
 22 425 38 431 56 431 c 2
 181 431 l 2
 189 431 213 430 213 404 c 0
 213 379 190 378 181 378 c 2
 144 378 l 1
 261 44 l 1
 262 44 l 1
 379 378 l 1
 344 378 l 2
 331 378 310 380 310 404 c 0
 310 415 315 431 343 431 c 2
 468 431 l 2
 483 431 501 427 501 404 c 0
 501 379 479 378 469 378 c 2
 432 378 l 1
 428 365 423 352 418 339 c 2
 311 34 l 2
 299 0 288 -4 263 -4 c 2
 258 -4 l 2
 248 -4 224 -3 215 26 c 1
 105 338 l 2
 100 351 95 365 91 378 c 1
 57 378 l 2
 47 378 22 378 22 404 c 0
EndSplineSet
EndChar

StartChar: w
Encoding: 119 119 165
Width: 525
Flags: HW
TeX: 430 0
HStem: -4 21G<149.5 182.5 335 368> 378 53<15.4349 69.3291 116 207.509 316.519 408 459 508.565>
DStem2: 116 378 72 342 0.182978 -0.983117<0.566002 322.444> 351 61 393 28 0.185306 0.982681<0 322.072>
AnchorPoint: "affricate-below" 525 -222 basechar 0
AnchorPoint: "affricate-above" 525 611 basechar 0
AnchorPoint: "below" 262 0 basechar 0
AnchorPoint: "above" 262 437 basechar 0
LayerCount: 2
Fore
SplineSet
15 404 m 0
 15 415 20 431 48 431 c 2
 178 431 l 2
 202 431 208 415 208 404 c 0
 208 391 200 379 178 378 c 1
 116 378 l 1
 175 61 l 1
 181 88 225 232 229 239 c 0
 235 250 246 258 263 258 c 0
 295 258 302 230 303 226 c 0
 338 111 343 94 351 61 c 1
 408 378 l 1
 346 378 l 1
 321 379 316 393 316 404 c 0
 316 416 324 431 348 431 c 2
 476 431 l 2
 504 431 509 415 509 404 c 0
 509 394 505 378 477 378 c 2
 459 378 l 1
 393 28 l 2
 389 7 379 -4 357 -4 c 2
 356 -4 l 2
 314 -4 316 8 277 139 c 0
 270 164 267 176 263 197 c 1
 259 161 214 22 210 14 c 0
 203 2 192 -4 173 -4 c 0
 171 -4 169 -4 167 -4 c 0
 132 -4 132 24 128 43 c 2
 72 342 l 2
 66 376 65 378 65 378 c 1
 47 378 l 2
 19 378 15 394 15 404 c 0
EndSplineSet
EndChar

StartChar: x
Encoding: 120 120 166
Width: 525
Flags: HW
TeX: 430 0
HStem: -0 53<25.456 119.104 161 215.596 308.37 361 404.062 497.539> 378 53<31.5988 125.575 170 221.59 293.41 346 391.875 483.622>
DStem2: 170 378 117 367 0.613592 -0.789623<0 146.03 203.848 373.824> 235 222 161 53 0.604053 0.796944<-176.431 -11.8019 47.776 191.373>
AnchorPoint: "affricate-below" 525 -222 basechar 0
AnchorPoint: "affricate-above" 525 611 basechar 0
AnchorPoint: "below" 262 0 basechar 0
AnchorPoint: "above" 262 437 basechar 0
LayerCount: 2
Fore
SplineSet
25 27 m 0
 25 36 29 53 57 53 c 0
 69 53 80 53 92 53 c 0
 106 53 107 59 235 222 c 1
 223 236 211 251 117 367 c 0
 107 378 103 378 90 378 c 2
 63 378 l 2
 35 378 31 395 31 404 c 0
 31 417 41 431 63 431 c 2
 188 431 l 2
 206 431 222 425 222 404 c 0
 222 393 218 378 190 378 c 2
 170 378 l 1
 260 263 l 1
 346 378 l 1
 326 378 l 2
 316 378 293 379 293 404 c 0
 293 425 309 431 327 431 c 2
 452 431 l 2
 480 431 484 415 484 404 c 0
 484 395 481 378 453 378 c 2
 426 378 l 2
 410 378 409 379 399 367 c 2
 285 222 l 1
 412 64 l 2
 421 53 423 53 435 53 c 2
 467 53 l 2
 495 53 498 36 498 27 c 0
 498 19 495 0 468 -0 c 2
 341 -0 l 2
 329 0 308 2 308 27 c 0
 308 50 327 53 341 53 c 2
 361 53 l 1
 259 189 l 1
 161 53 l 1
 183 53 l 2
 193 53 216 52 216 26 c 0
 216 17 213 0 184 -0 c 2
 58 -0 l 2
 30 0 25 17 25 27 c 0
EndSplineSet
EndChar

StartChar: y
Encoding: 121 121 167
Width: 525
Flags: HW
TeX: 430 222
HStem: -227 54<113.241 174.377> 378 53<24.4349 94 148 214.424 310.53 380 432 500.469>
VStem: 42 76<-169.673 -116.404>
DStem2: 148 378 94 378 0.371391 -0.928477<0 340.008> 241 -13 272 -73 0.33435 0.942449<-161.571 38.0058 79.7717 414.972>
AnchorPoint: "affricate-below" 525 -222 basechar 0
AnchorPoint: "affricate-above" 525 611 basechar 0
AnchorPoint: "below" 262 -222 basechar 0
AnchorPoint: "above" 266 437 basechar 0
LayerCount: 2
Fore
SplineSet
24 404 m 0
 24 415 29 431 57 431 c 2
 183 431 l 2
 192 431 215 430 215 403 c 0
 215 379 192 378 183 378 c 2
 148 378 l 1
 250 118 l 1
 271 61 l 1
 283 106 343 273 380 378 c 1
 344 378 l 2
 331 378 310 380 310 404 c 0
 310 413 314 431 343 431 c 2
 470 431 l 2
 495 431 501 415 501 404 c 0
 501 378 480 378 466 378 c 2
 432 378 l 1
 272 -73 l 2
 256 -120 214 -227 125 -227 c 0
 83 -227 42 -196 42 -151 c 0
 42 -128 59 -113 80 -113 c 0
 104 -113 118 -132 118 -151 c 0
 118 -158 116 -163 113 -170 c 1
 118 -172 124 -173 129 -173 c 0
 194 -173 219 -74 241 -13 c 0
 245 -2 245 -1 240 13 c 2
 94 378 l 1
 57 378 l 2
 48 378 24 378 24 404 c 0
EndSplineSet
EndChar

StartChar: z
Encoding: 122 122 168
Width: 525
Flags: HW
TeX: 430 0
HStem: -0 53<124 413> 378 53<110 380>
VStem: 49 61<311.047 378> 413 62<53 131.115>
DStem2: 55 68 124 53 0.723608 0.690211<39.5758 449.138>
AnchorPoint: "affricate-below" 525 -222 basechar 0
AnchorPoint: "affricate-above" 525 611 basechar 0
AnchorPoint: "below" 254 0 basechar 0
AnchorPoint: "above" 254 437 basechar 0
LayerCount: 2
Fore
SplineSet
32 29 m 0
 32 49 40 52 55 68 c 1
 380 378 l 1
 110 378 l 1
 110 342 l 2
 110 334 110 310 80 310 c 0
 52 310 48 330 48 353 c 0
 48 361 49 370 49 379 c 2
 49 398 l 1
 48 429 68 431 82 431 c 2
 440 431 l 2
 463 431 472 419 472 402 c 0
 472 381 463 377 449 363 c 2
 124 53 l 1
 413 53 l 1
 413 98 l 2
 413 107 412 132 444 132 c 0
 473 132 475 112 475 99 c 2
 475 36 l 2
 475 22 476 0 442 -0 c 2
 64 -0 l 2
 55 0 32 1 32 29 c 0
EndSplineSet
EndChar

StartChar: braceleft
Encoding: 123 123 169
Width: 525
Flags: HW
TeX: 694 83
HStem: -83 53<319.796 462.563> 643 51<323.538 462.761>
VStem: 232 61<-4.57623 251.9 358.921 614.733>
LayerCount: 2
Fore
SplineSet
61 305 m 0
 61 330 83 332 92 332 c 2
 95 332 l 1
 179 333 224 356 231 388 c 0
 232 395 232 403 232 410 c 2
 232 570 l 2
 232 644 282 693 432 694 c 0
 460 694 463 678 463 668 c 0
 463 653 452 645 445 643 c 0
 430 639 312 645 295 592 c 0
 292 584 293 575 293 567 c 2
 293 406 l 1
 294 369 285 334 231 305 c 1
 291 277 293 230 293 205 c 2
 293 43 l 2
 293 14 297 -27 431 -30 c 0
 438 -30 463 -30 463 -57 c 0
 463 -66 460 -83 434 -83 c 0
 282 -83 232 -34 232 40 c 2
 232 202 l 2
 232 223 232 244 195 261 c 0
 125 293 61 260 61 305 c 0
EndSplineSet
EndChar

StartChar: bar
Encoding: 124 124 170
Width: 525
Flags: HW
TeX: 694 83
VStem: 231 61<-81.4785 692.647>
LayerCount: 2
Fore
SplineSet
231 -46 m 2
 231 655 l 2
 231 690 253 694 262 694 c 0
 269 694 292 691 292 657 c 2
 292 -39 l 2
 292 -48 295 -83 262 -83 c 0
 255 -83 231 -80 231 -46 c 2
EndSplineSet
EndChar

StartChar: braceright
Encoding: 125 125 171
Width: 525
Flags: HW
TeX: 694 83
HStem: -83 51<61.4087 200.516> 625 69<72.2478 222.639>
VStem: 232 61<-4.61026 251.696 358.46 616.411>
LayerCount: 2
Fore
SplineSet
61 -56 m 0
 61 -41 73 -34 80 -32 c 0
 94 -29 212 -34 229 19 c 0
 232 27 232 36 232 44 c 2
 232 205 l 1
 231 259 255 285 294 306 c 1
 234 334 232 380 232 406 c 2
 232 568 l 2
 232 589 232 609 195 625 c 0
 125 655 61 624 61 668 c 0
 61 694 85 694 95 694 c 2
 96 694 l 2
 208 694 293 664 293 571 c 2
 293 409 l 2
 293 388 292 367 329 350 c 0
 399 318 463 351 463 306 c 0
 463 281 441 279 432 279 c 2
 429 279 l 1
 346 278 301 255 294 223 c 0
 293 216 293 208 293 201 c 2
 293 40 l 2
 293 -34 244 -82 93 -83 c 0
 77 -83 61 -78 61 -56 c 0
EndSplineSet
EndChar

StartChar: asciitilde
Encoding: 126 126 172
Width: 525
Flags: HW
TeX: 611 0
HStem: 499 57<279.439 380.954> 554 57<142.332 244.184>
LayerCount: 2
Fore
SplineSet
72 526 m 0
 72 543 128 611 191 611 c 0x40
 252 611 291 556 334 556 c 0
 378 556 401 610 425 610 c 0
 439 610 452 597 452 584 c 0
 452 567 395 499 333 499 c 0x80
 273 499 231 554 189 554 c 0x40
 145 554 122 500 98 500 c 0
 84 500 72 512 72 526 c 0
EndSplineSet
EndChar

StartChar: uni00AD
Encoding: 173 173 173
Width: 525
Flags: HW
TeX: 430 0
HStem: 189 53<175.435 348.453>
VStem: 175 174<190.109 241.112>
LayerCount: 2
Fore
SplineSet
175 216 m 0
 175 226 179 242 207 242 c 2
 318 242 l 2
 345 242 349 223 349 215 c 0
 349 194 334 189 317 189 c 2
 208 189 l 2
 180 189 175 205 175 216 c 0
EndSplineSet
EndChar

StartChar: Abreve
Encoding: 258 258 174
Width: 525
Flags: HW
TeX: 819 0
HStem: 0 53<27.4373 89.9482 148 205.631 319.369 376 433.764 496.596> 176 53<191 334> 604 20<242 287.5> 646 56<177.849 330.238>
VStem: 82 51<743.631 818.491> 373 54<741.126 818.352>
DStem2: 85 53 148 53 0.234818 0.972039<14.7936 141.399 195.97 524.901> 313 578 263 550 0.233373 -0.972387<15.5582 344.264 398.834 525.206>
AnchorPoint: "below" 262 0 basechar 0
AnchorPoint: "above" 262 794 basechar 0
LayerCount: 2
Fore
SplineSet
82 791 m 0
 82 814 100 819 109 819 c 0
 120 819 129 812 133 803 c 0
 138 791 133 778 146 756 c 0
 166 721 211 702 255 702 c 0
 307 702 367 731 373 787 c 0
 374 793 374 819 401 819 c 0
 411 819 427 813 427 790 c 0
 427 720 358 646 255 646 c 0
 146 646 82 724 82 791 c 0
EndSplineSet
Refer: 111 65 S 1 0 0 1 -0 0 3
AlternateSubs2: "Stilistic set 01 subtable" Abreve.vn
AlternateSubs2: "Latin alternatives subtable" Abreve.vn
Substitution2: "Latin Vietnamese substitutions subtable" Abreve.vn
EndChar

StartChar: Aogonek
Encoding: 260 260 175
Width: 525
Flags: HW
TeX: 611 222
HStem: -231 55<367.95 463.188> 0 53<27.403 89.9482 148 205.631 319.376 364 435.867 497.422> 176 53<191 334> 604 20G<242 287.5>
VStem: 296 56<-159.688 -66.2618>
DStem2: 85 53 148 53 0.234818 0.972039<14.7936 141.399 195.97 524.901> 313 578 263 550 0.233373 -0.972387<15.5582 344.264 398.834 525.206>
AnchorPoint: "above" 262 619 basechar 0
LayerCount: 2
Fore
SplineSet
27 27 m 0
 27 52 50 53 58 53 c 0
 67 53 76 53 85 53 c 1
 89 73 95 92 100 112 c 2
 214 587 l 2
 220 611 228 624 256 624 c 2
 269 624 l 2
 306 624 307 601 313 578 c 2
 426 107 l 2
 430 89 435 71 439 53 c 1
 464 53 l 2
 475 53 498 52 498 27 c 0
 498 16 491 0 467 -0 c 2
 464 -0 l 2
 449 0 352 -58 352 -117 c 0
 352 -152 387 -176 418 -176 c 0
 467 -176 469 -130 496 -129 c 0
 512 -129 523 -142 523 -155 c 0
 523 -174 483 -231 415 -231 c 0
 348 -231 296 -179 296 -120 c 0
 296 -63 341 -19 364 0 c 1
 350 0 l 2
 321 0 319 20 319 27 c 0
 319 38 323 53 352 53 c 2
 376 53 l 1
 347 176 l 1
 178 176 l 1
 148 53 l 1
 173 53 l 2
 189 53 206 49 206 26 c 0
 206 16 202 0 174 0 c 2
 59 0 l 2
 31 0 27 17 27 27 c 0
191 229 m 1
 334 229 l 1
 304 357 266 518 263 550 c 1
 236 422 l 1
 191 229 l 1
EndSplineSet
Ligature2: "Latin ligatures subtable" A uni0328
EndChar

StartChar: Cacute
Encoding: 262 262 176
Width: 525
Flags: HW
TeX: 777 0
HStem: -8 53<214.166 360.273> 566 53<214.221 354.096>
VStem: 40 61<182.352 425.409> 412 72<408.547 508.795> 422 62<105.646 197.092 566 615.13>
AnchorPoint: "below" 282 0 basechar 0
AnchorPoint: "above" 282 781 basechar 0
LayerCount: 2
Fore
SplineSet
205 711 m 0xe8
 205 728 218 734 231 739 c 0
 382 800 381 801 392 801 c 0
 410 801 422 785 422 770 c 0
 422 745 415 746 254 681 c 0
 248 678 241 676 234 676 c 2
 233 676 l 1
 210 677 205 707 205 711 c 0xe8
EndSplineSet
Refer: 113 67 S 1 0 0 1 0 -0 3
EndChar

StartChar: Ccaron
Encoding: 268 268 177
Width: 525
Flags: HW
TeX: 819 0
HStem: -8 53<214.166 360.273> 566 53<214.221 354.096>
VStem: 40 61<182.352 425.409> 412 72<408.547 508.795> 422 62<105.646 197.092 566 615.13>
AnchorPoint: "below" 282 0 basechar 0
AnchorPoint: "above" 282 793 basechar 0
LayerCount: 2
Fore
SplineSet
136 788 m 0xe0
 136 803 147 813 160 813 c 0
 173 813 173 810 285 714 c 1
 397 811 396 813 409 813 c 0
 421 813 433 801 433 788 c 0
 433 776 424 768 419 763 c 0
 296 650 299 649 285 649 c 2
 283 649 l 2
 272 649 271 652 150 763 c 0
 143 770 136 776 136 788 c 0xe0
EndSplineSet
Refer: 113 67 S 1 0 0 1 0 0 3
EndChar

StartChar: Dcaron
Encoding: 270 270 178
Width: 525
Flags: HW
TeX: 819 0
HStem: 0 53<23.4349 86 147 323.543> 558 53<23.4213 86 147 318.955>
VStem: 86 61<53 558> 424 62<179.869 426.208>
AnchorPoint: "below" 220 0 basechar 0
AnchorPoint: "above" 220 801 basechar 0
LayerCount: 2
Fore
SplineSet
87 788 m 0
 87 803 99 813 112 813 c 0
 125 813 124 810 236 714 c 1
 348 811 347 813 360 813 c 0
 372 813 385 801 385 788 c 0
 385 776 375 768 370 763 c 0
 247 650 250 649 236 649 c 2
 234 649 l 2
 223 649 223 652 102 763 c 0
 95 770 87 776 87 788 c 0
EndSplineSet
Refer: 114 68 S 1 0 0 1 0 0 3
EndChar

StartChar: Ecaron
Encoding: 282 282 179
Width: 525
Flags: HW
TeX: 819 0
HStem: 0 53<30.3935 101 162 441> 290 53<162 302> 558 53<30.4551 101 162 420>
VStem: 101 61<53 290 343 558> 302 61<234.601 290 343 399.318> 420 61<464.682 558> 441 62<53 162.281>
AnchorPoint: "below" 267 0 basechar 0
AnchorPoint: "above" 267 801 basechar 0
LayerCount: 2
Fore
SplineSet
104 788 m 0xf8
 104 803 116 813 129 813 c 0
 142 813 141 810 253 714 c 1
 365 811 364 813 377 813 c 0
 389 813 402 801 402 788 c 0
 402 776 392 768 387 763 c 0
 264 650 267 649 253 649 c 2
 251 649 l 2
 240 649 240 652 119 763 c 0
 112 770 104 776 104 788 c 0xf8
EndSplineSet
Refer: 115 69 S 1 0 0 1 0 0 3
EndChar

StartChar: Eogonek
Encoding: 280 280 180
Width: 525
Flags: HW
TeX: 611 222
HStem: -231 55<338.835 433.172> 0 53<30.4035 101 162 334 392.413 441> 290 53<162 302> 558 53<30.4551 101 162 420>
VStem: 101 61<53 290 343 558> 265 57<-159.29 -64.8884> 302 61<234.601 290 343 399.115> 420 61<464.547 558> 441 62<53 162.281>
AnchorPoint: "above" 256 619 basechar 0
LayerCount: 2
Fore
SplineSet
30 26 m 0
 30 51 53 53 62 53 c 0
 75 53 88 53 101 53 c 1
 101 558 l 1
 64 558 l 2
 56 558 30 558 30 584 c 0
 30 594 34 611 62 611 c 2
 448 611 l 2
 469 611 481 605 481 579 c 2
 481 497 l 2
 481 479 475 464 453 464 c 2
 450 464 l 2
 436 464 421 467 420 494 c 1
 420 558 l 1xfd
 162 558 l 1
 162 343 l 1
 302 343 l 1
 302 367 l 2
 302 377 302 400 331 400 c 2
 332 400 l 2
 361 400 363 380 363 367 c 2
 363 265 l 2
 363 240 349 234 334 234 c 2
 331 234 l 2
 301 234 302 258 302 267 c 2
 302 290 l 1
 162 290 l 1
 162 53 l 1
 441 53 l 1
 441 132 l 2
 441 157 455 163 470 163 c 2xfa80
 472 163 l 2
 503 163 503 142 503 129 c 2
 503 33 l 2xfa80
 503 15 497 0 474 0 c 2
 444 0 l 2
 428 0 426 0 412 -8 c 0
 371 -33 322 -74 322 -117 c 0
 322 -153 358 -176 388 -176 c 0
 438 -176 439 -129 466 -129 c 0
 480 -129 493 -141 493 -156 c 0
 493 -175 452 -231 385 -231 c 0
 328 -231 265 -189 265 -120 c 0
 265 -64 309 -21 334 0 c 1
 61 0 l 2
 34 0 30 16 30 26 c 0
EndSplineSet
EndChar

StartChar: Gbreve
Encoding: 286 286 181
Width: 525
Flags: HW
TeX: 819 0
HStem: -8 53<198.122 322.429> 0 21G<400.5 430> 213 53<304.33 387 449 495.565> 491 128<392.239 447.83> 566 53<203.052 364.279> 646 56<184.064 335.406>
VStem: 37 61<177.766 432.642> 88 51<743.631 818.491> 379 54<743.179 818.352> 388 61<0.971424 53 128.899 213>
LayerCount: 2
Fore
SplineSet
37 305 m 0
 37 472 128 619 265 619 c 0xae40
 339 619 378 601 389 596 c 1
 396 604 407 619 423 619 c 0
 429 619 448 617 449 590 c 1
 449 523 l 2
 449 500 435 491 421 491 c 0x3640
 409 491 397 496 392 503 c 0
 387 511 385 566 271 566 c 0
 171 566 98 446 98 306 c 0
 98 154 178 45 263 45 c 0xae40
 337 45 380 127 387 213 c 1
 337 213 l 2
 322 213 304 217 304 240 c 0
 304 253 313 266 336 266 c 2
 463 266 l 2
 491 266 496 250 496 239 c 0
 496 230 493 213 465 213 c 2
 449 213 l 1
 449 30 l 2
 449 15 442 0 418 0 c 2
 416 0 l 2x6640
 385 0 388 29 388 34 c 2
 388 53 l 1
 338 -6 280 -8 261 -8 c 0
 134 -8 37 135 37 305 c 0
88 791 m 0
 88 814 106 819 115 819 c 0
 126 819 135 812 139 803 c 0
 144 791 139 778 152 756 c 0
 172 721 217 702 261 702 c 0
 313 702 372 731 379 787 c 0
 380 793 380 819 407 819 c 0
 423 819 433 808 433 791 c 0
 433 716 361 646 261 646 c 0x2580
 153 646 88 724 88 791 c 0
EndSplineSet
EndChar

StartChar: Lacute
Encoding: 313 313 182
Width: 525
Flags: HW
TeX: 777 0
HStem: -0 53<35.3702 112 174 428> 558 53<35.489 112 174 269.579>
VStem: 112 62<53 558> 428 61<53 162.2>
LayerCount: 2
Fore
SplineSet
50 711 m 0
 50 728 63 734 76 739 c 0
 227 800 226 801 237 801 c 0
 255 801 267 785 267 770 c 0
 267 745 260 746 99 681 c 0
 93 678 86 676 79 676 c 2
 78 676 l 1
 55 677 50 707 50 711 c 0
EndSplineSet
Refer: 122 76 S 1 0 0 1 -0 -0 3
EndChar

StartChar: Lcaron
Encoding: 317 317 183
Width: 525
Flags: HW
TeX: 819 0
HStem: -0 53<35.3702 112 174 428> 558 53<35.489 112 174 269.579> 587 107<306.857 359.364>
VStem: 112 62<53 558> 297 122<596.41 673.112> 428 61<53 162.2>
LayerCount: 2
Fore
SplineSet
297 640 m 0
 297 670 318 694 350 694 c 0
 391 694 419 657 419 617 c 0
 419 541 352 494 328 494 c 0
 314 494 301 507 301 521 c 0
 301 550 337 539 360 587 c 1
 353 587 l 2xbc
 313 587 297 615 297 640 c 0
EndSplineSet
Refer: 122 76 S 1 0 0 1 -0 -0 3
EndChar

StartChar: Lslash
Encoding: 321 321 184
Width: 525
Flags: HW
TeX: 611 0
HStem: -0 53<35.3702 112 174 428> 558 53<35.489 112 174 269.579>
VStem: 112 62<53 261 311.713 324.484 374 558> 428 61<53 162.2>
DStem2: 112 328 112 261 0.797205 0.603709<-88.5701 -40.4485 77.1973 218.095>
LayerCount: 2
Fore
SplineSet
35 26 m 0
 35 51 56 53 68 53 c 2
 112 53 l 1
 112 261 l 1
 94 248 82 236 70 236 c 0
 56 236 43 249 43 263 c 0
 43 277 46 279 112 328 c 1
 112 558 l 1
 66 558 l 2
 41 558 35 574 35 585 c 0
 35 594 39 611 67 611 c 2
 237 611 l 2
 246 611 270 610 270 584 c 0
 270 576 267 559 240 558 c 1
 174 558 l 1
 174 374 l 1
 279 453 277 455 290 455 c 0
 305 455 316 440 316 428 c 0
 316 413 315 414 215 339 c 0
 201 329 188 318 174 308 c 1
 174 53 l 1
 428 53 l 1
 428 131 l 2
 428 146 430 163 458 163 c 0
 483 163 489 149 489 132 c 2
 489 35 l 2
 489 23 490 0 457 -0 c 2
 67 -0 l 2
 39 0 35 15 35 26 c 0
EndSplineSet
EndChar

StartChar: Nacute
Encoding: 323 323 185
Width: 525
Flags: HW
TeX: 777 0
HStem: 0 53<31.576 96 146 210.63> 558 53<31.4218 96 314.404 379 428 492.614>
VStem: 96 50<53 550> 379 49<61 558>
DStem2: 183 580 146 550 0.353295 -0.935512<14.9934 554.777>
LayerCount: 2
Fore
SplineSet
175 711 m 0
 175 728 188 734 201 739 c 0
 352 800 351 801 362 801 c 0
 380 801 392 785 392 770 c 0
 392 745 385 746 224 681 c 0
 218 678 211 676 204 676 c 2
 203 676 l 1
 180 677 175 707 175 711 c 0
EndSplineSet
Refer: 124 78 S 1 0 0 1 0 -0 3
EndChar

StartChar: Ncaron
Encoding: 327 327 186
Width: 525
Flags: HW
TeX: 819 0
HStem: 0 53<31.576 96 146 210.63> 558 53<31.4218 96 314.404 379 428 492.614>
VStem: 96 50<53 550> 379 49<61 558>
DStem2: 183 580 146 550 0.353295 -0.935512<14.9934 554.777>
LayerCount: 2
Fore
SplineSet
114 788 m 0
 114 803 125 813 138 813 c 0
 151 813 151 810 263 714 c 1
 375 811 374 813 387 813 c 0
 400 813 411 803 411 788 c 0
 411 776 402 768 397 763 c 0
 274 650 277 649 263 649 c 2
 261 649 l 2
 250 649 249 652 128 763 c 0
 121 770 114 776 114 788 c 0
EndSplineSet
Refer: 124 78 S 1 0 0 1 0 0 3
EndChar

StartChar: Eng
Encoding: 330 330 187
Width: 525
Flags: HW
TeX: 611 0
HStem: -8 53<325.652 406.422> -0 53<21.4349 82 143 203.565> 558 53<21.4382 82> 564 61<213.632 354.827>
VStem: 82 61<53 490.849> 250 78<76.5617 136.927> 426 61<65.2614 486.145>
LayerCount: 2
Fore
SplineSet
21 27 m 0
 21 53 44 53 55 53 c 2
 82 53 l 1
 82 558 l 1
 55 558 l 2
 46 558 21 559 21 585 c 0
 21 609 43 611 52 611 c 2
 109 611 l 2x6e
 124 611 143 610 143 578 c 2
 143 564 l 1
 179 599 223 625 285 625 c 0
 383 625 487 545 487 401 c 2
 487 139 l 2
 487 27 416 -8 368 -8 c 0
 301 -8 250 45 250 99 c 0
 250 125 268 141 289 141 c 0
 310 141 328 125 328 102 c 0
 328 99 328 88 318 76 c 1
 330 56 347 45 365 45 c 0x9e
 391 45 416 66 424 107 c 0
 426 119 426 131 426 143 c 2
 426 398 l 2
 426 515 346 564 284 564 c 0
 220 564 143 512 143 399 c 2
 143 53 l 1
 170 53 l 2
 182 53 204 50 204 26 c 0x5e
 204 15 199 0 171 -0 c 2
 54 -0 l 2
 26 0 21 16 21 27 c 0
EndSplineSet
EndChar

StartChar: Ohungarumlaut
Encoding: 336 336 188
Width: 525
Flags: HW
TeX: 777 0
HStem: -8 53<130.717 394> 566 53<130.666 392.067>
VStem: 56 61<88.8334 551.634> 407 61<83.0982 552.262>
AnchorPoint: "above" 259 781 basechar 0
LayerCount: 2
Fore
SplineSet
56 209 m 2
 56 402 l 1
 57 442 58 514 64 558 c 0
 71 605 69 618 258 619 c 0
 363 619 431 616 449 594 c 0
 466 573 468 428 468 402 c 2
 468 209 l 1
 467 114 462 35 450 18 c 0
 435 -3 377 -8 266 -8 c 2
 252 -8 l 2
 155 -8 92 -4 75 16 c 0
 61 32 56 102 56 209 c 2
114 711 m 0
 114 728 127 734 140 739 c 0
 291 800 290 801 301 801 c 0
 319 801 331 785 331 770 c 0
 331 745 324 746 163 681 c 0
 157 678 150 676 143 676 c 2
 142 676 l 1
 119 677 114 707 114 711 c 0
117 315 m 2
 117 113 122 76 132 64 c 0
 147 46 199 45 253 45 c 2
 265 45 l 2
 385 45 394 57 399 81 c 0
 407 125 407 218 407 309 c 2
 407 351 l 2
 407 373 406 373 406 388 c 2
 406 404 l 1
 404 482 403 534 392 548 c 0
 380 562 351 565 276 566 c 1
 252 566 l 2
 125 566 128 554 123 515 c 0
 119 479 119 442 118 404 c 1
 118 388 l 2
 118 374 117 374 117 353 c 2
 117 315 l 2
301 710 m 0
 301 734 307 730 459 792 c 0
 468 795 477 801 488 801 c 0
 506 801 518 785 518 770 c 0
 518 745 511 746 350 681 c 0
 344 678 337 676 330 676 c 2
 329 676 l 2
 314 676 301 694 301 710 c 0
EndSplineSet
EndChar

StartChar: Racute
Encoding: 340 340 189
Width: 525
Flags: HW
TeX: 777 0
HStem: -8 53<414.73 456.315> -0 53<25.404 90 152 216.59> 279 53<152 311.389> 558 53<25.6246 90 152 314.134>
VStem: 90 62<53 279 332 558> 346 61<46.9253 245.875> 373 61<384.968 503.92> 461 61<45.2947 119.271>
AnchorPoint: "below" 220 0 basechar 0
AnchorPoint: "above" 220 789 basechar 0
LayerCount: 2
Fore
SplineSet
175 711 m 0x39
 175 728 188 734 201 739 c 0
 352 800 351 801 362 801 c 0
 380 801 392 785 392 770 c 0
 392 745 385 746 224 681 c 0
 218 678 211 676 204 676 c 2
 203 676 l 1
 180 677 175 707 175 711 c 0x39
EndSplineSet
Refer: 128 82 S 1 0 0 1 0 -0 3
EndChar

StartChar: Rcaron
Encoding: 344 344 190
Width: 525
Flags: HW
TeX: 819 0
HStem: -8 53<414.73 456.315> 0 53<25.404 90 152 216.59> 279 53<152 311.389> 558 53<25.6246 90 152 314.134>
VStem: 90 62<53 279 332 558> 346 61<46.9253 245.875> 373 61<384.968 503.92> 461 61<45.2947 119.271>
AnchorPoint: "below" 220 0 basechar 0
AnchorPoint: "above" 220 801 basechar 0
LayerCount: 2
Fore
SplineSet
74 788 m 0x39
 74 803 86 813 99 813 c 0
 112 813 111 810 223 714 c 1
 335 811 334 813 347 813 c 0
 360 813 372 803 372 788 c 0
 372 776 362 768 357 763 c 0
 234 650 237 649 223 649 c 2
 221 649 l 2
 210 649 210 652 89 763 c 0
 82 770 74 776 74 788 c 0x39
EndSplineSet
Refer: 128 82 S 1 0 0 1 0 0 3
EndChar

StartChar: Sacute
Encoding: 346 346 191
Width: 525
Flags: HW
TeX: 777 0
HStem: -8 53<182.781 361.199> 566 53<160.525 318.976>
VStem: 52 58<-6.44589 43 113.02 202.252 405.774 518.966> 379 67<409.927 508.573 567 612.002> 415 57<98.4171 223.074>
DStem2: 185 368 166 310 0.963031 -0.269389<-61.6641 237.919>
AnchorPoint: "below" 284 0 basechar 0
AnchorPoint: "above" 237 781 basechar 0
LayerCount: 2
Fore
SplineSet
144 711 m 0xe0
 144 728 157 734 170 739 c 0
 321 800 320 801 331 801 c 0
 349 801 361 785 361 770 c 0
 361 745 354 746 193 681 c 0
 187 678 180 676 173 676 c 2
 172 676 l 1
 149 677 144 707 144 711 c 0xe0
EndSplineSet
Refer: 129 83 S 1 0 0 1 0 -0 3
EndChar

StartChar: Scaron
Encoding: 352 352 192
Width: 525
Flags: HW
TeX: 819 0
HStem: -8 53<182.781 361.199> 566 53<160.525 318.976>
VStem: 52 58<-6.44589 43 113.02 202.252 405.774 518.966> 379 67<409.927 508.573 567 612.002> 415 57<98.4171 223.074>
DStem2: 185 368 166 310 0.963031 -0.269389<-61.6641 237.919>
AnchorPoint: "below" 284 0 basechar 0
AnchorPoint: "above" 237 793 basechar 0
LayerCount: 2
Fore
SplineSet
113 788 m 0xe0
 113 803 125 813 138 813 c 0
 151 813 150 810 262 714 c 1
 375 812 374 813 387 813 c 0
 401 813 411 800 411 788 c 0
 411 776 401 768 396 763 c 0
 273 650 276 649 262 649 c 2
 260 649 l 2
 249 649 249 652 128 763 c 0
 121 770 113 776 113 788 c 0xe0
EndSplineSet
Refer: 129 83 S 1 0 0 1 0 0 3
EndChar

StartChar: Scedilla
Encoding: 350 350 193
Width: 525
Flags: HW
TeX: 611 194
HStem: -204 53<170.371 334.794> -8 21G<66.5 92> 566 53<160.525 319.108>
VStem: 52 58<-6.27769 43 111.301 202.252 406.073 518.966> 345 61<-136.296 -75.0115> 379 67<409.895 508.573 567 612.002> 415 57<97.5827 222.918>
LayerCount: 2
Fore
SplineSet
52 27 m 2
 52 171 l 2
 52 183 53 203 82 203 c 0
 114 203 113 181 114 169 c 0
 119 85 192 45 284 45 c 0
 373 45 415 110 415 161 c 0xfa
 415 206 383 253 328 270 c 0
 296 280 197 299 166 310 c 0
 116 328 52 377 52 458 c 0
 52 541 126 619 237 619 c 0
 325 619 371 579 384 567 c 1
 392 598 395 619 419 619 c 0
 448 619 446 588 446 584 c 2
 446 439 l 2xf4
 446 422 440 408 415 408 c 0xf2
 381 408 387 430 379 461 c 0xf4
 358 541 295 566 237 566 c 0
 164 566 110 518 110 463 c 0
 110 411 154 384 166 377 c 0
 181 368 179 368 325 335 c 0
 422 313 472 236 472 165 c 0
 472 96 426 10 312 -7 c 1
 317 -15 l 1
 359 -24 406 -52 406 -108 c 0
 406 -202 285 -204 208 -204 c 2
 202 -204 l 2
 175 -204 170 -187 170 -178 c 0
 170 -153 191 -151 204 -151 c 2
 210 -151 l 2xfa
 253 -151 345 -153 345 -108 c 0
 345 -64 280 -65 272 -61 c 0
 258 -54 258 -41 258 -32 c 0
 258 -18 260 -14 264 -8 c 1
 172 -2 131 29 113 43 c 1
 108 23 105 -8 79 -8 c 0
 54 -8 52 13 52 27 c 2
EndSplineSet
EndChar

StartChar: Tcaron
Encoding: 356 356 194
Width: 525
Flags: HW
TeX: 819 0
HStem: 0 53<139.469 231 293 384.544> 558 53<87 231 293 437>
VStem: 26 61<464.639 558> 231 62<53 558> 437 61<464.671 558>
CounterMasks: 1 38
AnchorPoint: "below" 262 0 basechar 0
AnchorPoint: "above" 262 801 basechar 0
LayerCount: 2
Fore
SplineSet
113 788 m 0
 113 803 125 813 138 813 c 0
 151 813 150 810 262 714 c 1
 374 811 373 813 386 813 c 0
 398 813 411 801 411 788 c 0
 411 776 401 768 396 763 c 0
 273 650 276 649 262 649 c 2
 260 649 l 2
 249 649 249 652 128 763 c 0
 121 770 113 776 113 788 c 0
EndSplineSet
Refer: 130 84 S 1 0 0 1 0 0 3
EndChar

StartChar: Tcommaaccent
Encoding: 354 354 195
Width: 525
Flags: HW
TeX: 611 194
HStem: -204 53<144.59 307.681> -0 53<139.428 231 293 384.407> 558 53<87 231 293 437>
VStem: 26 61<464.639 558> 231 62<-21.4436 0 53 558> 318 62<-136.69 -75.0772> 437 61<464.797 558>
LayerCount: 2
Fore
SplineSet
26 494 m 1
 26 577 l 2
 26 591 27 611 58 611 c 2
 466 611 l 2
 498 611 498 590 498 577 c 2
 498 495 l 2
 498 471 484 464 469 464 c 2
 468 464 l 2
 442 464 437 478 437 494 c 2
 437 558 l 1
 293 558 l 1
 293 53 l 1
 355 53 l 2
 375 53 385 39 385 26 c 0
 385 18 382 1 355 -0 c 1
 293 -0 l 1
 293 -15 l 1
 333 -24 380 -53 380 -108 c 0
 380 -191 289 -204 186 -204 c 2
 173 -204 l 2
 154 -204 144 -190 144 -177 c 0
 144 -152 165 -151 178 -151 c 2
 182 -151 l 2
 263 -151 318 -144 318 -108 c 0
 318 -79 286 -66 263 -64 c 0
 230 -62 231 -43 231 -27 c 2
 231 -0 l 1
 169 -0 l 1
 144 1 139 16 139 27 c 0
 139 40 148 53 169 53 c 2
 231 53 l 1
 231 558 l 1
 87 558 l 1
 87 494 l 2
 87 466 68 464 56 464 c 2
 55 464 l 2
 42 464 27 469 26 494 c 1
EndSplineSet
EndChar

StartChar: Uhungarumlaut
Encoding: 368 368 196
Width: 525
Flags: HW
TeX: 777 0
HStem: -8 53<201.693 322.355> 558 53<8.35381 79 140 209.597 314.434 385 446 515.597>
VStem: 79 61<115.188 558> 385 61<116.848 558>
AnchorPoint: "below" 262 0 basechar 0
AnchorPoint: "above" 262 789 basechar 0
LayerCount: 2
Fore
SplineSet
94 711 m 0
 94 728 107 734 120 739 c 0
 271 800 270 801 281 801 c 0
 301 801 311 782 311 770 c 0
 311 745 303 746 142 681 c 0
 136 678 129 676 122 676 c 0
 99 677 94 707 94 711 c 0
313 710 m 0
 313 734 318 730 470 792 c 0
 479 795 489 801 500 801 c 0
 518 801 530 785 530 770 c 0
 530 745 522 746 361 681 c 0
 355 678 348 676 341 676 c 0
 326 676 313 694 313 710 c 0
EndSplineSet
Refer: 131 85 S 1 0 0 1 -0 -0 3
EndChar

StartChar: Uring
Encoding: 366 366 197
Width: 525
Flags: HW
TeX: 819 0
HStem: -8 53<201.693 322.355> 558 53<8.35381 79 140 209.597 314.434 385 446 515.597> 593 53<219.357 304.396> 774 54<219.357 304.904>
VStem: 79 61<115.188 558> 146 58<660.64 759.456> 320 59<660.967 759.238> 385 61<116.848 558>
LayerCount: 2
Fore
SplineSet
146 710 m 0
 146 770 193 828 262 828 c 0
 332 828 379 769 379 710 c 0
 379 650 331 593 262 593 c 0
 193 593 146 650 146 710 c 0
204 710 m 0
 204 679 226 646 262 646 c 0
 288 646 320 669 320 710 c 0
 320 741 298 774 262 774 c 0xbf
 226 774 204 741 204 710 c 0
EndSplineSet
Refer: 131 85 S 1 0 0 1 0 -0 3
EndChar

StartChar: Ydieresis
Encoding: 376 376 198
Width: 525
Flags: HW
TeX: 819 0
HStem: 0 53<166.438 232 293 357.59> 558 53<17.5776 77 146 193.609 331.37 379 447 506.544> 733 86<122.701 197.458 327.607 400.924>
VStem: 117 86<739.076 813.066> 232 61<53 244> 322 85<739.076 813.066>
DStem2: 146 558 77 558 0.440338 -0.897832<0 270.167> 379 558 447 558 0.441201 0.897408<-270.162 0>
AnchorPoint: "below" 262 0 basechar 0
AnchorPoint: "above" 262 807 basechar 0
LayerCount: 2
Fore
SplineSet
117 776 m 0
 117 801 138 819 160 819 c 0
 182 819 203 801 203 776 c 0
 203 751 182 733 160 733 c 0
 134 733 117 754 117 776 c 0
322 776 m 0
 322 801 341 819 364 819 c 0
 385 819 407 801 407 776 c 0
 407 751 386 733 364 733 c 0
 338 733 322 754 322 776 c 0
EndSplineSet
Refer: 135 89 S 1 0 0 1 0 0 3
EndChar

StartChar: Zacute
Encoding: 377 377 199
Width: 525
Flags: HW
TeX: 777 0
HStem: -0 53<126 420> 558 53<120 397>
VStem: 59 61<464.635 558> 420 61<53 165.281>
DStem2: 55 55 126 53 0.562265 0.826957<38.2669 608.254>
AnchorPoint: "below" 264 0 basechar 0
AnchorPoint: "above" 264 789 basechar 0
LayerCount: 2
Fore
SplineSet
176 711 m 0
 176 728 189 734 202 739 c 0
 353 800 352 801 363 801 c 0
 381 801 393 785 393 770 c 0
 393 745 385 746 224 681 c 0
 218 678 211 676 204 676 c 0
 181 677 176 707 176 711 c 0
EndSplineSet
Refer: 136 90 S 1 0 0 1 -0 -0 3
EndChar

StartChar: Zcaron
Encoding: 381 381 200
Width: 525
Flags: HW
TeX: 819 0
HStem: 0 53<126 420> 558 53<120 397>
VStem: 59 61<464.635 558> 420 61<53 165.281>
DStem2: 55 55 126 53 0.562265 0.826957<38.2669 608.254>
AnchorPoint: "below" 264 0 basechar 0
AnchorPoint: "above" 264 801 basechar 0
LayerCount: 2
Fore
SplineSet
119 788 m 0
 119 803 130 813 143 813 c 0
 156 813 156 810 268 714 c 1
 380 811 379 813 392 813 c 0
 404 813 416 801 416 788 c 0
 416 776 407 768 402 763 c 0
 279 650 282 649 268 649 c 2
 266 649 l 2
 255 649 254 652 133 763 c 0
 126 770 119 776 119 788 c 0
EndSplineSet
Refer: 136 90 S 1 0 0 1 0 0 3
EndChar

StartChar: Zdotaccent
Encoding: 379 379 201
Width: 525
Flags: HW
TeX: 777 0
HStem: -0 53<126 420> 558 53<120 397> 699 86<248.701 322.176>
VStem: 59 61<464.635 558> 243 85<704.542 779.066> 420 61<53 165.281>
DStem2: 55 55 126 53 0.562265 0.826957<38.2669 608.254>
AnchorPoint: "below" 264 0 basechar 0
AnchorPoint: "above" 264 773 basechar 0
LayerCount: 2
Fore
SplineSet
243 742 m 0
 243 767 262 785 285 785 c 0
 307 785 328 767 328 742 c 0
 328 717 308 699 286 699 c 0
 260 699 243 720 243 742 c 0
EndSplineSet
Refer: 136 90 S 1 0 0 1 0 -0 3
EndChar

StartChar: IJ
Encoding: 306 306 202
Width: 525
Flags: HW
TeX: 611 0
HStem: -8 53<301.304 374.235> 0 53<15.482 74 136 194.579> 558 53<15.4573 74 136 194.518 320.439 393 455 496.635>
VStem: 15 180<1.07827 51.9479 558.969 609.846> 228 78<75.6079 136.139> 393 62<61.9672 558>
LayerCount: 2
Fore
SplineSet
15 27 m 0
 15 51 34 53 49 53 c 2
 74 53 l 1x7c
 74 558 l 1
 48 558 l 2
 33 558 15 562 15 584 c 0
 15 594 19 611 47 611 c 2
 162 611 l 2
 190 611 195 595 195 584 c 0
 195 560 176 558 161 558 c 2
 136 558 l 1
 136 53 l 1
 161 53 l 2
 171 53 195 52 195 27 c 0
 195 2 174 0 163 0 c 2
 47 0 l 2
 41 0 15 1 15 27 c 0
228 99 m 0
 228 125 246 140 267 140 c 0
 288 140 306 125 306 102 c 0
 306 99 306 88 296 75 c 1
 307 55 323 45 338 45 c 0
 364 45 390 73 393 120 c 1
 393 558 l 1xbc
 356 558 l 2
 345 558 320 559 320 585 c 0
 320 592 323 611 351 611 c 2
 466 611 l 2
 493 611 497 594 497 585 c 0
 497 575 493 558 466 558 c 2
 455 558 l 1
 455 137 l 2
 455 29 387 -8 341 -8 c 0
 276 -8 228 46 228 99 c 0
EndSplineSet
Ligature2: "Latin Dutch ligatures subtable" I J
EndChar

StartChar: dcroat
Encoding: 273 273 204
Width: 525
Flags: HW
TeX: 611 0
HStem: -4 53<163.968 314.953 424 507.953> 321 53<169.455 334.281> 439 53<134.481 363 424 508.554> 558 53<278.434 363>
VStem: 40 61<112.122 255.184> 363 61<90.9922 294.284 341 439 492 558>
LayerCount: 2
Fore
SplineSet
40 184 m 0
 40 282 124 374 243 374 c 0
 292 374 331 361 363 341 c 1
 363 439 l 1
 167 439 l 2
 153 439 134 442 134 466 c 0
 135 491 156 492 166 492 c 2
 363 492 l 1
 363 558 l 1
 309 558 l 1
 283 559 278 575 278 585 c 0
 278 598 287 611 311 611 c 2
 389 611 l 2
 414 611 424 605 424 579 c 2
 424 492 l 1
 479 492 l 1
 505 491 509 475 509 466 c 0
 509 457 505 440 479 439 c 1
 424 439 l 1
 424 53 l 1
 478 53 l 2
 505 53 509 34 509 26 c 0
 509 16 505 0 478 -0 c 2
 392 -0 l 2
 378 0 363 6 363 31 c 2
 363 42 l 1
 323 9 275 -4 233 -4 c 0
 120 -4 40 86 40 184 c 0
101 184 m 0
 101 115 156 49 237 49 c 0
 306 49 363 94 363 140 c 2
 363 257 l 1
 364 290 314 321 247 321 c 0
 160 321 101 254 101 184 c 0
EndSplineSet
AlternateSubs2: "Stilistic set 01 subtable" dcroat.vn
AlternateSubs2: "Latin alternatives subtable" dcroat.vn
Substitution2: "Latin Vietnamese substitutions subtable" dcroat.vn
EndChar

StartChar: section
Encoding: 167 167 205
Width: 525
Flags: HW
TeX: 611 222
HStem: -227 53<187.878 342.983> 562 53<181.781 336.224>
VStem: 82 50<151.431 254.847 413.898 518.038> 99 59<-145.122 -73.1667> 366 60<461.167 531.903> 393 50<-129.613 -24.7109 133.644 236.892>
LayerCount: 2
Fore
SplineSet
82 200 m 0
 82 279 144 318 170 331 c 1
 170 332 l 1
 133 353 82 394 82 463 c 0
 82 555 169 615 263 615 c 0
 349 615 426 566 426 494 c 0
 426 471 411 460 396 460 c 0
 383 460 370 468 366 482 c 0
 363 493 369 525 324 548 c 0
 306 557 284 562 261 562 c 0
 199 562 132 525 132 463 c 0xe8
 132 378 266 366 339 329 c 0
 410 293 443 245 443 189 c 0
 443 110 381 71 355 58 c 1
 355 57 l 1
 392 36 443 -5 443 -74 c 0
 443 -166 356 -227 262 -227 c 0
 172 -227 99 -175 99 -106 c 0
 99 -83 114 -72 129 -72 c 0
 142 -72 154 -80 158 -94 c 0xd4
 161 -105 156 -137 201 -160 c 0
 219 -169 240 -174 263 -174 c 0
 337 -174 393 -128 393 -75 c 0
 393 1 278 25 227 43 c 0
 113 84 82 147 82 200 c 0
132 200 m 0
 132 120 278 91 281 91 c 0
 303 91 393 114 393 189 c 0
 393 269 247 298 244 298 c 0xe4
 211 298 132 268 132 200 c 0
EndSplineSet
EndChar

StartChar: abreve
Encoding: 259 259 206
Width: 525
Flags: HW
TeX: 638 0
HStem: -4 53<150.102 324.698 421.083 522.756> 218 52<207.5 359> 384 53<163.928 314.718> 489 55<182.666 357.029>
VStem: 59 62<76.8251 163.278> 87 77<330.181 381.897> 98 53<573.748 638.612> 359 61<79.5719 218 270 340.205> 388 53<573.376 638.564>
AnchorPoint: "below" 231 0 basechar 0
AnchorPoint: "above" 231 619 basechar 0
LayerCount: 2
Fore
SplineSet
98 611 m 0
 98 628 108 639 124 639 c 0
 147 639 150 618 151 611 c 0
 156 557 231 544 270 544 c 0
 322 544 382 563 388 609 c 0
 389 614 389 639 415 639 c 0
 430 639 441 628 441 611 c 0
 441 540 367 489 269 489 c 0xf280
 172 489 98 541 98 611 c 0
EndSplineSet
Refer: 143 97 S 1 0 0 1 0 -0 3
AlternateSubs2: "Stilistic set 01 subtable" abreve.vn
AlternateSubs2: "Latin alternatives subtable" abreve.vn
Substitution2: "Latin Vietnamese substitutions subtable" abreve.vn
EndChar

StartChar: aogonek
Encoding: 261 261 207
Width: 525
Flags: HW
TeX: 430 222
HStem: -231 55<371.758 466.875> -4 53<150.538 324.698 421.738 522.878> 218 52<206.656 359> 384 53<163.572 314.27>
VStem: 59 62<76.4245 163.222> 87 77<329.995 381.228> 300 56<-159.445 -65.9296> 359 61<79.5719 218 270 342.439>
AnchorPoint: "above" 232 437 basechar 0
LayerCount: 2
Fore
SplineSet
59 122 m 0xfb
 59 181 109 264 359 270 c 1
 359 301 357 319 339 341 c 0
 313 372 275 384 232 384 c 0
 207 384 183 383 163 378 c 1
 164 374 164 369 164 365 c 0
 164 342 146 326 126 326 c 0
 102 326 87 346 87 368 c 0xf7
 87 391 102 418 140 429 c 0
 169 437 198 437 232 437 c 0
 347 437 420 372 420 279 c 2
 420 77 l 2
 420 63 420 54 483 53 c 1
 496 53 l 2
 515 53 524 39 524 26 c 0
 524 2 502 0 493 -0 c 2
 473 -0 l 2
 462 0 460 0 445 -9 c 0
 431 -17 356 -63 356 -117 c 0
 356 -153 390 -176 421 -176 c 0
 470 -176 474 -129 500 -129 c 0
 511 -129 527 -139 527 -155 c 0
 527 -174 486 -231 419 -231 c 0
 352 -231 300 -178 300 -119 c 0
 300 -55 356 -7 387 15 c 1
 379 21 371 27 366 36 c 1
 352 26 308 -4 221 -4 c 0
 132 -4 59 46 59 122 c 0xfb
121 122 m 0xfb
 121 78 168 49 227 49 c 0
 271 49 349 63 358 111 c 0
 359 116 359 121 359 126 c 2
 359 218 l 1
 219 216 121 180 121 122 c 0xfb
EndSplineSet
EndChar

StartChar: cacute
Encoding: 263 263 208
Width: 525
Flags: HW
TeX: 611 0
HStem: -4 53<221.43 371.604> 384 53<217.109 376.93> 615 20G<367.5 381>
VStem: 77 61<132.803 300.345> 377 77<330.021 381.374> 403 62<80.2582 132.858>
AnchorPoint: "below" 293 0 basechar 0
AnchorPoint: "above" 300 615 basechar 0
LayerCount: 2
Fore
SplineSet
191 530 m 0
 191 549 192 546 347 627 c 0
 355 631 363 635 372 635 c 0
 390 635 402 620 402 605 c 0
 402 585 385 577 375 572 c 0
 229 496 230 496 221 496 c 0xf0
 203 496 191 518 191 530 c 0
EndSplineSet
Refer: 145 99 S 1 0 0 1 -0 0 3
EndChar

StartChar: dcaron
Encoding: 271 271 210
Width: 525
Flags: HW
TeX: 611 0
HStem: -4 53<146.143 249.986 358 426.682> 382 53<149.517 257.115> 533 107<387.088 438.531> 558 53<227.37 297>
VStem: 28 61<117.26 310.564> 297 61<103.798 339.515 395 558> 377 123<542.41 619.112>
LayerCount: 2
Fore
SplineSet
28 215 m 0
 28 349 115 435 202 435 c 0
 245 435 274 416 297 395 c 1
 297 558 l 1
 259 558 l 2
 247 558 227 560 227 585 c 0
 227 610 248 611 259 611 c 2
 327 611 l 2xde
 352 611 359 596 358 580 c 1
 358 53 l 1
 394 53 l 2
 404 53 428 53 428 27 c 0
 428 2 407 0 396 -0 c 2
 328 -0 l 2
 316 0 297 3 297 32 c 0
 297 36 296 40 296 44 c 1
 277 21 243 -4 195 -4 c 0
 95 -4 28 102 28 215 c 0
89 215 m 0
 89 116 143 49 197 49 c 0
 269 49 298 144 297 181 c 1
 297 275 l 2
 297 310 266 382 205 382 c 0
 151 382 89 319 89 215 c 0
377 586 m 0
 377 616 399 640 431 640 c 0
 472 640 500 603 500 563 c 0
 500 487 433 440 410 440 c 0
 398 440 384 452 384 467 c 0
 384 496 418 485 440 533 c 1
 433 533 l 2xee
 393 533 377 561 377 586 c 0
EndSplineSet
EndChar

StartChar: eogonek
Encoding: 281 281 212
Width: 525
Flags: HW
TeX: 430 222
HStem: -231 55<274.583 368.94> 195 52<123 402> 384 53<197.615 344.529>
VStem: 202 56<-158.634 -64.3529> 401 62<81.012 132.985 247 322.976>
AnchorPoint: "above" 270 437 basechar 0
LayerCount: 2
Fore
SplineSet
59 217 m 0
 59 340 155 437 270 437 c 0
 386 437 464 356 464 225 c 0
 464 196 445 195 431 195 c 2
 122 195 l 1
 139 94 223 49 290 49 c 0
 339 49 384 72 401 110 c 0
 408 125 413 134 432 134 c 2
 433 134 l 2
 454 134 463 124 463 110 c 0
 463 88 440 56 417 37 c 0
 363 -6 258 -47 258 -117 c 0
 258 -152 293 -176 324 -176 c 0
 374 -176 375 -129 402 -129 c 0
 416 -129 429 -140 429 -155 c 0
 429 -178 386 -231 322 -231 c 0
 256 -231 202 -180 202 -120 c 0
 202 -66 243 -23 266 -4 c 1
 244 -1 231 1 206 10 c 0
 136 35 59 108 59 217 c 0
123 247 m 1
 402 247 l 1
 390 366 317 384 270 384 c 0
 211 384 142 344 123 247 c 1
EndSplineSet
EndChar

StartChar: gbreve
Encoding: 287 287 213
Width: 525
Flags: HW
TeX: 638 222
HStem: -227 52<147.639 382.505> 8 50<146.923 397.658> 120 52<172.985 293.796> 383 52<174.279 292.825 368.258 454.227> 489 55<174.396 350.272>
VStem: 29 51<-124.671 -27.9854> 71 62<211.864 343.306> 83 51<67.618 146.338> 90 53<573.031 638.547> 334 61<211.694 341.439> 381 53<572.655 638.564> 444 52<-126.979 -30.876>
LayerCount: 2
Fore
SplineSet
90 611 m 0
 90 628 101 639 117 639 c 0
 138 639 142 621 143 611 c 0
 148 557 224 544 263 544 c 0
 312 544 374 561 381 609 c 0
 382 614 382 639 408 639 c 0
 423 639 434 628 434 611 c 0
 434 538 356 489 262 489 c 0xf8b0
 169 489 90 538 90 611 c 0
EndSplineSet
Refer: 149 103 S 1 0 0 1 0 -0 3
EndChar

StartChar: lacute
Encoding: 314 314 214
Width: 525
Flags: HW
TeX: 777 0
HStem: -0 53<61.5051 231 292 461.515> 558 53<61.5255 231>
VStem: 231 61<53 558>
LayerCount: 2
Fore
SplineSet
157 711 m 0
 157 728 170 734 183 739 c 0
 334 800 333 801 344 801 c 0
 362 801 374 785 374 770 c 0
 374 745 366 746 205 681 c 0
 199 678 192 676 185 676 c 0
 162 677 157 707 157 711 c 0
EndSplineSet
Refer: 154 108 S 1 0 0 1 -0 -0 3
EndChar

StartChar: lcaron
Encoding: 318 318 215
Width: 525
Flags: HW
TeX: 611 0
HStem: 0 53<61.5051 231 292 461.515> 533 107<383.228 434.85> 558 53<61.5255 231>
VStem: 231 61<53 558> 373 122<542.969 619.885>
LayerCount: 2
Fore
SplineSet
349 467 m 0xd8
 349 510 400 470 435 533 c 1
 428 533 l 2
 388 533 373 562 373 586 c 0
 373 614 393 640 427 640 c 0
 470 640 495 601 495 565 c 0
 495 483 422 440 377 440 c 0
 360 440 349 453 349 467 c 0xd8
EndSplineSet
Refer: 154 108 S 1 0 0 1 -0 0 3
EndChar

StartChar: lslash
Encoding: 322 322 216
Width: 525
Flags: HW
TeX: 611 0
HStem: -0 53<61.5051 231 292 461.515> 558 53<61.4349 231>
VStem: 231 61<53 286 399 558>
DStem2: 231 352 231 286 0.797867 0.602833<-171.525 -39.787 77.0031 208.741>
AnchorPoint: "above" 200 611 basechar 0
LayerCount: 2
Fore
SplineSet
61 27 m 0
 61 52 81 53 94 53 c 2
 231 53 l 1
 231 286 l 1
 133 212 134 211 122 211 c 0
 106 211 96 225 96 237 c 0
 96 251 107 258 113 263 c 2
 231 352 l 1
 231 558 l 1
 94 558 l 2
 66 558 61 574 61 585 c 0
 61 596 66 611 94 611 c 2
 259 611 l 2
 293 611 292 590 292 576 c 2
 292 399 l 1
 390 473 389 474 401 474 c 0
 417 474 428 460 428 448 c 0
 428 434 417 427 411 422 c 2
 292 333 l 1
 292 53 l 1
 432 53 l 2
 456 53 462 37 462 26 c 0
 462 15 457 0 429 -0 c 2
 93 -0 l 2
 65 0 61 18 61 27 c 0
EndSplineSet
EndChar

StartChar: eng
Encoding: 331 331 219
Width: 525
Flags: HW
TeX: 430 222
HStem: -226 108<292.625 345.87> -0 53<15.4852 100 161 245.612> 378 53<15.5078 100 214.612 347.668>
VStem: 100 61<53 320.614 377 378> 363 61<-153.676 365.176>
AnchorPoint: "affricate-below" 525 -222 basechar 0
AnchorPoint: "affricate-above" 525 611 basechar 0
AnchorPoint: "below" 262 -222 basechar 0
AnchorPoint: "above" 262 437 basechar 0
LayerCount: 2
Fore
SplineSet
15 26 m 0
 15 37 21 52 45 53 c 1
 100 53 l 1
 100 378 l 1
 46 378 l 2
 19 378 15 395 15 404 c 0
 15 419 26 431 44 431 c 2
 122 431 l 2
 154 431 161 425 161 396 c 0
 161 390 162 383 162 377 c 1
 187 406 234 435 293 435 c 0
 404 435 424 360 424 284 c 2
 424 7 l 2
 424 -88 424 -226 343 -226 c 0
 302 -226 273 -192 273 -158 c 0
 273 -132 292 -118 311 -118 c 0
 322 -118 346 -122 351 -157 c 1
 363 -106 363 -62 363 16 c 2
 363 284 l 2
 363 334 358 382 290 382 c 0
 247 382 161 352 161 234 c 2
 161 53 l 1
 179 53 197 53 215 53 c 0
 242 53 246 36 246 27 c 0
 246 1 224 0 212 -0 c 2
 50 -0 l 2
 41 0 15 -1 15 26 c 0
EndSplineSet
EndChar

StartChar: ohungarumlaut
Encoding: 337 337 220
Width: 525
Flags: HW
TeX: 611 0
HStem: -4 53<195.775 328.626> 384 53<191.429 332.148> 496 139 615 20G<489.5 503>
VStem: 61 61<132.086 307.289> 105 210 402 61<132.514 307.504>
AnchorPoint: "below" 262 0 basechar 0
AnchorPoint: "above" 262 615 basechar 0
LayerCount: 2
Fore
SplineSet
314 530 m 0
 314 549 314 545 470 627 c 0
 478 631 485 635 494 635 c 0xd2
 512 635 524 620 524 605 c 0
 524 585 507 577 497 572 c 0
 351 496 352 496 343 496 c 0xe2
 327 496 314 514 314 530 c 0
EndSplineSet
Refer: 48 180 S 1 0 0 1 -101 0 2
Refer: 157 111 S 1 0 0 1 -0 0 3
EndChar

StartChar: racute
Encoding: 341 341 221
Width: 525
Flags: HW
TeX: 611 0
HStem: 0 53<35.451 156 218 368.532> 378 53<35.3538 156 304.586 415.164> 615 20G<354.5 368>
VStem: 156 62<53 283.159 346 378> 413 74<343.355 381.302>
AnchorPoint: "below" 202 0 basechar 0
AnchorPoint: "above" 246 617 basechar 0
LayerCount: 2
Fore
SplineSet
179 530 m 0
 179 549 180 546 335 627 c 0
 343 631 350 635 359 635 c 0
 377 635 389 620 389 605 c 0
 389 585 372 577 362 572 c 0
 216 496 217 496 208 496 c 0
 190 496 179 518 179 530 c 0
EndSplineSet
Refer: 160 114 S 1 0 0 1 -0 0 3
EndChar

StartChar: sacute
Encoding: 347 347 223
Width: 525
Flags: HW
TeX: 611 0
HStem: -4 53<189.859 377.032> 384 53<147.821 344.815> 615 20G<348.5 362>
VStem: 72 61<-0.894405 40 107.635 175.189> 72 53<289.096 360.567> 366 63<286.189 362.988> 406 53<76.0148 163.916>
AnchorPoint: "below" 270 0 basechar 0
AnchorPoint: "above" 262 615 basechar 0
LayerCount: 2
Fore
SplineSet
72 29 m 2
 72 139 l 2
 72 158 73 176 103 176 c 0
 126 176 131 166 135 151 c 0
 163 51 242 49 268 49 c 2
 271 49 l 2
 331 49 406 58 406 124 c 0xf2
 406 139 399 169 336 189 c 0
 259 213 72 204 72 323 c 0
 72 369 97 437 260 437 c 0
 328 437 360 420 374 412 c 1
 380 425 385 437 403 437 c 0
 416 437 429 429 429 405 c 2
 429 323 l 2
 429 306 431 285 399 285 c 0
 364 285 369 312 366 327 c 0xec
 357 373 309 384 259 384 c 0
 226 384 125 383 125 323 c 0
 125 264 259 261 331 245 c 0
 390 231 459 196 459 123 c 0xea
 459 72 432 -4 271 -4 c 2
 269 -4 l 2
 221 -4 173 6 133 40 c 1
 125 16 121 -4 98 -4 c 0
 77 -4 72 12 72 29 c 2
173 530 m 0
 173 549 174 546 329 627 c 0
 337 631 344 635 353 635 c 0
 371 635 384 620 384 605 c 0
 384 585 367 577 357 572 c 0
 211 496 212 496 203 496 c 0xe0
 185 496 173 518 173 530 c 0
EndSplineSet
EndChar

StartChar: scaron
Encoding: 353 353 224
Width: 525
Flags: HW
TeX: 638 0
HStem: -4 53<189.859 377.208> 384 53<147.821 344.815> 491 148
VStem: 72 61<-0.894405 40 107.635 175.189> 72 53<289.832 360.567> 102 297<601 629> 366 63<286.189 362.988> 406 53<75.9245 165.204>
AnchorPoint: "below" 270 0 basechar 0
AnchorPoint: "above" 262 619 basechar 0
LayerCount: 2
Fore
SplineSet
72 29 m 2
 72 139 l 2
 72 158 73 176 103 176 c 0
 126 176 131 166 135 151 c 0
 163 51 242 49 268 49 c 0xf1
 270 49 272 49 274 49 c 0
 368 49 406 78 406 123 c 0xf1
 406 204 244 197 166 222 c 0
 98 243 72 283 72 323 c 0
 72 369 97 437 260 437 c 0
 328 437 360 420 374 412 c 1
 380 425 385 437 403 437 c 0
 412 437 429 433 429 405 c 2
 429 323 l 2xea
 429 306 431 285 399 285 c 0xe4
 364 285 369 312 366 327 c 0
 357 373 309 384 259 384 c 0
 226 384 125 383 125 323 c 0xea
 125 264 260 262 332 245 c 0
 391 231 459 196 459 123 c 0
 459 72 432 -4 271 -4 c 2
 269 -4 l 2
 221 -4 173 6 133 40 c 1
 125 16 121 -4 98 -4 c 0
 77 -4 72 12 72 29 c 2
EndSplineSet
Refer: 54 711 S 1 0 0 1 -12 0 2
EndChar

StartChar: scedilla
Encoding: 351 351 225
Width: 525
Flags: HW
TeX: 430 194
HStem: -204 53<137.428 319.748> -3 52<187.116 235 296 376.596> 384 53<148.617 344.815>
VStem: 72 61<-0.894405 40 105.567 175.189> 72 53<289.5 360.468> 333 61<-133.928 -76.8946> 366 63<286.189 362.988> 406 53<76.8561 165.199>
LayerCount: 2
Fore
SplineSet
72 29 m 2
 72 139 l 2
 72 158 73 176 103 176 c 0
 126 176 131 166 135 151 c 0
 162 54 232 49 271 49 c 2
 284 49 l 1
 378 51 406 85 406 124 c 0xf5
 406 205 247 197 166 222 c 0
 98 243 72 283 72 323 c 0
 72 369 97 437 260 437 c 0
 328 437 360 420 374 412 c 1
 380 425 385 437 403 437 c 0
 412 437 429 433 429 405 c 2
 429 322 l 2
 429 305 429 285 399 285 c 0
 364 285 369 312 366 327 c 0xea
 357 373 309 384 259 384 c 0
 144 384 125 348 125 324 c 0
 125 272 222 263 305 250 c 0
 385 237 459 199 459 123 c 0
 459 72 429 1 296 -4 c 1
 296 -14 l 1
 344 -22 394 -52 394 -108 c 0
 394 -194 287 -204 182 -204 c 2xed
 166 -204 l 2
 148 -204 137 -193 137 -177 c 0
 137 -163 146 -151 167 -151 c 2
 181 -151 l 1
 223 -150 333 -153 333 -107 c 0
 333 -87 310 -69 272 -65 c 0
 245 -62 235 -62 235 -27 c 2
 235 -3 l 1
 172 5 141 33 133 40 c 1
 125 16 121 -4 98 -4 c 0
 77 -4 72 12 72 29 c 2
EndSplineSet
EndChar

StartChar: tcaron
Encoding: 357 357 226
Width: 525
Flags: HW
TeX: 611 0
HStem: -4 53<230.077 367.98> 378 53<25.4556 157 218 426.624> 437 21G<359.5 382.5> 529 108<359.097 410.191>
VStem: 157 61<63.2928 378 431 553.097> 349 122<538.712 616.177> 388 62<68.944 164.121>
LayerCount: 2
Fore
SplineSet
25 404 m 0
 25 429 47 431 58 431 c 2
 157 431 l 1
 157 521 l 1
 156 546 170 554 186 554 c 2
 187 554 l 2
 216 554 218 534 218 521 c 2
 218 431 l 1
 396 431 l 2
 418 431 427 418 427 405 c 0
 427 397 425 378 396 378 c 2
 218 378 l 1
 218 116 l 2
 218 81 226 49 299 49 c 0
 341 49 388 66 388 115 c 2
 388 128 l 2xfa
 388 139 387 165 417 165 c 2
 419 165 l 2
 451 165 450 141 450 132 c 2
 450 113 l 2
 450 30 370 -4 296 -4 c 0
 164 -4 157 75 157 119 c 2
 157 378 l 1
 60 378 l 2
 51 378 25 378 25 404 c 0
340 463 m 0xfc
 340 499 383 476 411 530 c 1
 409 530 406 529 404 529 c 0
 366 529 349 556 349 583 c 0
 349 610 368 637 403 637 c 0
 442 637 471 601 471 560 c 0
 471 481 398 437 367 437 c 0
 352 437 340 450 340 463 c 0xfc
EndSplineSet
EndChar

StartChar: tcommaaccent
Encoding: 355 355 227
Width: 525
Flags: HW
TeX: 552 194
HStem: -204 53<160.404 368.276> -1 51<231.545 272 334 369.105> 378 53<25.4556 157 218 426.624>
VStem: 157 61<62.9919 378 431 553.279> 384 62<-132.963 -77.4116 68.0054 163.202>
LayerCount: 2
Fore
SplineSet
25 404 m 0
 25 429 47 431 58 431 c 2
 157 431 l 1
 157 521 l 2
 157 539 163 554 186 554 c 0
 187 554 188 554 189 554 c 0
 212 554 218 538 218 521 c 2
 218 431 l 1
 396 431 l 2
 418 431 427 418 427 405 c 0
 427 397 425 378 396 378 c 2
 218 378 l 1
 218 121 l 2
 218 65 239 50 298 50 c 2
 305 50 l 2
 338 50 388 63 388 117 c 2
 388 131 l 2
 388 138 387 165 417 165 c 2
 421 165 l 2
 436 165 450 158 450 133 c 2
 450 117 l 2
 450 22 360 3 334 -1 c 1
 334 -13 l 1
 439 -26 446 -88 446 -107 c 0
 446 -208 281 -203 208 -204 c 1
 192 -204 l 2
 164 -204 160 -187 160 -178 c 0
 160 -153 183 -151 192 -151 c 2
 212 -151 l 1
 313 -149 384 -142 384 -107 c 0
 384 -80 347 -67 309 -64 c 0
 274 -62 272 -52 272 -26 c 2
 272 -3 l 1
 162 6 157 81 157 116 c 2
 157 378 l 1
 60 378 l 2
 51 378 25 378 25 404 c 0
EndSplineSet
EndChar

StartChar: uhungarumlaut
Encoding: 369 369 228
Width: 525
Flags: HW
TeX: 611 0
HStem: -4 53<173.246 319.365 424 507.953> 378 53<15.4611 100 278.436 363> 615 20G<279.5 293 489.5 503>
VStem: 100 61<63.0273 378> 363 61<90.2109 378>
AnchorPoint: "below" 262 0 basechar 0
AnchorPoint: "above" 262 621 basechar 0
LayerCount: 2
Fore
SplineSet
104 530 m 0
 104 549 105 546 260 627 c 0
 268 631 275 635 284 635 c 0
 302 635 315 620 315 605 c 0
 315 585 298 577 288 572 c 0
 142 496 143 496 134 496 c 0
 116 496 104 518 104 530 c 0
314 530 m 0
 314 549 314 545 470 627 c 0
 478 631 485 635 494 635 c 0
 512 635 524 620 524 605 c 0
 524 585 507 577 497 572 c 0
 351 496 352 496 343 496 c 0
 327 496 314 514 314 530 c 0
EndSplineSet
Refer: 163 117 S 1 0 0 1 -0 0 3
EndChar

StartChar: uring
Encoding: 367 367 229
Width: 525
Flags: HW
TeX: 638 0
HStem: -4 53<173.246 319.365 424 507.953> 378 53<15.4611 100 278.436 363> 473 36<224.802 298.687> 612 35<226.544 297.511>
VStem: 100 61<63.0273 378> 154 59<517.492 602.329> 311 59<517.619 603.052> 363 61<90.2109 378>
LayerCount: 2
Fore
SplineSet
154 561 m 0
 154 608 201 647 262 647 c 0
 317 647 370 612 370 560 c 0
 370 510 319 473 262 473 c 0
 196 473 154 517 154 561 c 0
213 560 m 0
 213 534 232 509 262 509 c 0
 292 509 311 534 311 560 c 0
 311 585 292 612 262 612 c 0xf6
 232 612 213 585 213 560 c 0
EndSplineSet
Refer: 163 117 S 1 0 0 1 -0 0 3
EndChar

StartChar: ydieresis
Encoding: 255 255 230
Width: 525
Flags: HW
TeX: 611 222
HStem: -227 54<113.241 174.377> 378 53<24.4349 94 148 214.424 310.53 380 432 500.469> 525 86<122.859 197.458 326.859 401.458>
VStem: 42 76<-169.673 -116.404> 117 86<531.076 605.066> 321 86<530.934 605.066>
DStem2: 148 378 94 378 0.371391 -0.928477<0 340.008> 241 -13 272 -73 0.33435 0.942449<-161.571 38.0058 79.7717 414.972>
AnchorPoint: "below" 262 -222 basechar 0
AnchorPoint: "above" 266 597 basechar 0
LayerCount: 2
Fore
SplineSet
117 568 m 0
 117 593 137 611 160 611 c 0
 182 611 203 593 203 568 c 0xec
 203 543 182 525 160 525 c 0
 134 525 117 546 117 568 c 0
321 568 m 0
 321 593 341 611 364 611 c 0
 386 611 407 593 407 568 c 0
 407 543 386 525 364 525 c 0xe4
 342 525 321 543 321 568 c 0
EndSplineSet
Refer: 167 121 S 1 0 0 1 0 -0 3
EndChar

StartChar: zacute
Encoding: 378 378 231
Width: 525
Flags: HW
TeX: 611 0
HStem: 0 53<124 413> 378 53<110 380> 615 20G<344.5 358>
VStem: 49 61<311.047 378> 413 62<53 131.115>
DStem2: 55 68 124 53 0.723608 0.690211<39.5758 449.138>
AnchorPoint: "below" 254 0 basechar 0
AnchorPoint: "above" 254 621 basechar 0
LayerCount: 2
Fore
SplineSet
169 530 m 0
 169 549 170 546 325 627 c 0
 333 631 340 635 349 635 c 0
 367 635 380 620 380 605 c 0
 380 585 363 577 353 572 c 0
 207 496 208 496 199 496 c 0
 181 496 169 518 169 530 c 0
EndSplineSet
Refer: 168 122 S 1 0 0 1 -0 0 3
EndChar

StartChar: ij
Encoding: 307 307 234
Width: 525
Flags: HW
TeX: 611 222
HStem: -227 54<363.472 391.901> -0 53<41.4614 147 209 303.638> 378 53<47.3616 147 312.372 400> 525 85<128.701 203.458> 525 86<381.607 455.299>
VStem: 123 86<530.824 604.066> 147 62<53 378> 288 77<-171.588 -121.839> 376 85<530.425 605.458> 400 62<-169.61 378>
LayerCount: 2
Fore
SplineSet
41 27 m 0
 41 35 44 53 72 53 c 2
 147 53 l 1
 147 378 l 1
 77 378 l 2
 51 378 47 394 47 404 c 0
 47 429 67 431 80 431 c 2
 180 431 l 2
 210 431 209 405 209 398 c 2
 209 53 l 1xe3
 274 53 l 2
 300 53 304 36 304 26 c 0
 304 18 300 1 274 -0 c 1
 73 -0 l 2
 45 0 41 18 41 27 c 0
288 -158 m 0
 288 -131 308 -118 326 -118 c 0
 346 -118 365 -133 365 -156 c 0
 365 -161 364 -167 362 -172 c 1
 365 -172 367 -173 369 -173 c 0
 394 -173 400 -142 400 -48 c 2
 400 378 l 1
 341 378 l 1
 315 379 312 395 312 404 c 0
 312 413 315 431 342 431 c 2
 429 431 l 2
 443 431 462 428 462 399 c 2
 462 -45 l 2xe140
 462 -115 458 -182 416 -213 c 0
 403 -223 386 -227 370 -227 c 0
 323 -227 288 -195 288 -158 c 0
376 568 m 0
 376 593 395 611 418 611 c 0
 444 611 461 590 461 568 c 0
 461 545 443 525 418 525 c 0xe980
 396 525 376 543 376 568 c 0
EndSplineSet
Refer: 403 183 S 1 0 0 1 -96 348 2
Ligature2: "Latin Dutch ligatures subtable" i j
EndChar

StartChar: exclamdown
Encoding: 161 161 235
Width: 525
Flags: HW
TeX: 388 222
HStem: 281 108<218.846 304.736>
VStem: 208 108<-218.979 43 291.75 377.846> 219 87<-50 199.113>
LayerCount: 2
Fore
SplineSet
208 -174 m 1xc0
 219 167 l 2
 219 180 220 200 248 200 c 2xa0
 274 200 l 2
 309 200 305 174 306 157 c 2xa0
 316 -174 l 1
 316 -211 288 -230 262 -230 c 0
 239 -230 208 -215 208 -174 c 1xc0
EndSplineSet
Refer: 92 46 S 1 0 0 1 0 281 2
EndChar

StartChar: questiondown
Encoding: 191 191 236
Width: 525
Flags: HW
TeX: 388 222
HStem: -227 53<151.694 362.971> 303 85<208.701 283.458>
VStem: 61 62<-147.706 -57.6156> 203 86<308.824 382.066> 212 69<73.5201 214.754> 385 77<-127.393 -67.8614>
LayerCount: 2
Fore
SplineSet
61 -102 m 0
 61 -37 115 -8 125 -1 c 0
 177 35 211 90 212 152 c 1
 212 181 l 2
 212 198 212 216 248 216 c 0
 279 216 281 198 281 183 c 2xec
 281 160 l 2
 281 18 162 -39 140 -61 c 0
 129 -72 123 -86 123 -102 c 0
 123 -131 142 -174 246 -174 c 0
 346 -174 378 -148 394 -128 c 1
 384 -115 385 -105 385 -102 c 0
 385 -79 402 -64 423 -64 c 0
 444 -64 462 -79 462 -105 c 0
 462 -154 430 -227 242 -227 c 0
 97 -227 61 -152 61 -102 c 0
EndSplineSet
Refer: 403 183 S 1 0 0 1 -16 126 2
EndChar

StartChar: sterling
Encoding: 163 163 237
Width: 525
Flags: HW
TeX: 611 0
HStem: -4 53<104.225 155.906 310.316 422.554> 66 56<104.747 156.739> 279 53<112.426 197 258 365.511> 564 53<292.736 385.448>
VStem: 197 61<115.924 279 332 525.904> 401 77<424.061 487.531> 438 63<63.9663 146.018>
LayerCount: 2
Fore
SplineSet
45 52 m 0
 45 93 84 122 139 122 c 0
 156 122 174 119 191 115 c 1
 194 130 197 146 197 164 c 2
 197 279 l 1
 141 279 l 1
 117 280 112 295 112 306 c 0
 112 319 121 332 141 332 c 2
 197 332 l 1
 197 448 l 2
 197 580 289 617 341 617 c 0
 433 617 478 526 478 462 c 0
 478 427 452 420 439 420 c 0
 419 420 401 437 401 458 c 0xfc
 401 468 405 478 414 488 c 1
 401 540 372 564 341 564 c 0
 308 564 258 532 258 450 c 2
 258 332 l 1
 335 332 l 2
 363 332 366 314 366 306 c 0
 366 295 360 279 335 279 c 2
 258 279 l 1
 258 163 l 2
 258 138 255 115 248 96 c 1
 282 83 344 52 384 52 c 0
 419 52 434 83 438 105 c 0xfa
 441 118 436 147 469 147 c 2
 472 147 l 2
 485 147 501 141 501 119 c 0xfa
 501 65 460 -4 383 -4 c 0
 325 -4 262 29 219 46 c 1
 178 -2 125 -4 115 -4 c 0
 76 -4 45 18 45 52 c 0
104 51 m 1
 108 50 114 49 118 49 c 0
 132 49 145 55 157 64 c 1
 150 65 144 66 137 66 c 0xf8
 111 66 105 53 104 51 c 1
EndSplineSet
EndChar

StartChar: Agrave
Encoding: 192 192 238
Width: 525
Flags: HW
TeX: 777 0
HStem: 0 53<27.4373 89.9482 148 205.631 319.369 376 433.764 496.596> 176 53<191 334> 604 20<242 287.5>
DStem2: 85 53 148 53 0.234818 0.972039<14.7936 141.399 195.97 524.901> 313 578 263 550 0.233373 -0.972387<15.5582 344.264 398.834 525.206>
AnchorPoint: "below" 262 0 basechar 0
AnchorPoint: "above" 262 776 basechar 0
LayerCount: 2
Fore
SplineSet
112 770 m 0
 112 783 122 801 142 801 c 2
 143 801 l 2
 152 801 151 800 301 739 c 0
 311 735 329 728 329 711 c 0
 329 705 324 676 301 676 c 2
 300 676 l 2
 295 676 291 677 143 737 c 0
 128 743 112 750 112 770 c 0
EndSplineSet
Refer: 111 65 S 1 0 0 1 0 -0 3
AlternateSubs2: "Stilistic set 01 subtable" Agrave.vn
AlternateSubs2: "Latin alternatives subtable" Agrave.vn
Substitution2: "Latin Vietnamese substitutions subtable" Agrave.vn
EndChar

StartChar: Aacute
Encoding: 193 193 239
Width: 525
Flags: HW
TeX: 777 0
HStem: 0 53<27.4373 89.9482 148 205.631 319.369 376 433.764 496.596> 176 53<191 334> 604 20<242 287.5>
DStem2: 85 53 148 53 0.234818 0.972039<14.7936 141.399 195.97 524.901> 313 578 263 550 0.233373 -0.972387<15.5582 344.264 398.834 525.206>
AnchorPoint: "below" 262 0 basechar 0
AnchorPoint: "above" 262 776 basechar 0
LayerCount: 2
Fore
SplineSet
206 711 m 0
 206 728 219 734 232 739 c 0
 383 800 382 801 393 801 c 0
 411 801 423 785 423 770 c 0
 423 745 415 746 254 681 c 0
 248 678 241 676 234 676 c 0
 211 677 206 707 206 711 c 0
EndSplineSet
Refer: 111 65 S 1 0 0 1 -0 -0 3
AlternateSubs2: "Stilistic set 01 subtable" Aacute.vn
AlternateSubs2: "Latin alternatives subtable" Aacute.vn
Substitution2: "Latin Vietnamese substitutions subtable" Aacute.vn
EndChar

StartChar: Acircumflex
Encoding: 194 194 240
Width: 525
Flags: HW
TeX: 819 0
HStem: 0 53<27.4373 89.9482 148 205.631 319.369 376 433.764 496.596> 176 53<191 334> 604 20<242 287.5>
DStem2: 85 53 148 53 0.234818 0.972039<14.7936 141.399 195.97 524.901> 313 578 263 550 0.233373 -0.972387<15.5582 344.264 398.834 525.206>
AnchorPoint: "below" 262 0 basechar 0
AnchorPoint: "above" 262 798 basechar 0
LayerCount: 2
Fore
SplineSet
95 685 m 0
 95 701 98 699 232 812 c 0
 239 817 245 823 254 823 c 2
 257 823 l 2
 267 823 269 820 399 710 c 0
 404 705 414 698 414 685 c 0
 414 672 398 652 382 652 c 0
 369 652 367 656 254 758 c 1
 244 748 233 739 149 663 c 0
 144 659 137 652 127 652 c 0
 111 652 95 671 95 685 c 0
EndSplineSet
Refer: 111 65 S 1 0 0 1 0 0 3
AlternateSubs2: "Stilistic set 01 subtable" Acircumflex.vn
AlternateSubs2: "Latin alternatives subtable" Acircumflex.vn
Substitution2: "Latin Vietnamese substitutions subtable" Acircumflex.vn
EndChar

StartChar: Adieresis
Encoding: 196 196 242
Width: 525
Flags: HW
TeX: 819 0
HStem: 0 53<27.4373 89.9482 148 205.631 319.369 376 433.764 496.596> 176 53<191 334> 604 20<242 287.5> 733 86<122.701 197.458 327.607 400.924>
VStem: 117 86<739.076 813.066> 322 85<739.076 813.066>
DStem2: 85 53 148 53 0.234818 0.972039<14.7936 141.399 195.97 524.901> 313 578 263 550 0.233373 -0.972387<15.5582 344.264 398.834 525.206>
AnchorPoint: "below" 262 0 basechar 0
AnchorPoint: "above" 262 794 basechar 0
LayerCount: 2
Fore
SplineSet
117 776 m 0
 117 801 138 819 160 819 c 0
 182 819 203 801 203 776 c 0
 203 751 182 733 160 733 c 0
 134 733 117 754 117 776 c 0
322 776 m 0
 322 801 341 819 364 819 c 0
 385 819 407 801 407 776 c 0
 407 751 386 733 364 733 c 0
 338 733 322 754 322 776 c 0
EndSplineSet
Refer: 111 65 S 1 0 0 1 0 0 3
EndChar

StartChar: Aring
Encoding: 197 197 243
Width: 525
Flags: HW
TeX: 777 0
HStem: 0 53<27.4373 85 148 205.631 319.369 376 439 496.596> 176 53<191 334> 774 54<214.082 295.314>
VStem: 138 58<641.504 757.571> 313 58<640.456 755.868>
DStem2: 85 53 148 53 0.23428 0.972169<14.7596 141.365 195.935 524.87> 311 587 263 550 0.233097 -0.972453<24.7921 353.5 408.07 534.441>
LayerCount: 2
Fore
SplineSet
27 27 m 0
 27 52 49 53 61 53 c 2
 85 53 l 1
 212 580 l 1
 169 598 138 644 138 699 c 0
 138 776 196 828 255 828 c 0
 319 828 371 770 371 699 c 0
 371 651 349 609 311 587 c 1
 439 53 l 1
 464 53 l 2
 474 53 497 52 497 27 c 0
 497 2 476 0 465 0 c 2
 351 0 l 2
 323 0 319 15 319 26 c 0
 319 50 338 53 352 53 c 2
 376 53 l 1
 347 176 l 1
 178 176 l 1
 148 53 l 1
 173 53 l 2
 189 53 206 49 206 26 c 0
 206 15 202 0 174 0 c 2
 59 0 l 2
 52 0 27 0 27 27 c 0
191 229 m 1
 334 229 l 1
 304 357 266 518 263 550 c 1
 236 422 l 1
 191 229 l 1
196 699 m 0
 196 654 225 624 255 624 c 0
 285 624 313 655 313 699 c 0
 313 744 284 774 254 774 c 0
 224 774 196 743 196 699 c 0
EndSplineSet
EndChar

StartChar: AE
Encoding: 198 198 244
Width: 525
Flags: HW
TeX: 611 0
HStem: -0 53<22.3693 70 121 166.539 224.59 264 314 450> 191 53<160 264> 290 53<314 474.645> 558 53<133.497 174 225 264 314 442>
VStem: 264 50<53 191 244 290 343 558> 442 50<464.372 558> 450 50<53 162.775>
DStem2: 70 53 121 53 0.201708 0.979446<10.2871 151.098 205.228 515.598>
AnchorPoint: "below" 261 0 basechar 0
AnchorPoint: "above" 289 619 basechar 0
LayerCount: 2
Fore
SplineSet
22 27 m 0
 22 36 26 53 54 53 c 2
 70 53 l 1
 174 558 l 1
 166 558 l 2
 139 558 133 574 133 585 c 0
 133 598 141 611 164 611 c 2
 460 611 l 2
 493 611 492 588 492 577 c 2
 492 498 l 2
 492 474 480 464 468 464 c 0
 461 464 443 467 442 494 c 1
 442 558 l 1
 314 558 l 1
 314 343 l 1
 438 343 l 2
 455 343 475 343 475 317 c 0
 475 292 455 290 442 290 c 2xfc
 314 290 l 1
 314 53 l 1
 450 53 l 1
 450 130 l 2
 450 145 453 163 475 163 c 0
 483 163 500 159 500 132 c 2
 500 36 l 2xfa
 500 26 502 0 471 -0 c 2
 254 -0 l 1
 228 1 224 18 224 26 c 0
 224 39 234 53 253 53 c 2
 264 53 l 1
 264 191 l 1
 149 191 l 1
 121 53 l 1
 136 53 l 2
 164 53 167 34 167 26 c 0
 167 18 164 0 136 -0 c 2
 53 -0 l 1
 26 1 22 17 22 27 c 0
160 244 m 1
 264 244 l 1xf8
 264 558 l 1
 225 558 l 1
 160 244 l 1
EndSplineSet
EndChar

StartChar: Ccedilla
Encoding: 199 199 245
Width: 525
Flags: HW
TeX: 611 194
HStem: -204 53<163.371 326.268> 566 53<214.044 352.905>
VStem: 40 61<185.868 425.377> 338 61<-136.587 -74.9603> 409 75<410.429 513.047> 422 62<106.203 197.416 566 615.13>
AnchorPoint: "above" 282 619 basechar 0
LayerCount: 2
Fore
SplineSet
40 306 m 0
 40 476 144 619 282 619 c 0
 340 619 379 597 417 566 c 1
 432 604 438 619 458 619 c 0
 486 619 484 592 484 583 c 2xf4
 484 442 l 2
 484 425 484 404 453 404 c 0
 414 404 429 430 409 477 c 0xf8
 392 516 351 566 284 566 c 0
 195 566 101 462 101 306 c 0
 101 165 182 45 286 45 c 0
 347 45 416 89 422 167 c 0
 423 181 427 198 451 198 c 2xf4
 455 198 l 2
 479 198 484 182 484 166 c 0
 484 93 417 4 304 -7 c 1
 310 -15 l 1
 352 -24 399 -52 399 -108 c 0
 399 -202 281 -204 201 -204 c 2
 195 -204 l 2
 168 -204 163 -187 163 -178 c 0
 163 -153 184 -151 197 -151 c 0
 203 -151 209 -151 215 -151 c 0
 257 -151 338 -150 338 -108 c 0
 338 -82 309 -68 290 -65 c 0
 274 -62 250 -67 250 -33 c 0
 250 -25 252 -15 258 -7 c 1
 136 11 40 138 40 306 c 0
EndSplineSet
EndChar

StartChar: Eacute
Encoding: 201 201 247
Width: 525
Flags: HW
TeX: 777 0
HStem: -0 53<30.3935 101 162 441> 290 53<162 302> 558 53<30.4551 101 162 420>
VStem: 101 61<53 290 343 558> 302 61<234.601 290 343 399.318> 420 61<464.682 558> 441 62<53 162.281>
AnchorPoint: "below" 267 0 basechar 0
AnchorPoint: "above" 267 789 basechar 0
LayerCount: 2
Fore
SplineSet
203 711 m 0xfc
 203 728 216 734 229 739 c 0
 380 800 379 801 390 801 c 0
 408 801 420 785 420 770 c 0
 420 745 413 746 252 681 c 0
 246 678 239 676 232 676 c 2
 231 676 l 1
 208 677 203 707 203 711 c 0xfc
EndSplineSet
Refer: 115 69 S 1 0 0 1 -0 -0 3
AlternateSubs2: "Stilistic set 01 subtable" Eacute.vn
AlternateSubs2: "Latin alternatives subtable" Eacute.vn
Substitution2: "Latin Vietnamese substitutions subtable" Eacute.vn
EndChar

StartChar: Ecircumflex
Encoding: 202 202 248
Width: 525
Flags: HW
TeX: 819 0
HStem: 0 53<30.3935 101 162 441> 290 53<162 302> 558 53<30.4551 101 162 420>
VStem: 101 61<53 290 343 558> 302 61<234.601 290 343 399.318> 420 61<464.682 558> 441 62<53 162.281>
AnchorPoint: "below" 267 0 basechar 0
AnchorPoint: "above" 267 811 basechar 0
LayerCount: 2
Fore
SplineSet
103 685 m 0
 103 698 113 705 118 710 c 0
 255 825 249 823 262 823 c 2
 265 823 l 2
 275 823 277 820 407 710 c 0
 412 705 422 698 422 685 c 0
 422 672 406 652 390 652 c 0
 377 652 375 656 262 758 c 1
 252 748 241 739 157 663 c 0
 152 659 145 652 135 652 c 0xf8
 120 652 103 670 103 685 c 0
EndSplineSet
Refer: 115 69 S 1 0 0 1 -0 0 3
AlternateSubs2: "Stilistic set 01 subtable" Ecircumflex.vn
AlternateSubs2: "Latin alternatives subtable" Ecircumflex.vn
Substitution2: "Latin Vietnamese substitutions subtable" Ecircumflex.vn
EndChar

StartChar: Edieresis
Encoding: 203 203 249
Width: 525
Flags: HW
TeX: 819 0
HStem: -0 53<30.3935 101 162 441> 290 53<162 302> 558 53<30.4551 101 162 420> 733 86<122.701 197.458 327.607 400.924>
VStem: 101 61<53 290 343 558> 117 86<739.076 813.066> 302 61<234.601 290 343 399.318> 322 85<739.076 813.066> 420 61<464.682 558> 441 62<53 162.281>
AnchorPoint: "below" 267 0 basechar 0
AnchorPoint: "above" 267 807 basechar 0
LayerCount: 2
Fore
SplineSet
117 776 m 0
 117 801 138 819 160 819 c 0
 182 819 203 801 203 776 c 0xf4
 203 751 182 733 160 733 c 0
 134 733 117 754 117 776 c 0
322 776 m 0
 322 801 341 819 364 819 c 0
 385 819 407 801 407 776 c 0
 407 751 386 733 364 733 c 0xf1
 338 733 322 754 322 776 c 0
EndSplineSet
Refer: 115 69 S 1 0 0 1 0 -0 3
EndChar

StartChar: Iacute
Encoding: 205 205 251
Width: 525
Flags: HW
TeX: 777 0
HStem: -0 53<83.529 232 293 440.544> 558 53<83.456 232 293 440.496>
VStem: 232 61<53 558>
AnchorPoint: "below" 262 0 basechar 0
AnchorPoint: "above" 262 789 basechar 0
LayerCount: 2
Fore
SplineSet
170 711 m 0
 170 728 183 734 196 739 c 0
 347 800 346 801 357 801 c 0
 375 801 387 785 387 770 c 0
 387 745 380 746 219 681 c 0
 213 678 206 676 199 676 c 2
 198 676 l 1
 175 677 170 707 170 711 c 0
EndSplineSet
Refer: 119 73 S 1 0 0 1 -0 -0 3
AlternateSubs2: "Stilistic set 01 subtable" Iacute.vn
AlternateSubs2: "Latin alternatives subtable" Iacute.vn
Substitution2: "Latin Vietnamese substitutions subtable" Iacute.vn
EndChar

StartChar: Icircumflex
Encoding: 206 206 252
Width: 525
Flags: HW
TeX: 819 0
HStem: 0 53<83.529 232 293 440.544> 558 53<83.456 232 293 440.496>
VStem: 232 61<53 558>
AnchorPoint: "below" 262 0 basechar 0
AnchorPoint: "above" 262 811 basechar 0
LayerCount: 2
Fore
SplineSet
103 685 m 0
 103 698 113 705 118 710 c 0
 255 825 249 823 262 823 c 2
 265 823 l 2
 275 823 277 820 407 710 c 0
 412 705 422 698 422 685 c 0
 422 672 406 652 390 652 c 0
 377 652 375 656 262 758 c 1
 252 748 241 739 157 663 c 0
 152 659 145 652 135 652 c 0
 120 652 103 670 103 685 c 0
EndSplineSet
Refer: 119 73 S 1 0 0 1 -0 0 3
EndChar

StartChar: Eth
Encoding: 208 208 254
Width: 525
Flags: HW
TeX: 611 0
HStem: -0 53<23.4349 86 147 323.543> 273 53<23.4551 86 147 296.624> 558 53<23.4349 86 147 318.955>
VStem: 86 61<53 273 326 558> 424 62<179.869 426.208>
LayerCount: 2
Fore
SplineSet
23 26 m 0
 23 51 47 53 55 53 c 2
 86 53 l 1
 86 273 l 1
 57 273 l 2
 49 273 23 274 23 300 c 0
 23 325 45 326 54 326 c 2
 86 326 l 1
 86 558 l 1
 57 558 l 2
 47 558 23 558 23 584 c 0
 23 595 28 611 56 611 c 2
 266 611 l 2
 398 611 486 466 486 300 c 0
 486 141 398 0 266 -0 c 2
 56 -0 l 2
 28 0 23 15 23 26 c 0
147 53 m 1
 247 53 l 2
 373 53 424 194 424 300 c 0
 424 427 364 558 247 558 c 2
 147 558 l 1
 147 326 l 1
 224 326 l 2
 233 326 243 327 252 327 c 0
 276 327 297 324 297 300 c 0
 297 275 276 273 262 273 c 2
 147 273 l 1
 147 53 l 1
EndSplineSet
EndChar

StartChar: Ograve
Encoding: 210 210 256
Width: 525
Flags: HW
TeX: 777 0
HStem: -8 53<130.717 394> 566 53<130.666 392.067>
VStem: 56 61<88.8334 551.634> 407 61<83.0982 552.262>
AnchorPoint: "above" 259 781 basechar 0
LayerCount: 2
Fore
SplineSet
56 209 m 2
 56 402 l 1
 57 442 58 514 64 558 c 0
 71 605 69 618 258 619 c 0
 363 619 431 616 449 594 c 0
 466 573 468 428 468 402 c 2
 468 209 l 1
 467 114 462 35 450 18 c 0
 435 -3 377 -8 266 -8 c 2
 252 -8 l 2
 155 -8 92 -4 75 16 c 0
 61 32 56 102 56 209 c 2
117 315 m 2
 117 113 122 76 132 64 c 0
 147 46 199 45 253 45 c 2
 265 45 l 2
 385 45 394 57 399 81 c 0
 407 125 407 218 407 309 c 2
 407 351 l 2
 407 373 406 373 406 388 c 2
 406 404 l 1
 404 482 403 534 392 548 c 0
 380 562 351 565 276 566 c 1
 252 566 l 2
 125 566 128 554 123 515 c 0
 119 479 119 442 118 404 c 1
 118 388 l 2
 118 374 117 374 117 353 c 2
 117 315 l 2
128 770 m 0
 128 787 143 801 158 801 c 2
 159 801 l 2
 168 801 167 800 317 739 c 0
 327 735 345 728 345 711 c 0
 345 705 339 676 316 676 c 0
 311 676 307 677 158 737 c 0
 143 743 128 750 128 770 c 0
EndSplineSet
AlternateSubs2: "Stilistic set 01 subtable" Ograve.vn
AlternateSubs2: "Latin alternatives subtable" Ograve.vn
Substitution2: "Latin Vietnamese substitutions subtable" Ograve.vn
EndChar

StartChar: Oacute
Encoding: 211 211 257
Width: 525
Flags: HW
TeX: 777 0
HStem: -8 53<130.717 394> 566 53<130.666 392.067>
VStem: 56 61<88.8334 551.634> 407 61<83.0982 552.262>
AnchorPoint: "above" 259 781 basechar 0
LayerCount: 2
Fore
SplineSet
56 209 m 2
 56 402 l 1
 57 442 58 514 64 558 c 0
 71 605 69 618 258 619 c 0
 363 619 431 616 449 594 c 0
 466 573 468 428 468 402 c 2
 468 209 l 1
 467 114 462 35 450 18 c 0
 435 -3 377 -8 266 -8 c 2
 252 -8 l 2
 155 -8 92 -4 75 16 c 0
 61 32 56 102 56 209 c 2
117 315 m 2
 117 113 122 76 132 64 c 0
 147 46 199 45 253 45 c 2
 265 45 l 2
 385 45 394 57 399 81 c 0
 407 125 407 218 407 309 c 2
 407 351 l 2
 407 373 406 373 406 388 c 2
 406 404 l 1
 404 482 403 534 392 548 c 0
 380 562 351 565 276 566 c 1
 252 566 l 2
 125 566 128 554 123 515 c 0
 119 479 119 442 118 404 c 1
 118 388 l 2
 118 374 117 374 117 353 c 2
 117 315 l 2
179 711 m 0
 179 728 192 734 205 739 c 0
 356 800 355 801 366 801 c 0
 384 801 396 785 396 770 c 0
 396 745 389 746 228 681 c 0
 222 678 215 676 208 676 c 2
 207 676 l 1
 184 677 179 707 179 711 c 0
EndSplineSet
AlternateSubs2: "Stilistic set 01 subtable" Oacute.vn
AlternateSubs2: "Latin alternatives subtable" Oacute.vn
Substitution2: "Latin Vietnamese substitutions subtable" Oacute.vn
EndChar

StartChar: Ocircumflex
Encoding: 212 212 258
Width: 525
Flags: HW
TeX: 819 0
HStem: -8 53<160.968 364.241> 566 53<156.144 365.062>
VStem: 56 61<98.2567 522.45> 407 61<94.8687 519.86>
AnchorPoint: "below" 274 0 basechar 0
AnchorPoint: "above" 259 803 basechar 0
LayerCount: 2
Fore
SplineSet
103 685 m 0
 103 698 113 705 118 710 c 0
 255 825 249 823 262 823 c 2
 264 823 l 2
 274 823 276 820 406 710 c 0
 411 705 421 698 421 685 c 0
 421 672 405 652 389 652 c 0
 376 652 375 656 262 758 c 1
 252 748 241 739 157 663 c 0
 152 659 145 652 135 652 c 0
 120 652 103 670 103 685 c 0
EndSplineSet
Refer: 125 79 S 1 0 0 1 0 0 3
AlternateSubs2: "Stilistic set 01 subtable" Ocircumflex.vn
AlternateSubs2: "Latin alternatives subtable" Ocircumflex.vn
Substitution2: "Latin Vietnamese substitutions subtable" Ocircumflex.vn
EndChar

StartChar: OE
Encoding: 338 338 261
Width: 525
Flags: HW
TeX: 611 0
HStem: -8 53<116.708 247.551> -0 53<312 453> 290 53<312 480.613> 558 53<312 446> 566 53<115.145 246.805>
VStem: 29 50<97.4697 524.826> 262 50<56.8225 290 343 552.626> 446 50<464.262 558> 453 50<53 162.697>
AnchorPoint: "above" 287 619 basechar 0
LayerCount: 2
Fore
SplineSet
29 303 m 2
 29 350 l 1
 34 566 40 619 193 619 c 0xae80
 239 619 255 611 296 611 c 2
 463 611 l 2
 497 611 496 589 496 576 c 2
 496 493 l 2
 496 471 481 464 471 464 c 0
 465 464 447 467 446 494 c 1
 446 558 l 1x37
 312 558 l 1
 312 343 l 1
 449 343 l 2
 459 343 481 342 481 317 c 0
 481 292 460 290 448 290 c 2
 312 290 l 1
 312 53 l 1
 453 53 l 1
 453 129 l 2
 453 146 456 163 478 163 c 0
 485 163 503 159 503 131 c 2
 503 33 l 2
 503 1 484 0 470 -0 c 2
 299 -0 l 2x7680
 241 0 246 -8 194 -8 c 0
 43 -8 29 36 29 303 c 2
79 312 m 0
 79 168 84 98 111 71 c 0
 134 48 174 45 200 45 c 0
 258 45 262 79 262 208 c 2
 262 403 l 1
 261 517 264 566 199 566 c 0
 96 566 79 536 79 342 c 0xae
 79 332 79 322 79 312 c 0
EndSplineSet
EndChar

StartChar: Oslash
Encoding: 216 216 262
Width: 525
Flags: HW
TeX: 666 55
HStem: -8 53<199 374.766> 566 53<150.189 325>
VStem: 56 50<93.25 512.275> 418 50<92.412 518.124>
DStem2: 128 9 180 -5 0.335255 0.942128<-66.4679 4.04805 60.7416 587.788 644.286 714.998>
LayerCount: 2
Fore
SplineSet
56 296 m 2
 56 314 l 2
 56 587 78 619 255 619 c 2
 265 619 l 1
 320 618 313 619 344 616 c 1
 365 675 367 691 389 691 c 0
 403 691 416 680 416 666 c 0
 416 654 408 640 396 602 c 1
 460 573 468 494 468 315 c 2
 468 297 l 2
 468 24 446 -8 269 -8 c 2
 259 -8 l 2
 227 -8 211 -8 180 -5 c 1
 159 -64 157 -81 135 -81 c 0
 120 -81 108 -68 108 -55 c 0
 108 -43 116 -29 128 9 c 1
 66 37 56 110 56 296 c 2
106 303 m 2
 106 122 121 88 149 66 c 1
 325 563 l 1
 307 566 286 566 266 566 c 2
 260 566 l 2
 121 566 106 538 106 312 c 2
 106 303 l 2
199 48 m 1
 217 45 237 45 257 45 c 2
 264 45 l 2
 406 45 418 73 418 308 c 0
 418 493 403 520 375 545 c 1
 199 48 l 1
EndSplineSet
EndChar

StartChar: Uacute
Encoding: 218 218 264
Width: 525
Flags: HW
TeX: 777 0
HStem: -8 53<201.693 322.355> 558 53<8.35381 79 140 209.597 314.434 385 446 515.597>
VStem: 79 61<115.188 558> 385 61<116.848 558>
AnchorPoint: "below" 262 0 basechar 0
AnchorPoint: "above" 262 789 basechar 0
LayerCount: 2
Fore
SplineSet
203 711 m 0
 203 728 216 734 229 739 c 0
 380 800 379 801 390 801 c 0
 408 801 420 785 420 770 c 0
 420 745 413 746 252 681 c 0
 246 678 239 676 232 676 c 2
 231 676 l 1
 208 677 203 707 203 711 c 0
EndSplineSet
Refer: 131 85 S 1 0 0 1 -0 -0 3
AlternateSubs2: "Stilistic set 01 subtable" Uacute.vn
AlternateSubs2: "Latin alternatives subtable" Uacute.vn
Substitution2: "Latin Vietnamese substitutions subtable" Uacute.vn
EndChar

StartChar: Ucircumflex
Encoding: 219 219 265
Width: 525
Flags: HW
TeX: 819 0
HStem: -8 53<201.693 322.355> 558 53<8.35381 79 140 209.597 314.434 385 446 515.597>
VStem: 79 61<115.188 558> 385 61<116.848 558>
AnchorPoint: "below" 262 0 basechar 0
AnchorPoint: "above" 262 811 basechar 0
LayerCount: 2
Fore
SplineSet
103 685 m 0
 103 697 111 704 118 710 c 0
 255 825 249 823 262 823 c 2
 265 823 l 2
 275 823 277 820 407 710 c 0
 414 703 422 698 422 685 c 0
 422 674 408 652 390 652 c 0
 377 652 375 655 262 758 c 1
 252 748 241 739 157 663 c 0
 152 659 145 652 135 652 c 0
 119 652 103 671 103 685 c 0
EndSplineSet
Refer: 131 85 S 1 0 0 1 -0 -0 3
EndChar

StartChar: Udieresis
Encoding: 220 220 266
Width: 525
Flags: HW
TeX: 819 0
HStem: -8 53<201.693 322.355> 558 53<8.35381 79 140 209.597 314.434 385 446 515.597> 733 86<123.207 196.959 327.31 401.066>
VStem: 79 61<115.188 558> 117 86<738.934 813.066> 322 85<738.425 813.066> 385 61<116.848 558>
AnchorPoint: "below" 262 0 basechar 0
AnchorPoint: "above" 262 807 basechar 0
LayerCount: 2
Fore
SplineSet
117 776 m 0
 117 797 135 819 160 819 c 0
 182 819 203 801 203 776 c 0xe8
 203 751 182 733 161 733 c 0
 136 733 117 753 117 776 c 0
322 776 m 0
 322 801 342 819 364 819 c 0
 385 819 407 801 407 776 c 0
 407 753 389 733 364 733 c 0xe4
 342 733 322 751 322 776 c 0
EndSplineSet
Refer: 131 85 S 1 0 0 1 0 -0 3
EndChar

StartChar: Yacute
Encoding: 221 221 267
Width: 525
Flags: HW
TeX: 777 0
HStem: -0 53<166.438 232 293 357.59> 558 53<17.5776 77 146 193.609 331.37 379 447 506.544>
VStem: 232 61<53 244>
DStem2: 146 558 77 558 0.440338 -0.897832<0 270.167> 379 558 447 558 0.441201 0.897408<-270.162 0>
AnchorPoint: "below" 262 0 basechar 0
AnchorPoint: "above" 262 789 basechar 0
LayerCount: 2
Fore
SplineSet
206 711 m 0
 206 728 219 734 232 739 c 0
 383 800 382 801 393 801 c 0
 411 801 423 785 423 770 c 0
 423 745 415 746 254 681 c 0
 248 678 241 676 234 676 c 0
 211 677 206 707 206 711 c 0
EndSplineSet
Refer: 135 89 S 1 0 0 1 -0 -0 3
AlternateSubs2: "Stilistic set 01 subtable" Yacute.vn
AlternateSubs2: "Latin alternatives subtable" Yacute.vn
Substitution2: "Latin Vietnamese substitutions subtable" Yacute.vn
EndChar

StartChar: Thorn
Encoding: 222 222 268
Width: 525
Flags: HW
TeX: 611 0
HStem: 0 53<35.3702 112 174 250.578> 159 53<174 353.551> 450 53<174 356.852> 558 53<35.4349 112 174 250.63>
VStem: 112 62<53 159 212 450 503 558> 416 61<267.418 395.83>
LayerCount: 2
Fore
SplineSet
35 26 m 0
 35 51 56 53 68 53 c 2
 112 53 l 1
 112 558 l 1
 68 558 l 2
 40 558 35 574 35 585 c 0
 35 594 39 611 67 611 c 2
 218 611 l 2
 230 611 251 609 251 584 c 0
 251 560 230 558 218 558 c 2
 174 558 l 1
 174 503 l 1
 289 503 l 2
 425 503 477 402 477 331 c 0
 477 244 406 159 296 159 c 2
 174 159 l 1
 174 53 l 1
 215 53 l 2
 227 53 251 52 251 26 c 0
 251 15 246 0 218 0 c 2
 67 0 l 2
 39 0 35 17 35 26 c 0
174 212 m 1
 268 212 l 2
 376 212 416 283 416 331 c 0
 416 378 379 450 279 450 c 2
 174 450 l 1
 174 212 l 1
EndSplineSet
EndChar

StartChar: Germandbls
Encoding: 61699 61699 269
Width: 525
Flags: HW
TeX: 611 0
HStem: -8 21G<47.5 69.5 134 179 309.5 331.5 397 442> 599 20G<83 124 177.5 197.5 345.5 387 440.5 460.5>
VStem: 35 61<57.1861 202.119 355.831 563.751> 141 69<410.914 563.775> 171 56<48.8733 276.279> 297 62<56.4465 202.091 355.831 563.751> 403 69<411.304 563.775> 433 57<48.8733 276.279>
LayerCount: 2
Fore
SplineSet
35 27 m 2
 35 170 l 2
 35 188 37 203 67 203 c 0
 94 203 96 183 96 172 c 0
 96 65 113 48 148 45 c 1
 169 86 171 137 171 205 c 0xec
 171 280 159 276 107 294 c 0
 42 317 35 365 35 434 c 2
 35 449 l 2
 35 520 51 619 115 619 c 0
 133 619 144 615 160 606 c 1
 165 613 172 619 183 619 c 0
 212 619 210 592 210 583 c 2
 210 439 l 2
 210 422 204 408 180 408 c 0
 132 408 156 448 141 524 c 0xf4
 136 547 130 562 118 564 c 1
 105 563 92 519 92 426 c 0
 92 350 109 359 163 339 c 0
 225 317 228 251 228 205 c 0
 228 196 227 186 227 177 c 2
 227 172 l 2
 227 99 212 -8 146 -8 c 0
 122 -8 105 -1 87 10 c 1
 84 3 77 -8 62 -8 c 0
 33 -8 35 24 35 27 c 2
297 27 m 2
 297 170 l 2
 297 187 299 203 329 203 c 2
 330 203 l 2
 360 203 359 176 359 168 c 0
 361 67 373 48 410 45 c 1
 431 86 433 137 433 205 c 0xe5
 433 280 421 276 369 294 c 0
 304 317 297 365 297 434 c 2
 297 449 l 2
 297 520 313 619 378 619 c 0
 396 619 406 615 422 606 c 1
 427 613 435 619 446 619 c 0
 475 619 472 592 472 583 c 2
 472 439 l 2
 472 422 467 408 443 408 c 0
 395 408 418 445 403 524 c 0xe6
 398 547 392 562 380 564 c 1
 367 563 354 519 354 426 c 0
 354 350 372 359 426 339 c 0
 488 317 490 251 490 205 c 0xe5
 490 194 490 183 490 172 c 0
 490 99 475 -8 409 -8 c 0
 385 -8 368 -1 350 10 c 1
 347 3 339 -8 324 -8 c 0
 295 -8 297 24 297 27 c 2
EndSplineSet
EndChar

StartChar: aacute
Encoding: 225 225 271
Width: 525
Flags: HW
TeX: 611 0
HStem: -4 53<150.102 324.698 421.083 522.756> 218 52<207.5 359> 384 53<163.928 314.718> 615 20G<328.5 342>
VStem: 59 62<76.8251 163.278> 87 77<330.181 381.897> 359 61<79.5719 218 270 340.205>
AnchorPoint: "below" 231 0 basechar 0
AnchorPoint: "above" 231 615 basechar 0
LayerCount: 2
Fore
SplineSet
153 530 m 0
 153 549 154 546 309 627 c 0
 317 631 324 635 333 635 c 0
 351 635 363 620 363 605 c 0
 363 585 346 577 336 572 c 0
 190 496 191 496 182 496 c 0xf2
 164 496 153 518 153 530 c 0
EndSplineSet
Refer: 143 97 S 1 0 0 1 -0 0 3
AlternateSubs2: "Stilistic set 01 subtable" aacute.vn
AlternateSubs2: "Latin alternatives subtable" aacute.vn
Substitution2: "Latin Vietnamese substitutions subtable" aacute.vn
EndChar

StartChar: acircumflex
Encoding: 226 226 272
Width: 525
Flags: HW
TeX: 638 0
HStem: -4 53<150.102 324.698 421.083 522.756> 218 52<207.5 359> 384 53<163.928 314.718> 580 63<239 268.375>
VStem: 59 62<76.8251 163.278> 87 77<330.181 381.897> 359 61<79.5719 218 270 340.205>
AnchorPoint: "below" 231 0 basechar 0
AnchorPoint: "above" 231 623 basechar 0
LayerCount: 2
Fore
SplineSet
81 529 m 0
 81 544 94 551 101 556 c 0
 227 639 228 643 239 643 c 0
 251 643 258 636 381 555 c 0
 393 547 398 539 398 529 c 0
 398 517 384 495 367 495 c 2
 366 495 l 2xf2
 354 495 265 561 240 580 c 1
 239 580 l 1
 139 509 l 2
 129 502 122 496 111 496 c 0
 93 496 81 518 81 529 c 0
EndSplineSet
Refer: 143 97 S 1 0 0 1 -0 -0 3
AlternateSubs2: "Stilistic set 01 subtable" acircumflex.vn
AlternateSubs2: "Latin alternatives subtable" acircumflex.vn
Substitution2: "Latin Vietnamese substitutions subtable" acircumflex.vn
EndChar

StartChar: atilde
Encoding: 227 227 273
Width: 525
Flags: HW
TeX: 638 0
HStem: -4 53<150.102 324.698 421.083 522.756> 218 52<207.5 359> 384 53<163.928 314.718> 499 57<287.208 369.041> 554 57<171.861 252.039>
VStem: 59 62<76.8251 163.278> 87 77<330.181 381.897> 359 61<79.5719 218 270 340.205>
AnchorPoint: "below" 231 0 basechar 0
AnchorPoint: "above" 231 591 basechar 0
LayerCount: 2
Fore
SplineSet
95 526 m 0
 95 537 102 543 113 553 c 0
 135 573 178 611 221 611 c 0xe9
 276 611 292 556 321 556 c 0
 360 556 395 610 416 610 c 0
 429 610 444 599 444 584 c 0
 444 573 436 565 427 557 c 0
 409 541 362 499 318 499 c 0xf1
 263 499 248 554 219 554 c 2
 218 554 l 1xe9
 179 553 144 499 122 499 c 0xf1
 109 499 95 511 95 526 c 0
EndSplineSet
Refer: 143 97 S 1 0 0 1 -0 0 3
AlternateSubs2: "Stilistic set 01 subtable" atilde.vn
AlternateSubs2: "Latin alternatives subtable" atilde.vn
Substitution2: "Latin Vietnamese substitutions subtable" atilde.vn
EndChar

StartChar: adieresis
Encoding: 228 228 274
Width: 525
Flags: HW
TeX: 611 0
HStem: -4 53<150.102 324.698 421.083 522.756> 218 52<207.5 359> 384 53<163.928 314.718> 525 86<130.607 204.107 334.893 408.176>
VStem: 59 62<76.8251 163.278> 87 77<330.181 381.897> 125 85<530.341 605.458> 329 85<530.642 605.458> 359 61<79.5719 218 270 340.205>
AnchorPoint: "below" 231 0 basechar 0
AnchorPoint: "above" 231 591 basechar 0
LayerCount: 2
Fore
SplineSet
125 568 m 0
 125 593 144 611 167 611 c 0
 193 611 210 590 210 568 c 0xf2
 210 545 192 525 168 525 c 0
 142 525 125 545 125 568 c 0
329 568 m 0
 329 590 347 611 371 611 c 0
 397 611 414 590 414 568 c 0
 414 544 394 525 372 525 c 0xf1
 346 525 329 546 329 568 c 0
EndSplineSet
Refer: 143 97 S 1 0 0 1 0 -0 3
EndChar

StartChar: aring
Encoding: 229 229 275
Width: 525
Flags: HW
TeX: 638 0
HStem: -4 53<150.102 324.698 421.083 522.756> 218 52<207.5 359> 384 53<163.928 314.718> 473 35<194.691 283.613> 612 35<195.447 284.109>
VStem: 59 62<76.8251 163.278> 87 77<330.181 381.897> 121 58<520.128 599.828> 300 58<521.245 599.222> 359 61<79.5719 218 270 340.205>
LayerCount: 2
Fore
SplineSet
121 560 m 0
 121 608 174 647 240 647 c 0
 314 647 358 602 358 560 c 0
 358 519 313 473 239 473 c 0
 164 473 121 519 121 560 c 0
179 560 m 0xf9c0
 179 533 204 508 239 508 c 0
 275 508 300 534 300 561 c 0
 300 587 275 612 240 612 c 0
 203 612 179 586 179 560 c 0xf9c0
EndSplineSet
Refer: 143 97 S 1 0 0 1 0 0 3
EndChar

StartChar: ae
Encoding: 230 230 276
Width: 525
Flags: HW
TeX: 430 0
HStem: -4 53<102.8 212.185 344.019 435.191> 195 52<135.646 237 288 453> 384 53<120.534 209.879 336.125 421.179>
VStem: 35 50<65.8505 155.443> 45 78<330.207 380.719> 237 51<117.719 193 247 322.89> 449 54<63.498 132.671 247 350.711>
AnchorPoint: "below" 270 0 basechar 0
AnchorPoint: "above" 258 437 basechar 0
LayerCount: 2
Fore
SplineSet
35 114 m 0xf6
 35 193 114 243 237 245 c 1
 237 277 l 2
 237 366 188 384 155 384 c 0
 143 384 131 383 120 381 c 1
 122 375 123 370 123 365 c 0
 123 340 102 326 84 326 c 0
 62 326 45 343 45 366 c 0xee
 45 394 68 437 158 437 c 0
 226 437 260 386 271 361 c 1
 272 361 l 1
 298 408 337 437 381 437 c 0
 430 437 504 397 504 226 c 0
 504 196 484 195 472 195 c 2
 288 195 l 1
 295 112 344 49 393 49 c 0
 416 49 436 62 449 96 c 0
 455 110 455 134 479 134 c 0
 494 134 503 123 503 108 c 0
 503 82 469 -4 390 -4 c 0
 361 -4 314 10 276 70 c 1
 241 4 172 -4 148 -4 c 0
 78 -4 35 56 35 114 c 0xf6
85 113 m 0xf6
 85 81 111 49 153 49 c 0
 178 49 236 61 236 130 c 2
 236 140 l 2
 236 182 237 188 237 193 c 1
 154 192 85 164 85 113 c 0xf6
288 247 m 1
 453 247 l 1
 451 328 423 384 380 384 c 0xe6
 343 384 301 340 288 247 c 1
EndSplineSet
EndChar

StartChar: ccedilla
Encoding: 231 231 277
Width: 525
Flags: HW
TeX: 430 194
HStem: -204 53<173.371 335.396> -3 52<218.258 260 322 367.076> 384 53<219.818 376.918>
VStem: 77 61<131.526 300.001> 260 62<-21.7852 0.0217285> 347 62<-137.484 -74.3669> 377 77<329.96 380.976> 403 62<81.0522 132.862>
AnchorPoint: "above" 300 437 basechar 0
LayerCount: 2
Fore
SplineSet
77 216 m 0
 77 328 161 437 295 437 c 2
 304 437 l 2
 355 437 454 435 454 366 c 0
 454 341 435 326 415 326 c 0
 393 326 377 344 377 366 c 0xfa
 377 370 377 374 378 378 c 1
 355 384 327 384 299 384 c 2
 296 384 l 2
 197 384 138 299 138 216 c 0
 138 113 220 53 281 50 c 1
 302 50 299 49 304 49 c 0
 326 49 381 59 403 111 c 0
 406 117 410 134 434 134 c 2
 437 134 l 2
 459 134 465 120 465 110 c 0xf9
 465 97 442 12 322 -3 c 1
 322 -15 l 1
 385 -30 409 -71 409 -108 c 0
 409 -195 306 -204 215 -204 c 2xfc
 202 -204 l 2
 183 -204 173 -191 173 -178 c 0
 173 -153 194 -151 207 -151 c 2
 211 -151 l 2
 292 -151 347 -145 347 -108 c 0xfc
 347 -79 316 -66 292 -64 c 0
 261 -62 260 -45 260 -27 c 2
 260 -2 l 1
 142 17 77 119 77 216 c 0
EndSplineSet
EndChar

StartChar: eacute
Encoding: 233 233 279
Width: 525
Flags: HW
TeX: 611 0
HStem: -4 53<209.064 365.695> 195 52<123 402> 384 53<197.175 345.57> 615 20G<313.5 327>
VStem: 401 63<81.3719 132.985 247 323.348>
AnchorPoint: "below" 286 0 basechar 0
AnchorPoint: "above" 271 615 basechar 0
LayerCount: 2
Fore
SplineSet
138 530 m 0
 138 549 139 546 294 627 c 0
 302 631 309 635 318 635 c 0
 336 635 348 620 348 605 c 0
 348 585 331 577 321 572 c 0
 175 496 176 496 167 496 c 0
 149 496 138 518 138 530 c 0
EndSplineSet
Refer: 147 101 S 1 0 0 1 -0 0 3
AlternateSubs2: "Stilistic set 01 subtable" eacute.vn
AlternateSubs2: "Latin alternatives subtable" eacute.vn
Substitution2: "Latin Vietnamese substitutions subtable" eacute.vn
EndChar

StartChar: ecircumflex
Encoding: 234 234 280
Width: 525
Flags: HW
TeX: 638 0
HStem: -4 53<209.064 365.695> 195 52<123 402> 384 53<197.175 345.57> 580 63<254 283.375>
VStem: 401 63<81.3719 132.985 247 323.348>
AnchorPoint: "below" 286 0 basechar 0
AnchorPoint: "above" 271 623 basechar 0
LayerCount: 2
Fore
SplineSet
96 529 m 0
 96 544 109 551 116 556 c 0
 242 639 243 643 254 643 c 0
 266 643 273 636 396 555 c 0
 402 551 413 543 413 529 c 0
 413 516 399 495 382 495 c 0
 371 495 373 495 285 558 c 0
 275 565 265 572 255 580 c 1
 254 580 l 1
 154 509 l 2
 144 502 137 496 126 496 c 0
 108 496 96 518 96 529 c 0
EndSplineSet
Refer: 147 101 S 1 0 0 1 -0 -0 3
AlternateSubs2: "Stilistic set 01 subtable" ecircumflex.vn
AlternateSubs2: "Latin alternatives subtable" ecircumflex.vn
Substitution2: "Latin Vietnamese substitutions subtable" ecircumflex.vn
EndChar

StartChar: edieresis
Encoding: 235 235 281
Width: 525
Flags: HW
TeX: 611 0
HStem: -4 53<209.064 365.695> 195 52<123 402> 384 53<197.175 345.57> 525 86<115.31 189.066 319.824 393.176>
VStem: 110 85<530.642 605.066> 314 85<530.542 605.458> 401 63<81.3719 132.985 247 323.348>
AnchorPoint: "below" 286 0 basechar 0
AnchorPoint: "above" 271 591 basechar 0
LayerCount: 2
Fore
SplineSet
110 568 m 0
 110 593 130 611 152 611 c 0
 178 611 195 589 195 568 c 0
 195 544 177 525 152 525 c 0
 130 525 110 543 110 568 c 0
314 568 m 0
 314 593 334 611 356 611 c 0
 382 611 399 590 399 568 c 0
 399 543 379 525 357 525 c 0
 331 525 314 546 314 568 c 0
EndSplineSet
Refer: 147 101 S 1 0 0 1 -0 -0 3
EndChar

StartChar: iacute
Encoding: 237 237 283
Width: 525
Flags: HW
TeX: 611 0
HStem: 0 53<82.3871 244 305 449.635> 378 53<90.5537 244> 615 20G<373.5 387>
VStem: 244 61<53 378>
AnchorPoint: "below" 274 0 basechar 0
AnchorPoint: "above" 274 621 basechar 0
LayerCount: 2
Fore
SplineSet
197 530 m 0
 197 549 198 546 353 627 c 0
 361 631 369 635 378 635 c 0
 396 635 408 620 408 605 c 0
 408 585 391 577 381 572 c 0
 235 496 236 496 227 496 c 0
 209 496 197 518 197 530 c 0
EndSplineSet
Refer: 71 305 S 1 0 0 1 -0 0 3
AlternateSubs2: "Stilistic set 01 subtable" iacute.vn
AlternateSubs2: "Latin alternatives subtable" iacute.vn
Substitution2: "Latin Vietnamese substitutions subtable" iacute.vn
Ligature2: "Cyrillic ligatures subtable" afii10103 acutecomb
Ligature2: "Latin ligatures excepting Turkic subtable" i acutecomb
EndChar

StartChar: icircumflex
Encoding: 238 238 284
Width: 525
Flags: HW
TeX: 638 0
HStem: -0 53<82.3871 244 305 449.635> 378 53<90.5537 244> 580 63<244.695 304.997>
VStem: 244 61<53 378>
AnchorPoint: "below" 274 0 basechar 0
AnchorPoint: "above" 274 629 basechar 0
LayerCount: 2
Fore
SplineSet
116 529 m 0
 116 544 129 551 136 556 c 0
 262 639 263 643 274 643 c 0
 286 643 293 636 416 555 c 0
 422 551 433 543 433 529 c 0
 433 518 420 495 402 495 c 0
 391 495 393 496 305 559 c 0
 295 566 285 572 275 580 c 1
 274 580 l 1
 158 496 160 496 146 496 c 0
 128 496 116 518 116 529 c 0
EndSplineSet
Refer: 71 305 S 1 0 0 1 0 -0 3
Ligature2: "Latin ligatures excepting Turkic subtable" i uni0302
EndChar

StartChar: idieresis
Encoding: 239 239 285
Width: 525
Flags: HW
TeX: 611 0
HStem: -0 53<106.556 242 303 424.628> 378 53<113.423 242> 525 85<337.701 412.458> 525 86<133.607 207.299>
VStem: 128 85<530.425 605.458> 242 61<53 378> 332 86<530.824 604.066>
AnchorPoint: "above" 272 591 basechar 0
LayerCount: 2
Fore
SplineSet
106 27 m 0
 106 48 122 53 140 53 c 2
 242 53 l 1
 242 378 l 1
 149 378 l 2
 147 378 146 377 143 377 c 0
 125 377 113 388 113 404 c 0
 113 429 136 431 145 431 c 2
 272 431 l 2
 301 431 303 411 303 399 c 2
 303 53 l 1
 393 53 l 2
 421 53 425 37 425 26 c 0
 425 17 422 1 395 -0 c 1
 138 -0 l 2
 113 0 106 16 106 27 c 0
128 568 m 0
 128 593 147 611 170 611 c 0
 196 611 213 590 213 568 c 0
 213 545 195 525 170 525 c 0xde
 148 525 128 543 128 568 c 0
EndSplineSet
Refer: 403 183 S 1 0 0 1 113 348 2
Ligature2: "Latin ligatures excepting Turkic subtable" i uni0308
EndChar

StartChar: eth
Encoding: 240 240 286
Width: 525
Flags: HW
TeX: 611 0
HStem: -4 53<196.47 326.858> 384 53<194.223 329.606> 557 54<68.7122 188.26>
VStem: 61 61<131.254 306.079> 401 62<132.833 305.665>
LayerCount: 2
Fore
SplineSet
61 216 m 0
 61 335 147 437 262 437 c 0
 295 437 322 428 344 418 c 1
 319 452 298 473 253 505 c 1
 252 505 l 1
 200 472 185 467 179 467 c 0
 164 467 151 483 151 499 c 0
 151 515 164 521 192 537 c 1
 111 564 108 552 87 557 c 0
 80 559 67 567 67 581 c 0
 67 593 79 611 102 611 c 0
 128 611 185 606 253 572 c 1
 288 594 317 610 328 610 c 0
 345 610 356 594 356 580 c 0
 356 563 341 556 309 538 c 1
 349 506 369 487 392 455 c 0
 434 399 463 326 463 240 c 0
 463 235 463 230 463 225 c 0
 463 65 349 -4 261 -4 c 0
 150 -4 61 95 61 216 c 0
122 223 m 0
 122 125 187 49 262 49 c 0
 339 49 401 130 401 219 c 0
 401 305 341 384 262 384 c 0
 185 384 122 312 122 223 c 0
EndSplineSet
EndChar

StartChar: ntilde
Encoding: 241 241 287
Width: 525
Flags: HW
TeX: 638 0
HStem: 0 53<15.3731 100 161 245.532 278.48 363 424 508.569> 378 53<15.5078 100 214.612 348.265> 499 57<279.717 360.473> 554 57<163.95 244.283>
VStem: 100 61<53 320.614 377 378> 363 61<53 364.869>
LayerCount: 2
Fore
SplineSet
88 526 m 0
 88 537 94 543 105 553 c 0
 150 593 184 611 214 611 c 0xdc
 269 611 284 556 313 556 c 2
 314 556 l 1
 353 557 388 610 409 610 c 0
 422 610 436 599 436 584 c 0
 436 573 429 565 420 557 c 0
 402 541 354 499 310 499 c 0xec
 255 499 240 554 211 554 c 2
 210 554 l 1xdc
 172 553 136 499 115 499 c 0xec
 102 499 88 511 88 526 c 0
EndSplineSet
Refer: 156 110 S 1 0 0 1 0 0 3
EndChar

StartChar: oacute
Encoding: 243 243 289
Width: 525
Flags: HW
TeX: 611 0
HStem: -4 53<195.775 328.626> 384 53<191.429 332.148> 615 20G<332.5 346>
VStem: 61 61<132.086 307.289> 402 61<132.514 307.504>
AnchorPoint: "below" 262 0 basechar 0
AnchorPoint: "above" 262 615 basechar 0
LayerCount: 2
Fore
SplineSet
156 530 m 0
 156 549 157 546 312 627 c 0
 320 631 328 635 337 635 c 0
 355 635 367 620 367 605 c 0
 367 585 350 577 340 572 c 0
 194 496 195 496 186 496 c 0
 168 496 156 518 156 530 c 0
EndSplineSet
Refer: 157 111 S 1 0 0 1 -0 0 3
AlternateSubs2: "Stilistic set 01 subtable" oacute.vn
AlternateSubs2: "Latin alternatives subtable" oacute.vn
Substitution2: "Latin Vietnamese substitutions subtable" oacute.vn
EndChar

StartChar: ocircumflex
Encoding: 244 244 290
Width: 525
Flags: HW
TeX: 638 0
HStem: -4 53<195.775 328.626> 384 53<191.429 332.148>
VStem: 61 61<132.086 307.289> 402 61<132.514 307.504>
AnchorPoint: "below" 262 0 basechar 0
AnchorPoint: "above" 262 623 basechar 0
LayerCount: 2
Fore
SplineSet
103 529 m 0
 103 544 116 551 123 556 c 0
 249 639 251 643 262 643 c 0
 274 643 280 636 403 555 c 0
 408 552 421 545 421 529 c 0
 421 518 408 495 390 495 c 0
 380 495 381 496 295 557 c 2
 263 580 l 1
 262 580 l 1
 162 509 l 2
 154 504 145 495 134 495 c 0
 115 495 103 519 103 529 c 0
EndSplineSet
Refer: 157 111 S 1 0 0 1 -0 -0 3
AlternateSubs2: "Stilistic set 01 subtable" ocircumflex.vn
AlternateSubs2: "Latin alternatives subtable" ocircumflex.vn
Substitution2: "Latin Vietnamese substitutions subtable" ocircumflex.vn
EndChar

StartChar: otilde
Encoding: 245 245 291
Width: 525
Flags: HW
TeX: 638 0
HStem: -4 53<195.775 328.626> 384 53<191.429 332.148> 499 57<280.311 358.813> 554 57<164.487 243.689>
VStem: 61 61<132.086 307.289> 402 61<132.514 307.504>
AnchorPoint: "below" 262 0 basechar 0
AnchorPoint: "above" 262 591 basechar 0
LayerCount: 2
Fore
SplineSet
88 526 m 0
 88 537 94 543 105 553 c 0
 127 573 171 611 214 611 c 0xdc
 270 611 284 556 313 556 c 0xec
 348 556 389 611 410 611 c 0xdc
 420 611 436 600 436 584 c 0
 436 573 428 565 419 557 c 0
 401 541 354 499 310 499 c 0xec
 254 499 240 554 211 554 c 0xdc
 172 553 137 499 115 499 c 0xec
 102 499 88 511 88 526 c 0
EndSplineSet
Refer: 157 111 S 1 0 0 1 -0 -0 3
AlternateSubs2: "Stilistic set 01 subtable" otilde.vn
AlternateSubs2: "Latin alternatives subtable" otilde.vn
Substitution2: "Latin Vietnamese substitutions subtable" otilde.vn
EndChar

StartChar: odieresis
Encoding: 246 246 292
Width: 525
Flags: HW
TeX: 611 0
HStem: -4 53<195.775 328.626> 384 53<191.429 332.148> 525 86<122.701 196.924 326.701 401.458>
VStem: 61 61<132.086 307.289> 117 86<531.076 605.066> 321 86<531.076 605.066> 402 61<132.514 307.504>
AnchorPoint: "below" 262 0 basechar 0
AnchorPoint: "above" 262 591 basechar 0
LayerCount: 2
Fore
SplineSet
117 568 m 0
 117 593 138 611 160 611 c 0
 181 611 203 593 203 568 c 0xe8
 203 543 182 525 160 525 c 0
 134 525 117 546 117 568 c 0
321 568 m 0
 321 593 342 611 364 611 c 0
 386 611 407 593 407 568 c 0
 407 543 386 525 364 525 c 0xe4
 338 525 321 546 321 568 c 0
EndSplineSet
Refer: 157 111 S 1 0 0 1 0 0 3
EndChar

StartChar: oe
Encoding: 339 339 293
Width: 525
Flags: HW
TeX: 430 0
HStem: -4 53<118.829 205.067 357.119 438.296> 195 52<307 455> 384 53<117.515 207.303 350.239 425.348>
VStem: 18 50<115.07 323.524> 256 50<113.357 195 247 324.126> 462 43<75.5646 133.68>
AnchorPoint: "below" 262 0 basechar 0
AnchorPoint: "above" 274 437 basechar 0
LayerCount: 2
Fore
SplineSet
18 217 m 0
 18 340 81 437 161 437 c 0
 232 437 268 368 280 344 c 1
 307 405 346 437 390 437 c 0
 436 437 505 398 505 226 c 0
 505 195 485 195 472 195 c 2
 306 195 l 1
 314 101 364 49 402 49 c 0
 447 49 453 115 462 125 c 0
 467 131 473 134 480 134 c 0
 492 134 505 125 505 109 c 0
 505 77 471 -4 399 -4 c 0
 328 -4 291 70 280 91 c 1
 265 56 227 -4 162 -4 c 0
 83 -4 18 90 18 217 c 0
68 223 m 0
 68 120 117 49 162 49 c 0
 204 49 256 114 256 223 c 0
 256 316 210 384 161 384 c 0
 119 384 68 324 68 223 c 0
307 247 m 1
 455 247 l 1
 450 345 422 384 390 384 c 0
 357 384 316 338 307 247 c 1
EndSplineSet
EndChar

StartChar: oslash
Encoding: 248 248 294
Width: 525
Flags: HW
TeX: 541 111
HStem: -4 53<202.819 342.354> 384 53<183.276 321.108>
VStem: 47 50<133.78 298.523> 426 50<133.454 298.817>
DStem2: 130 42 101 -114 0.502591 0.864525<-172.679 2.10501 52.4736 381.065 431.826 605.057>
LayerCount: 2
Fore
SplineSet
47 -110 m 0
 47 -99 51 -95 130 42 c 1
 76 84 47 150 47 215 c 0
 47 342 147 437 262 437 c 0
 295 437 317 431 349 418 c 1
 435 566 432 567 450 567 c 0
 463 567 477 557 477 541 c 0
 477 524 428 454 394 390 c 1
 434 358 476 296 476 216 c 0
 476 89 375 -4 262 -4 c 0
 227 -4 199 4 175 14 c 1
 168 1 161 -11 101 -114 c 0
 97 -122 89 -136 74 -136 c 0
 60 -136 47 -125 47 -110 c 0
97 216 m 0
 97 166 118 121 157 87 c 1
 322 373 l 1
 299 381 282 384 261 384 c 0
 176 384 97 315 97 216 c 0
202 60 m 1
 225 52 241 49 262 49 c 0
 348 49 426 118 426 216 c 0
 426 274 401 313 368 345 c 1
 367 345 l 1
 202 60 l 1
EndSplineSet
EndChar

StartChar: uacute
Encoding: 250 250 296
Width: 525
Flags: HW
TeX: 611 0
HStem: -4 53<173.246 319.365 424 507.953> 378 53<15.4611 100 278.436 363> 615 20G<332.5 344.5>
VStem: 100 61<63.0273 378> 363 61<90.2109 378>
AnchorPoint: "below" 262 0 basechar 0
AnchorPoint: "above" 262 621 basechar 0
LayerCount: 2
Fore
SplineSet
156 530 m 0
 156 549 157 546 312 627 c 0
 320 631 328 635 337 635 c 0
 352 635 367 623 367 605 c 0
 367 585 350 577 340 572 c 0
 194 496 195 496 186 496 c 0
 168 496 156 518 156 530 c 0
EndSplineSet
Refer: 163 117 S 1 0 0 1 -0 0 3
AlternateSubs2: "Stilistic set 01 subtable" uacute.vn
AlternateSubs2: "Latin alternatives subtable" uacute.vn
Substitution2: "Latin Vietnamese substitutions subtable" uacute.vn
EndChar

StartChar: ucircumflex
Encoding: 251 251 297
Width: 525
Flags: HW
TeX: 638 0
HStem: -4 53<173.246 319.365 424 507.953> 378 53<15.4611 100 278.436 363>
VStem: 100 61<63.0273 378> 363 61<90.2109 378>
AnchorPoint: "below" 262 0 basechar 0
AnchorPoint: "above" 262 629 basechar 0
LayerCount: 2
Fore
SplineSet
103 529 m 0
 103 544 116 551 123 556 c 0
 249 639 251 643 262 643 c 0
 274 643 280 636 403 555 c 0
 409 551 421 543 421 529 c 0
 421 516 407 495 390 495 c 0
 379 495 381 496 292 559 c 1
 263 580 l 1
 262 580 l 1
 162 509 l 2
 152 502 145 496 134 496 c 0
 116 496 103 518 103 529 c 0
EndSplineSet
Refer: 163 117 S 1 0 0 1 -0 -0 3
EndChar

StartChar: yacute
Encoding: 253 253 299
Width: 525
Flags: HW
TeX: 611 222
HStem: -227 54<113.241 174.377> 378 53<24.4349 94 148 214.424 310.53 380 432 500.469> 615 20G<385.5 399>
VStem: 42 76<-169.673 -116.404>
DStem2: 148 378 94 378 0.371391 -0.928477<0 340.008> 241 -13 272 -73 0.33435 0.942449<-161.571 38.0058 79.7717 414.972>
AnchorPoint: "below" 262 -222 basechar 0
AnchorPoint: "above" 266 621 basechar 0
LayerCount: 2
Fore
SplineSet
210 530 m 0
 210 549 211 546 366 627 c 0
 374 631 381 635 390 635 c 0
 408 635 421 620 421 605 c 0
 421 585 404 577 394 572 c 0
 248 496 249 496 240 496 c 0
 222 496 210 518 210 530 c 0
EndSplineSet
Refer: 167 121 S 1 0 0 1 -0 0 3
AlternateSubs2: "Stilistic set 01 subtable" yacute.vn
AlternateSubs2: "Latin alternatives subtable" yacute.vn
Substitution2: "Latin Vietnamese substitutions subtable" yacute.vn
EndChar

